<?xml version="1.0" standalone="no"?>
<!DOCTYPE svg PUBLIC "-//W3C//DTD SVG 1.1//EN" "http://www.w3.org/Graphics/SVG/1.1/DTD/svg11.dtd">
<svg width="1000mm" height="300mm" viewBox="-500 -150 1000 300" xmlns="http://www.w3.org/2000/svg" version="1.1">
<title>OpenSCAD Model</title>
<path d="
M 500,-150 L -500,-150 L -500,150 L 500,150 z
M -477.026,78.3725 L -446.435,-81.9435 L -421.415,-81.9435 L -451.481,78.3725 z
M -373.368,76.0737 L -376.265,75.7985 L -379.054,75.3397 L -381.736,74.6975 L -384.312,73.8717 L -386.78,72.8624
 L -389.141,71.6697 L -391.396,70.2934 L -393.543,68.7336 L -395.583,66.9903 L -397.517,65.0636 L -399.343,62.9533
 L -401.062,60.6595 L -402.664,58.2009 L -404.137,55.596 L -405.483,52.845 L -406.7,49.9478 L -407.789,46.9044
 L -408.75,43.7149 L -409.583,40.3791 L -410.288,36.8971 L -410.864,33.269 L -411.313,29.4946 L -411.633,25.5741
 L -411.825,21.5074 L -411.889,17.2945 L -411.822,13.0202 L -411.619,8.89835 L -411.282,4.92886 L -410.809,1.11177
 L -410.202,-2.55292 L -409.46,-6.06523 L -408.582,-9.42516 L -407.57,-12.6327 L -406.422,-15.6878 L -405.14,-18.5906
 L -403.723,-21.3409 L -402.17,-23.9389 L -400.483,-26.3845 L -398.672,-28.6628 L -396.748,-30.7587 L -394.712,-32.6725
 L -392.563,-34.4039 L -390.302,-35.9532 L -387.928,-37.3201 L -385.441,-38.5048 L -382.842,-39.5072 L -380.13,-40.3274
 L -377.306,-40.9653 L -374.369,-41.421 L -371.319,-41.6944 L -368.157,-41.7855 L -366.317,-41.7556 L -364.516,-41.6661
 L -362.754,-41.5168 L -361.031,-41.3078 L -359.348,-41.039 L -357.703,-40.7106 L -356.098,-40.3224 L -354.532,-39.8746
 L -353.006,-39.367 L -351.518,-38.7997 L -350.07,-38.1727 L -348.66,-37.4859 L -347.29,-36.7395 L -345.964,-35.9339
 L -344.685,-35.0699 L -343.454,-34.1474 L -342.272,-33.1665 L -341.137,-32.127 L -340.05,-31.0291 L -339.011,-29.8727
 L -338.019,-28.6579 L -337.076,-27.3846 L -336.181,-26.0527 L -335.333,-24.6625 L -334.534,-23.2137 L -333.782,-21.7065
 L -333.571,-21.7065 L -333.782,-40.4185 L -333.782,-81.9435 L -304.241,-81.9435 L -304.241,49.2525 L -304.236,50.8923
 L -304.221,52.5768 L -304.196,54.3062 L -304.162,56.0803 L -304.117,57.8992 L -304.062,59.7629 L -303.997,61.6713
 L -303.923,63.6246 L -303.838,65.6226 L -303.744,67.6654 L -303.639,69.753 L -303.525,71.8853 L -303.4,74.0625
 L -331.994,74.0625 L -332.06,73.7916 L -332.127,73.4641 L -332.197,73.0799 L -332.268,72.6392 L -332.341,72.1419
 L -332.416,71.5879 L -332.493,70.9774 L -332.572,70.3103 L -332.652,69.5865 L -332.735,68.8062 L -332.819,67.9692
 L -332.905,67.0757 L -332.993,66.1255 L -333.079,65.1598 L -333.157,64.2196 L -333.229,63.3049 L -333.294,62.4157
 L -333.352,61.552 L -333.404,60.7138 L -333.448,59.9011 L -333.486,59.1139 L -333.516,58.3522 L -333.54,57.616
 L -333.558,56.9053 L -333.568,56.2202 L -333.571,55.5605 L -333.992,55.5605 L -335.566,58.6086 L -337.344,61.4128
 L -339.325,63.9732 L -341.511,66.2897 L -343.901,68.3624 L -346.495,70.1913 L -349.293,71.7763 L -352.295,73.1174
 L -355.501,74.2147 L -358.911,75.0682 L -362.525,75.6778 L -366.343,76.0436 L -370.365,76.1655 z
M -356.091,55.9198 L -354.389,55.7379 L -352.749,55.4347 L -351.172,55.0102 L -349.657,54.4644 L -348.204,53.7973
 L -346.813,53.0089 L -345.484,52.0992 L -344.218,51.0683 L -343.014,49.916 L -341.872,48.6425 L -340.792,47.2476
 L -339.774,45.7315 L -338.826,44.1033 L -337.953,42.3724 L -337.156,40.5389 L -336.435,38.6028 L -335.79,36.564
 L -335.221,34.4227 L -334.727,32.1787 L -334.31,29.832 L -333.968,27.3828 L -333.703,24.8309 L -333.513,22.1764
 L -333.399,19.4193 L -333.361,16.5595 L -333.398,13.7793 L -333.507,11.0992 L -333.689,8.51926 L -333.943,6.03949
 L -334.271,3.65988 L -334.671,1.38042 L -335.144,-0.798874 L -335.69,-2.87804 L -336.309,-4.85703 L -337,-6.73587
 L -337.764,-8.51457 L -338.601,-10.1931 L -339.511,-11.7715 L -340.492,-13.2412 L -341.542,-14.5933 L -342.66,-15.8278
 L -343.848,-16.9447 L -345.105,-17.9441 L -346.431,-18.8259 L -347.826,-19.5902 L -349.29,-20.2368 L -350.823,-20.7659
 L -352.425,-21.1774 L -354.096,-21.4713 L -355.836,-21.6477 L -357.645,-21.7065 L -359.437,-21.6496 L -361.156,-21.4788
 L -362.803,-21.1942 L -364.378,-20.7958 L -365.881,-20.2836 L -367.312,-19.6575 L -368.67,-18.9176 L -369.957,-18.0638
 L -371.171,-17.0962 L -372.313,-16.0148 L -373.383,-14.8195 L -374.381,-13.5104 L -375.306,-12.0875 L -376.162,-10.5476
 L -376.948,-8.88771 L -377.667,-7.10774 L -378.317,-5.20773 L -378.899,-3.18767 L -379.412,-1.04756 L -379.857,1.21257
 L -380.233,3.59277 L -380.541,6.09302 L -380.78,8.71332 L -380.951,11.4537 L -381.054,14.3141 L -381.088,17.2945
 L -380.951,23.0173 L -380.538,28.2822 L -379.851,33.0894 L -378.889,37.4387 L -377.651,41.3302 L -376.139,44.7638
 L -374.352,47.7397 L -372.29,50.2577 L -369.953,52.3179 L -367.341,53.9203 L -364.454,55.0648 L -361.292,55.7516
 L -357.855,55.9805 z
M -56.3574,78.3725 L -25.7664,-81.9435 L -0.746445,-81.9435 L -30.8124,78.3725 z
M 77.1622,76.1344 L 75.3601,76.0411 L 73.5967,75.8856 L 71.8718,75.6679 L 70.1854,75.388 L 68.5377,75.0459
 L 66.9284,74.6416 L 65.3578,74.175 L 63.8256,73.6463 L 62.3321,73.0554 L 60.8771,72.4023 L 59.4606,71.687
 L 58.0827,70.9095 L 56.7485,70.0733 L 55.4628,69.1825 L 54.2256,68.2369 L 53.0369,67.2365 L 51.8968,66.1815
 L 50.8051,65.0717 L 49.762,63.9071 L 48.7673,62.6879 L 47.8212,61.4138 L 46.9236,60.0851 L 46.0744,58.7016
 L 45.2738,57.2634 L 44.5217,55.7705 L 44.3117,55.7705 L 44.3089,56.3528 L 44.3005,56.9675 L 44.2865,57.6145
 L 44.2669,58.2939 L 44.2417,59.0056 L 44.211,59.7496 L 44.1746,60.526 L 44.1326,61.3347 L 44.085,62.1758
 L 44.0318,63.0492 L 43.9731,63.9549 L 43.9087,64.8931 L 43.8387,65.8635 L 43.7656,66.8226 L 43.6919,67.7269
 L 43.6176,68.5766 L 43.5426,69.3715 L 43.467,70.1116 L 43.3908,70.7971 L 43.314,71.4277 L 43.2365,72.0037
 L 43.1584,72.5249 L 43.0797,72.9914 L 43.0003,73.4032 L 42.9203,73.7602 L 42.8397,74.0625 L 14.1407,74.0625
 L 14.2651,72.5204 L 14.3796,70.9024 L 14.4841,69.2086 L 14.5786,67.4388 L 14.6632,65.5932 L 14.7379,63.6717
 L 14.8026,61.6743 L 14.8573,59.601 L 14.9021,57.4519 L 14.9369,55.2269 L 14.9618,52.926 L 14.9767,50.5492
 L 14.9817,48.0965 L 14.9817,-81.9435 L 44.5217,-81.9435 L 44.5217,-38.4215 L 44.1017,-19.9195 L 44.5217,-19.9195
 L 46.1552,-23.1541 L 47.9828,-26.13 L 50.0044,-28.847 L 52.2201,-31.3053 L 54.6299,-33.5049 L 57.2338,-35.4456
 L 60.0317,-37.1276 L 63.0237,-38.5509 L 66.2097,-39.7153 L 69.5899,-40.621 L 73.1641,-41.268 L 76.9324,-41.6561
 L 80.8947,-41.7855 L 83.9443,-41.695 L 86.8825,-41.4235 L 89.7094,-40.9709 L 92.4249,-40.3374 L 95.029,-39.5228
 L 97.5218,-38.5272 L 99.9033,-37.3506 L 102.173,-35.9929 L 104.332,-34.4543 L 106.38,-32.7346 L 108.316,-30.8339
 L 110.14,-28.7522 L 111.854,-26.4895 L 113.448,-24.0613 L 114.914,-21.4832 L 116.253,-18.7552 L 117.465,-15.8773
 L 118.549,-12.8495 L 119.505,-9.67181 L 120.334,-6.34419 L 121.036,-2.86667 L 121.61,0.760742 L 122.056,4.53807
 L 122.375,8.4653 L 122.566,12.5424 L 122.63,16.7695 L 122.563,21.0295 L 122.362,25.1408 L 122.028,29.1035
 L 121.56,32.9175 L 120.958,36.5829 L 120.222,40.0996 L 119.353,43.4677 L 118.35,46.6871 L 117.213,49.7579
 L 115.943,52.68 L 114.538,55.4535 L 113,58.0783 L 111.329,60.5545 L 109.533,62.8638 L 107.621,64.9884
 L 105.595,66.9282 L 103.454,68.6833 L 101.197,70.2536 L 98.8257,71.6392 L 96.339,72.8401 L 93.7373,73.8562
 L 91.0206,74.6875 L 88.1887,75.3341 L 85.2418,75.796 L 82.1798,76.0731 L 79.0027,76.1655 z
M 71.8526,55.7485 L 75.0431,55.0524 L 77.9561,53.8923 L 80.5917,52.2682 L 82.9499,50.1801 L 85.0306,47.6279
 L 86.834,44.6116 L 88.3598,41.1314 L 89.6083,37.1871 L 90.5793,32.7787 L 91.2729,27.9063 L 91.689,22.5699
 L 91.8277,16.7695 L 91.7941,13.8527 L 91.6934,11.0542 L 91.5254,8.37381 L 91.2903,5.81161 L 90.9879,3.36763
 L 90.6184,1.04182 L 90.1817,-1.16577 L 89.6779,-3.2552 L 89.1068,-5.22644 L 88.4686,-7.07948 L 87.7631,-8.81435
 L 86.9905,-10.431 L 86.1507,-11.9295 L 85.2408,-13.3135 L 84.2574,-14.5868 L 83.2007,-15.7494 L 82.0705,-16.8013
 L 80.867,-17.7424 L 79.59,-18.5728 L 78.2396,-19.2925 L 76.8158,-19.9015 L 75.3186,-20.3997 L 73.748,-20.7872
 L 72.104,-21.064 L 70.3866,-21.2301 L 68.5957,-21.2855 L 66.7858,-21.2261 L 65.0437,-21.0479 L 63.3693,-20.7509
 L 61.7628,-20.3351 L 60.2241,-19.8004 L 58.7532,-19.147 L 57.3502,-18.3748 L 56.0149,-17.4837 L 54.7474,-16.4739
 L 53.5478,-15.3453 L 52.416,-14.0978 L 51.3519,-12.7316 L 50.3557,-11.2465 L 49.4306,-9.64946 L 48.5794,-7.9473
 L 47.8023,-6.14 L 47.0992,-4.22755 L 46.4701,-2.20998 L 45.915,-0.0872803 L 45.4339,2.14056 L 45.0269,4.47354
 L 44.6938,6.91165 L 44.4348,9.45491 L 44.2497,12.1033 L 44.1387,14.8568 L 44.1017,17.7155 L 44.1381,20.4499
 L 44.2473,23.0898 L 44.4292,25.6351 L 44.6839,28.0859 L 45.0113,30.4422 L 45.4116,32.7038 L 45.8846,34.871
 L 46.4303,36.9436 L 47.0489,38.9217 L 47.7402,40.8052 L 48.5043,42.5942 L 49.3411,44.2886 L 50.2507,45.8885
 L 51.2314,47.3814 L 52.2811,48.7549 L 53.3999,50.0089 L 54.5877,51.1435 L 55.8445,52.1587 L 57.1704,53.0544
 L 58.5653,53.8307 L 60.0293,54.4876 L 61.5623,55.025 L 63.1643,55.4431 L 64.8354,55.7416 L 66.5755,55.9208
 L 68.3847,55.9805 z
M 301.772,76.1216 L 298.361,75.9901 L 295.079,75.7708 L 291.928,75.4639 L 288.906,75.0692 L 286.015,74.5868
 L 283.253,74.0167 L 280.622,73.359 L 278.12,72.6135 L 275.748,71.7803 L 273.507,70.8594 L 271.395,69.8508
 L 269.414,68.7545 L 267.547,67.5654 L 265.778,66.2786 L 264.109,64.8941 L 262.539,63.412 L 261.068,61.8322
 L 259.695,60.1548 L 258.421,58.3797 L 257.247,56.507 L 256.171,54.5366 L 255.194,52.4686 L 254.316,50.3029
 L 253.537,48.0395 L 252.857,45.6785 L 278.823,41.7895 L 279.181,43.0067 L 279.578,44.168 L 280.012,45.2733
 L 280.485,46.3226 L 280.995,47.3159 L 281.543,48.2533 L 282.13,49.1347 L 282.754,49.9601 L 283.416,50.7295
 L 284.116,51.443 L 284.854,52.1005 L 285.63,52.702 L 286.444,53.2475 L 287.324,53.7451 L 288.3,54.2029
 L 289.371,54.621 L 290.537,54.9992 L 291.798,55.3376 L 293.154,55.6361 L 294.606,55.8949 L 296.152,56.1139
 L 297.794,56.293 L 299.531,56.4323 L 301.364,56.5319 L 303.291,56.5916 L 305.314,56.6115 L 307.182,56.5928
 L 308.971,56.5369 L 310.681,56.4436 L 312.31,56.313 L 313.861,56.1451 L 315.331,55.9398 L 316.722,55.6973
 L 318.033,55.4174 L 319.265,55.1003 L 320.417,54.7458 L 321.49,54.354 L 322.482,53.9249 L 323.396,53.4585
 L 324.235,52.9521 L 325.008,52.4034 L 325.713,51.8125 L 326.352,51.1792 L 326.923,50.5036 L 327.427,49.7858
 L 327.863,49.0256 L 328.233,48.2232 L 328.535,47.3784 L 328.77,46.4914 L 328.938,45.5621 L 329.039,44.5904
 L 329.073,43.5765 L 329.046,42.7488 L 328.964,41.9479 L 328.829,41.1737 L 328.64,40.4262 L 328.396,39.7056
 L 328.098,39.0117 L 327.747,38.3445 L 327.341,37.7041 L 326.881,37.0905 L 326.367,36.5036 L 325.798,35.9435
 L 325.176,35.4101 L 324.5,34.9035 L 323.758,34.4162 L 322.942,33.9407 L 322.05,33.4769 L 321.083,33.0251
 L 320.041,32.585 L 318.924,32.1567 L 317.731,31.7402 L 316.463,31.3356 L 315.119,30.9427 L 313.701,30.5617
 L 312.207,30.1925 L 310.638,29.8351 L 308.994,29.4895 L 305.241,28.7334 L 301.681,27.9854 L 298.314,27.2455
 L 295.139,26.5136 L 292.158,25.7899 L 289.369,25.0743 L 286.773,24.3667 L 284.37,23.6673 L 282.16,22.9759
 L 280.143,22.2927 L 278.318,21.6175 L 276.686,20.9505 L 275.248,20.2915 L 273.93,19.6215 L 272.661,18.9216
 L 271.442,18.192 L 270.271,17.4324 L 269.15,16.643 L 268.078,15.8238 L 267.055,14.9747 L 266.081,14.0958
 L 265.157,13.187 L 264.281,12.2484 L 263.455,11.28 L 262.678,10.2816 L 261.95,9.25349 L 261.273,8.19191
 L 260.651,7.09363 L 260.083,5.95866 L 259.568,4.78699 L 259.108,3.57861 L 258.702,2.33354 L 258.351,1.05177
 L 258.053,-0.266678 L 257.81,-1.62184 L 257.62,-3.01372 L 257.485,-4.44228 L 257.404,-5.90753 L 257.377,-7.40948
 L 257.451,-9.87366 L 257.674,-12.2526 L 258.046,-14.5463 L 258.566,-16.7548 L 259.235,-18.8781 L 260.053,-20.9162
 L 261.019,-22.869 L 262.134,-24.7366 L 263.397,-26.519 L 264.81,-28.2162 L 266.371,-29.8282 L 268.08,-31.355
 L 269.939,-32.7965 L 271.933,-34.1418 L 274.052,-35.3794 L 276.294,-36.5094 L 278.66,-37.5318 L 281.15,-38.4466
 L 283.763,-39.2538 L 286.501,-39.9533 L 289.362,-40.5452 L 292.347,-41.0295 L 295.456,-41.4062 L 298.688,-41.6752
 L 302.044,-41.8367 L 305.525,-41.8905 L 308.599,-41.8438 L 311.579,-41.7039 L 314.466,-41.4706 L 317.259,-41.144
 L 319.957,-40.7241 L 322.562,-40.2108 L 325.073,-39.6043 L 327.49,-38.9044 L 329.813,-38.1113 L 332.042,-37.2248
 L 334.177,-36.245 L 336.218,-35.1719 L 338.166,-34.0055 L 340.011,-32.7509 L 341.746,-31.4129 L 343.371,-29.9916
 L 344.886,-28.4869 L 346.291,-26.8989 L 347.586,-25.2275 L 348.77,-23.4727 L 349.845,-21.6346 L 350.81,-19.7131
 L 351.664,-17.7082 L 352.408,-15.62 L 353.042,-13.4484 L 353.567,-11.1935 L 327.391,-8.46049 L 327.175,-9.50705
 L 326.915,-10.5119 L 326.612,-11.4751 L 326.266,-12.3967 L 325.876,-13.2766 L 325.442,-14.1148 L 324.965,-14.9113
 L 324.444,-15.6662 L 323.88,-16.3794 L 323.272,-17.0509 L 322.621,-17.6808 L 321.926,-18.269 L 321.188,-18.8155
 L 320.393,-19.321 L 319.53,-19.786 L 318.599,-20.2106 L 317.6,-20.5948 L 316.532,-20.9385 L 315.395,-21.2418
 L 314.19,-21.5046 L 312.917,-21.727 L 311.575,-21.909 L 310.165,-22.0505 L 308.687,-22.1516 L 307.14,-22.2123
 L 305.525,-22.2325 L 303.938,-22.2166 L 302.414,-22.169 L 300.952,-22.0897 L 299.553,-21.9787 L 298.215,-21.8359
 L 296.94,-21.6614 L 295.727,-21.4552 L 294.576,-21.2172 L 293.488,-20.9475 L 292.461,-20.6461 L 291.497,-20.313
 L 290.595,-19.9481 L 289.756,-19.5515 L 288.978,-19.1176 L 288.263,-18.6407 L 287.61,-18.121 L 287.019,-17.5583
 L 286.49,-16.9528 L 286.024,-16.3043 L 285.619,-15.6129 L 285.277,-14.8786 L 284.997,-14.1014 L 284.779,-13.2813
 L 284.624,-12.4183 L 284.531,-11.5123 L 284.5,-10.5635 L 284.524,-9.81548 L 284.595,-9.09171 L 284.715,-8.3922
 L 284.883,-7.71696 L 285.098,-7.06598 L 285.362,-6.43925 L 285.673,-5.83679 L 286.032,-5.25859 L 286.439,-4.70465
 L 286.894,-4.17497 L 287.397,-3.66956 L 287.948,-3.18839 L 288.547,-2.73149 L 289.202,-2.29263 L 289.922,-1.8656
 L 290.708,-1.45038 L 291.56,-1.047 L 292.476,-0.655426 L 293.458,-0.275681 L 294.505,0.0922241 L 295.618,0.448334
 L 296.796,0.792603 L 298.039,1.12506 L 299.348,1.44569 L 300.721,1.7545 L 302.161,2.0515 L 304.197,2.47304
 L 306.198,2.89644 L 308.163,3.3217 L 310.093,3.74883 L 311.987,4.1778 L 313.846,4.60863 L 315.67,5.04132
 L 317.458,5.47588 L 319.21,5.91228 L 320.927,6.35054 L 322.609,6.79066 L 324.255,7.23265 L 325.866,7.6765
 L 327.434,8.12764 L 328.955,8.59187 L 330.426,9.06918 L 331.85,9.55957 L 333.224,10.063 L 334.551,10.5796
 L 335.828,11.1092 L 337.058,11.6519 L 338.238,12.2076 L 339.37,12.7765 L 340.454,13.3584 L 341.489,13.9534
 L 342.476,14.5615 L 343.423,15.1895 L 344.34,15.8442 L 345.228,16.5257 L 346.086,17.2339 L 346.914,17.9689
 L 347.712,18.7306 L 348.48,19.5191 L 349.219,20.3343 L 349.927,21.1762 L 350.606,22.0449 L 351.255,22.9404
 L 351.874,23.8626 L 352.463,24.8115 L 353.015,25.7946 L 353.523,26.8194 L 353.986,27.8859 L 354.406,28.9941
 L 354.781,30.1439 L 355.113,31.3354 L 355.4,32.5685 L 355.643,33.8434 L 355.841,35.1598 L 355.996,36.518
 L 356.106,37.9178 L 356.173,39.3593 L 356.195,40.8425 L 356.115,43.3397 L 355.875,45.753 L 355.475,48.0823
 L 354.916,50.3276 L 354.196,52.4889 L 353.317,54.5663 L 352.278,56.5597 L 351.079,58.4691 L 349.72,60.2945
 L 348.201,62.036 L 346.522,63.6935 L 344.684,65.267 L 342.686,66.7565 L 340.546,68.1484 L 338.284,69.4289
 L 335.9,70.598 L 333.393,71.6559 L 330.763,72.6023 L 328.011,73.4374 L 325.136,74.1612 L 322.139,74.7736
 L 319.019,75.2747 L 315.776,75.6644 L 312.411,75.9428 L 308.924,76.1098 L 305.314,76.1655 z
M 167.185,76.1123 L 164.774,75.9528 L 162.45,75.6868 L 160.211,75.3146 L 158.058,74.8359 L 155.991,74.2509
 L 154.01,73.5595 L 152.115,72.7617 L 150.305,71.8576 L 148.582,70.8472 L 146.944,69.7303 L 145.392,68.5071
 L 143.926,67.1775 L 142.557,65.7513 L 141.298,64.2388 L 140.149,62.6397 L 139.109,60.9542 L 138.178,59.1823
 L 137.357,57.3239 L 136.645,55.379 L 136.043,53.3477 L 135.551,51.23 L 135.167,49.0258 L 134.894,46.7351
 L 134.729,44.358 L 134.675,41.8945 L 134.743,39.2272 L 134.947,36.6594 L 135.288,34.1911 L 135.764,31.8224
 L 136.378,29.5532 L 137.127,27.3835 L 138.012,25.3134 L 139.034,23.3427 L 140.192,21.4716 L 141.486,19.7001
 L 142.916,18.028 L 144.483,16.4555 L 146.186,14.9825 L 148.018,13.6127 L 149.973,12.35 L 152.05,11.1942
 L 154.25,10.1454 L 156.572,9.20361 L 159.017,8.36879 L 161.584,7.64095 L 164.274,7.02008 L 167.087,6.5062
 L 170.022,6.0993 L 173.08,5.79938 L 176.26,5.60645 L 179.563,5.52049 L 204.057,5.10049 L 204.057,-0.681488
 L 204.034,-2.36191 L 203.965,-3.9745 L 203.85,-5.51932 L 203.688,-6.99634 L 203.481,-8.40555 L 203.228,-9.74696
 L 202.929,-11.0206 L 202.584,-12.2264 L 202.192,-13.3644 L 201.755,-14.4346 L 201.272,-15.437 L 200.742,-16.3717
 L 200.167,-17.2385 L 199.539,-18.0394 L 198.853,-18.7762 L 198.109,-19.4489 L 197.306,-20.0576 L 196.444,-20.6022
 L 195.524,-21.0827 L 194.546,-21.4992 L 193.509,-21.8516 L 192.413,-22.1399 L 191.259,-22.3642 L 190.047,-22.5244
 L 188.776,-22.6205 L 187.447,-22.6525 L 186.211,-22.6304 L 185.027,-22.5642 L 183.895,-22.4538 L 182.814,-22.2992
 L 181.785,-22.1004 L 180.807,-21.8575 L 179.881,-21.5704 L 179.007,-21.2392 L 178.184,-20.8638 L 177.413,-20.4442
 L 176.694,-19.9805 L 176.026,-19.4726 L 175.41,-18.9205 L 174.836,-18.3174 L 174.298,-17.6565 L 173.793,-16.9377
 L 173.322,-16.1611 L 172.886,-15.3266 L 172.484,-14.4343 L 172.116,-13.4842 L 171.782,-12.4762 L 171.483,-11.4103
 L 171.217,-10.2867 L 170.986,-9.1051 L 170.789,-7.86572 L 170.627,-6.5685 L 139.826,-8.0405 L 140.319,-10.5481
 L 140.924,-12.9606 L 141.642,-15.278 L 142.473,-17.5001 L 143.416,-19.6272 L 144.472,-21.659 L 145.641,-23.5957
 L 146.922,-25.4372 L 148.315,-27.1836 L 149.821,-28.8348 L 151.44,-30.3909 L 153.172,-31.8518 L 155.016,-33.2175
 L 156.969,-34.485 L 159.029,-35.651 L 161.195,-36.7157 L 163.468,-37.6789 L 165.847,-38.5408 L 168.332,-39.3013
 L 170.924,-39.9604 L 173.622,-40.518 L 176.427,-40.9743 L 179.338,-41.3292 L 182.355,-41.5827 L 185.479,-41.7348
 L 188.709,-41.7855 L 191.966,-41.7227 L 195.106,-41.5342 L 198.129,-41.22 L 201.035,-40.7802 L 203.824,-40.2148
 L 206.496,-39.5237 L 209.051,-38.7069 L 211.49,-37.7645 L 213.811,-36.6964 L 216.016,-35.5027 L 218.103,-34.1833
 L 220.074,-32.7382 L 221.928,-31.1675 L 223.654,-29.4812 L 225.242,-27.6892 L 226.692,-25.7914 L 228.004,-23.7878
 L 229.178,-21.6785 L 230.213,-19.4634 L 231.111,-17.1426 L 231.871,-14.716 L 232.492,-12.1836 L 232.975,-9.54549
 L 233.32,-6.80157 L 233.528,-3.95192 L 233.597,-0.99649 L 233.597,40.4225 L 233.609,41.859 L 233.648,43.2253
 L 233.711,44.5213 L 233.801,45.747 L 233.915,46.9024 L 234.056,47.9875 L 234.222,49.0024 L 234.413,49.9469
 L 234.63,50.8212 L 234.872,51.6252 L 235.14,52.3589 L 235.433,53.0224 L 235.752,53.6155 L 236.1,54.152
 L 236.483,54.6456 L 236.9,55.0963 L 237.352,55.5041 L 237.837,55.869 L 238.357,56.1909 L 238.911,56.4699
 L 239.499,56.7059 L 240.121,56.8991 L 240.778,57.0493 L 241.469,57.1566 L 242.193,57.221 L 242.953,57.2425
 L 243.469,57.2388 L 243.983,57.2276 L 244.494,57.2089 L 245.003,57.1828 L 245.509,57.1492 L 246.013,57.1081
 L 246.515,57.0595 L 247.013,57.0035 L 247.51,56.9401 L 248.004,56.8691 L 248.495,56.7907 L 248.984,56.7048
 L 249.471,56.6115 L 249.471,72.5905 L 249.069,72.687 L 248.674,72.7822 L 248.286,72.8761 L 247.903,72.9689
 L 247.527,73.0603 L 247.157,73.1506 L 246.793,73.2396 L 246.435,73.3273 L 246.084,73.4139 L 245.738,73.4991
 L 245.399,73.5832 L 245.066,73.666 L 244.74,73.7475 L 244.416,73.827 L 244.093,73.9041 L 243.769,73.9786
 L 243.446,74.0507 L 243.123,74.1203 L 242.799,74.1874 L 242.476,74.252 L 242.152,74.3141 L 241.829,74.3738
 L 241.505,74.4309 L 241.182,74.4856 L 240.858,74.5378 L 240.535,74.5875 L 240.21,74.6355 L 239.882,74.6822
 L 239.55,74.7277 L 239.216,74.7719 L 238.879,74.8149 L 238.538,74.8566 L 238.194,74.8971 L 237.848,74.9363
 L 237.498,74.9742 L 237.145,75.0109 L 236.788,75.0464 L 236.429,75.0806 L 236.067,75.1135 L 235.698,75.1447
 L 235.32,75.1734 L 234.933,75.1996 L 234.537,75.2234 L 234.131,75.2446 L 233.716,75.2633 L 233.291,75.2795
 L 232.858,75.2933 L 232.414,75.3045 L 231.962,75.3133 L 231.5,75.3195 L 231.029,75.3232 L 230.549,75.3245
 L 228.869,75.2921 L 227.258,75.1951 L 225.716,75.0334 L 224.243,74.8069 L 222.84,74.5158 L 221.505,74.1599
 L 220.239,73.7394 L 219.043,73.2542 L 217.915,72.7042 L 216.857,72.0896 L 215.867,71.4102 L 214.947,70.6662
 L 214.096,69.8575 L 213.304,68.9859 L 212.563,68.0535 L 211.872,67.06 L 211.232,66.0056 L 210.642,64.8903
 L 210.103,63.714 L 209.613,62.4768 L 209.175,61.1786 L 208.786,59.8195 L 208.448,58.3994 L 208.16,56.9184
 L 207.923,55.3764 L 207.736,53.7735 L 207.106,53.7735 L 205.123,57.0859 L 202.99,60.1333 L 200.708,62.9158
 L 198.278,65.4332 L 195.697,67.6857 L 192.968,69.6731 L 190.089,71.3956 L 187.061,72.8531 L 183.883,74.0455
 L 180.557,74.973 L 177.081,75.6355 L 173.455,76.033 L 169.681,76.1655 z
M 180.202,55.5381 L 181.248,55.4709 L 182.28,55.359 L 183.297,55.2022 L 184.3,55.0007 L 185.289,54.7544
 L 186.264,54.4634 L 187.224,54.1275 L 188.17,53.7469 L 189.101,53.3214 L 190.018,52.8512 L 190.921,52.3363
 L 191.81,51.7765 L 192.676,51.1771 L 193.514,50.5435 L 194.322,49.8757 L 195.101,49.1736 L 195.851,48.4374
 L 196.572,47.667 L 197.263,46.8624 L 197.925,46.0236 L 198.558,45.1506 L 199.162,44.2434 L 199.736,43.3019
 L 200.282,42.3263 L 200.798,41.3165 L 201.28,40.2848 L 201.723,39.2437 L 202.128,38.1933 L 202.495,37.1336
 L 202.823,36.0645 L 203.112,34.9862 L 203.362,33.8985 L 203.575,32.8015 L 203.748,31.6951 L 203.883,30.5795
 L 203.98,29.4545 L 204.037,28.3201 L 204.057,27.1765 L 204.057,21.3945 L 188.919,21.6055 L 187.369,21.6785
 L 185.891,21.7683 L 184.483,21.875 L 183.146,21.9984 L 181.88,22.1386 L 180.686,22.2957 L 179.562,22.4695
 L 178.508,22.6602 L 177.526,22.8676 L 176.615,23.0919 L 175.775,23.3329 L 175.005,23.5908 L 174.307,23.8655
 L 173.656,24.1599 L 173.029,24.4774 L 172.427,24.8179 L 171.848,25.1814 L 171.294,25.568 L 170.765,25.9776
 L 170.259,26.4102 L 169.778,26.8658 L 169.321,27.3445 L 168.888,27.8462 L 168.48,28.3709 L 168.096,28.9187
 L 167.736,29.4895 L 167.401,30.0866 L 167.094,30.7135 L 166.813,31.3704 L 166.559,32.0571 L 166.332,32.7736
 L 166.131,33.5201 L 165.957,34.2964 L 165.81,35.1026 L 165.69,35.9386 L 165.596,36.8045 L 165.529,37.7003
 L 165.489,38.626 L 165.476,39.5815 L 165.498,40.8023 L 165.564,41.974 L 165.674,43.0965 L 165.829,44.1698
 L 166.028,45.1941 L 166.271,46.1691 L 166.558,47.0951 L 166.889,47.9718 L 167.264,48.7995 L 167.684,49.5779
 L 168.148,50.3073 L 168.656,50.9875 L 169.208,51.6185 L 169.796,52.2016 L 170.414,52.7381 L 171.062,53.228
 L 171.738,53.6711 L 172.444,54.0677 L 173.179,54.4175 L 173.943,54.7208 L 174.736,54.9774 L 175.559,55.1873
 L 176.411,55.3506 L 177.292,55.4672 L 178.202,55.5372 L 179.142,55.5605 z
M -234.575,76.0756 L -238.31,75.8059 L -241.905,75.3565 L -245.359,74.7273 L -248.673,73.9183 L -251.846,72.9295
 L -254.878,71.761 L -257.77,70.4127 L -260.522,68.8846 L -263.132,67.1767 L -265.603,65.2891 L -267.932,63.2217
 L -270.121,60.9745 L -272.158,58.555 L -274.033,55.9707 L -275.744,53.2215 L -277.292,50.3076 L -278.677,47.2288
 L -279.899,43.9851 L -280.959,40.5767 L -281.855,37.0034 L -282.588,33.2652 L -283.159,29.3623 L -283.566,25.2945
 L -283.811,21.0619 L -283.892,16.6645 L -283.81,12.4072 L -283.561,8.30411 L -283.148,4.35533 L -282.569,0.560822
 L -281.824,-3.07939 L -280.914,-6.56537 L -279.839,-9.89705 L -278.598,-13.0745 L -277.191,-16.0976 L -275.619,-18.9665
 L -273.882,-21.6811 L -271.979,-24.2414 L -269.911,-26.6475 L -267.691,-28.8868 L -265.333,-30.947 L -262.837,-32.8281
 L -260.202,-34.53 L -257.43,-36.0528 L -254.519,-37.3964 L -251.47,-38.5608 L -248.284,-39.5461 L -244.959,-40.3523
 L -241.496,-40.9793 L -237.895,-41.4272 L -234.156,-41.6959 L -230.278,-41.7855 L -226.578,-41.6894 L -223.015,-41.4011
 L -219.589,-40.9205 L -216.3,-40.2478 L -213.147,-39.3828 L -210.132,-38.3257 L -207.253,-37.0763 L -204.511,-35.6347
 L -201.906,-34.0009 L -199.438,-32.1748 L -197.106,-30.1566 L -194.912,-27.9462 L -192.854,-25.5435 L -190.941,-22.9555
 L -189.182,-20.1889 L -187.575,-17.2438 L -186.121,-14.1203 L -184.82,-10.8181 L -183.672,-7.33751 L -182.678,-3.67834
 L -181.836,0.159302 L -181.147,4.17551 L -180.612,8.37022 L -180.229,12.7435 L -180,17.2952 L -179.923,22.0255
 L -179.923,22.8665 L -252.88,22.8665 L -252.844,25.3737 L -252.735,27.7844 L -252.553,30.0988 L -252.298,32.3167
 L -251.97,34.4382 L -251.57,36.4633 L -251.097,38.392 L -250.551,40.2243 L -249.933,41.9602 L -249.241,43.5996
 L -248.477,45.1427 L -247.64,46.5893 L -246.73,47.9395 L -245.753,49.1913 L -244.715,50.3429 L -243.615,51.3944
 L -242.453,52.3457 L -241.23,53.1969 L -239.945,53.948 L -238.599,54.5989 L -237.191,55.1497 L -235.721,55.6004
 L -234.19,55.9509 L -232.597,56.2012 L -230.943,56.3514 L -229.227,56.4015 L -226.886,56.3212 L -224.681,56.0805
 L -222.614,55.6793 L -220.683,55.1176 L -218.889,54.3954 L -217.232,53.5128 L -215.711,52.4696 L -214.328,51.266
 L -213.081,49.9018 L -211.971,48.3772 L -210.998,46.6921 L -210.162,44.8466 L -209.463,42.8405 L -181.605,45.2585
 L -183.613,49.8305 L -185.915,54.0368 L -188.512,57.8773 L -191.404,61.3521 L -194.591,64.4611 L -198.072,67.2043
 L -201.849,69.5818 L -205.92,71.5934 L -210.286,73.2394 L -214.947,74.5196 L -219.903,75.434 L -225.154,75.9826
 L -230.699,76.1655 z
M -208.676,2.28662 L -208.893,0.290222 L -209.169,-1.62468 L -209.503,-3.45811 L -209.895,-5.21008 L -210.346,-6.88055
 L -210.856,-8.46956 L -211.423,-9.97708 L -212.05,-11.4031 L -212.735,-12.7477 L -213.478,-14.0108 L -214.28,-15.1924
 L -215.14,-16.2925 L -216.053,-17.3111 L -217.014,-18.2483 L -218.022,-19.1039 L -219.077,-19.8781 L -220.179,-20.5708
 L -221.328,-21.182 L -222.525,-21.7117 L -223.769,-22.1599 L -225.061,-22.5266 L -226.4,-22.8118 L -227.785,-23.0155
 L -229.219,-23.1377 L -230.699,-23.1785 L -232.272,-23.1356 L -233.788,-23.0068 L -235.248,-22.7922 L -236.651,-22.4917
 L -237.997,-22.1054 L -239.287,-21.6333 L -240.52,-21.0753 L -241.697,-20.4314 L -242.816,-19.7017 L -243.88,-18.8862
 L -244.887,-17.9848 L -245.837,-16.9976 L -246.73,-15.9245 L -247.564,-14.7743 L -248.335,-13.5557 L -249.043,-12.2686
 L -249.689,-10.9132 L -250.271,-9.48932 L -250.791,-7.99704 L -251.248,-6.43634 L -251.642,-4.80724 L -251.973,-3.10971
 L -252.242,-1.34378 L -252.447,0.490555 L -252.59,2.39331 L -252.67,4.36449 L -208.517,4.36449 z
M 419.936,76.0756 L 416.2,75.8059 L 412.606,75.3565 L 409.151,74.7273 L 405.838,73.9183 L 402.665,72.9295
 L 399.632,71.761 L 396.74,70.4127 L 393.989,68.8846 L 391.378,67.1767 L 388.908,65.2891 L 386.579,63.2217
 L 384.389,60.9745 L 382.352,58.555 L 380.478,55.9707 L 378.767,53.2215 L 377.219,50.3076 L 375.834,47.2288
 L 374.611,43.9851 L 373.552,40.5767 L 372.656,37.0034 L 371.922,33.2652 L 371.352,29.3623 L 370.944,25.2945
 L 370.7,21.0619 L 370.618,16.6645 L 370.701,12.4072 L 370.949,8.30411 L 371.363,4.35533 L 371.942,0.560822
 L 372.687,-3.07939 L 373.597,-6.56537 L 374.672,-9.89705 L 375.913,-13.0745 L 377.319,-16.0976 L 378.891,-18.9665
 L 380.629,-21.6811 L 382.531,-24.2414 L 384.599,-26.6475 L 386.82,-28.8868 L 389.178,-30.947 L 391.674,-32.8281
 L 394.309,-34.53 L 397.081,-36.0528 L 399.992,-37.3964 L 403.04,-38.5608 L 406.227,-39.5461 L 409.552,-40.3523
 L 413.015,-40.9793 L 416.616,-41.4272 L 420.355,-41.6959 L 424.232,-41.7855 L 427.932,-41.6894 L 431.495,-41.4011
 L 434.922,-40.9205 L 438.211,-40.2478 L 441.363,-39.3828 L 444.379,-38.3257 L 447.258,-37.0763 L 450,-35.6347
 L 452.605,-34.0009 L 455.073,-32.1748 L 457.404,-30.1566 L 459.599,-27.9462 L 461.656,-25.5435 L 463.569,-22.9555
 L 465.329,-20.1889 L 466.936,-17.2438 L 468.39,-14.1203 L 469.691,-10.8181 L 470.838,-7.33751 L 471.833,-3.67834
 L 472.675,0.159302 L 473.363,4.17551 L 473.899,8.37022 L 474.281,12.7435 L 474.511,17.2952 L 474.587,22.0255
 L 474.587,22.8665 L 401.63,22.8665 L 401.667,25.3737 L 401.776,27.7844 L 401.958,30.0988 L 402.213,32.3167
 L 402.54,34.4382 L 402.941,36.4633 L 403.414,38.392 L 403.959,40.2243 L 404.578,41.9602 L 405.27,43.5996
 L 406.034,45.1427 L 406.871,46.5893 L 407.78,47.9395 L 408.757,49.1913 L 409.796,50.3429 L 410.896,51.3944
 L 412.058,52.3457 L 413.281,53.1969 L 414.566,53.948 L 415.912,54.5989 L 417.32,55.1497 L 418.79,55.6004
 L 420.321,55.9509 L 421.913,56.2012 L 423.568,56.3514 L 425.283,56.4015 L 427.625,56.3212 L 429.829,56.0805
 L 431.897,55.6793 L 433.828,55.1176 L 435.622,54.3954 L 437.279,53.5128 L 438.8,52.4696 L 440.183,51.266
 L 441.43,49.9018 L 442.539,48.3772 L 443.512,46.6921 L 444.348,44.8466 L 445.047,42.8405 L 472.905,45.2585
 L 470.898,49.8305 L 468.596,54.0368 L 465.999,57.8773 L 463.107,61.3521 L 459.92,64.4611 L 456.438,67.2043
 L 452.662,69.5818 L 448.591,71.5934 L 444.224,73.2394 L 439.563,74.5196 L 434.608,75.434 L 429.357,75.9826
 L 423.811,76.1655 z
M 445.835,2.28662 L 445.618,0.290222 L 445.342,-1.62468 L 445.008,-3.45811 L 444.616,-5.21008 L 444.165,-6.88055
 L 443.655,-8.46956 L 443.087,-9.97708 L 442.461,-11.4031 L 441.776,-12.7477 L 441.033,-14.0108 L 440.231,-15.1924
 L 439.37,-16.2925 L 438.457,-17.3111 L 437.497,-18.2483 L 436.489,-19.1039 L 435.434,-19.8781 L 434.332,-20.5708
 L 433.182,-21.182 L 431.985,-21.7117 L 430.741,-22.1599 L 429.45,-22.5266 L 428.111,-22.8118 L 426.725,-23.0155
 L 425.292,-23.1377 L 423.811,-23.1785 L 422.239,-23.1356 L 420.723,-23.0068 L 419.263,-22.7922 L 417.86,-22.4917
 L 416.514,-22.1054 L 415.224,-21.6333 L 413.991,-21.0753 L 412.814,-20.4314 L 411.694,-19.7017 L 410.631,-18.8862
 L 409.624,-17.9848 L 408.674,-16.9976 L 407.78,-15.9245 L 406.947,-14.7743 L 406.176,-13.5557 L 405.467,-12.2686
 L 404.822,-10.9132 L 404.24,-9.48932 L 403.72,-7.99704 L 403.263,-6.43634 L 402.869,-4.80724 L 402.537,-3.10971
 L 402.269,-1.34378 L 402.063,0.490555 L 401.921,2.39331 L 401.84,4.36449 L 445.993,4.36449 z
M -133.857,74.0625 L -174.54,-39.6825 L -143.318,-39.6825 L -123.449,23.9175 L -123.181,24.8196 L -122.862,25.9082
 L -122.492,27.1835 L -122.071,28.6454 L -121.599,30.2939 L -121.076,32.129 L -120.501,34.1507 L -119.876,36.359
 L -119.2,38.7539 L -118.473,41.3354 L -117.695,44.1035 L -116.866,47.0582 L -115.985,50.1995 L -115.811,49.4977
 L -115.61,48.7188 L -115.383,47.8628 L -115.13,46.9297 L -114.85,45.9194 L -114.545,44.8321 L -114.213,43.6676
 L -113.856,42.4261 L -113.472,41.1074 L -113.062,39.7116 L -112.626,38.2386 L -112.164,36.6886 L -111.675,35.0615
 L -111.069,33.0815 L -110.255,30.4733 L -109.231,27.2368 L -107.998,23.372 L -106.556,18.879 L -104.905,13.7577
 L -103.045,8.00819 L -100.976,1.63039 L -98.6981,-5.37566 L -96.2112,-13.01 L -93.5153,-21.2726 L -90.6103,-30.1634
 L -87.4963,-39.6825 L -56.5903,-39.6825 L -98.5353,74.0625 z
" stroke="black" fill="lightgray" stroke-width="0.5"/>
</svg>
