  0
SECTION
  2
BLOCKS
  0
ENDSEC
  0
SECTION
  2
ENTITIES
  0
LINE
  8
0
 10
500
 20
150
 11
-500
 21
150
  0
LINE
  8
0
 10
-500
 20
150
 11
-500
 21
-150
  0
LINE
  8
0
 10
-500
 20
-150
 11
500
 21
-150
  0
LINE
  8
0
 10
500
 20
-150
 11
500
 21
150
  0
LINE
  8
0
 10
-477.026
 20
-78.3725
 11
-446.435
 21
81.9435
  0
LINE
  8
0
 10
-446.435
 20
81.9435
 11
-421.415
 21
81.9435
  0
LINE
  8
0
 10
-421.415
 20
81.9435
 11
-451.481
 21
-78.3725
  0
LINE
  8
0
 10
-451.481
 20
-78.3725
 11
-477.026
 21
-78.3725
  0
LINE
  8
0
 10
-373.368
 20
-76.0737
 11
-376.265
 21
-75.7985
  0
LINE
  8
0
 10
-376.265
 20
-75.7985
 11
-379.054
 21
-75.3397
  0
LINE
  8
0
 10
-379.054
 20
-75.3397
 11
-381.736
 21
-74.6975
  0
LINE
  8
0
 10
-381.736
 20
-74.6975
 11
-384.312
 21
-73.8717
  0
LINE
  8
0
 10
-384.312
 20
-73.8717
 11
-386.78
 21
-72.8624
  0
LINE
  8
0
 10
-386.78
 20
-72.8624
 11
-389.141
 21
-71.6697
  0
LINE
  8
0
 10
-389.141
 20
-71.6697
 11
-391.396
 21
-70.2934
  0
LINE
  8
0
 10
-391.396
 20
-70.2934
 11
-393.543
 21
-68.7336
  0
LINE
  8
0
 10
-393.543
 20
-68.7336
 11
-395.583
 21
-66.9903
  0
LINE
  8
0
 10
-395.583
 20
-66.9903
 11
-397.517
 21
-65.0636
  0
LINE
  8
0
 10
-397.517
 20
-65.0636
 11
-399.343
 21
-62.9533
  0
LINE
  8
0
 10
-399.343
 20
-62.9533
 11
-401.062
 21
-60.6595
  0
LINE
  8
0
 10
-401.062
 20
-60.6595
 11
-402.664
 21
-58.2009
  0
LINE
  8
0
 10
-402.664
 20
-58.2009
 11
-404.137
 21
-55.596
  0
LINE
  8
0
 10
-404.137
 20
-55.596
 11
-405.483
 21
-52.845
  0
LINE
  8
0
 10
-405.483
 20
-52.845
 11
-406.7
 21
-49.9478
  0
LINE
  8
0
 10
-406.7
 20
-49.9478
 11
-407.789
 21
-46.9044
  0
LINE
  8
0
 10
-407.789
 20
-46.9044
 11
-408.75
 21
-43.7149
  0
LINE
  8
0
 10
-408.75
 20
-43.7149
 11
-409.583
 21
-40.3791
  0
LINE
  8
0
 10
-409.583
 20
-40.3791
 11
-410.288
 21
-36.8971
  0
LINE
  8
0
 10
-410.288
 20
-36.8971
 11
-410.864
 21
-33.269
  0
LINE
  8
0
 10
-410.864
 20
-33.269
 11
-411.313
 21
-29.4946
  0
LINE
  8
0
 10
-411.313
 20
-29.4946
 11
-411.633
 21
-25.5741
  0
LINE
  8
0
 10
-411.633
 20
-25.5741
 11
-411.825
 21
-21.5074
  0
LINE
  8
0
 10
-411.825
 20
-21.5074
 11
-411.889
 21
-17.2945
  0
LINE
  8
0
 10
-411.889
 20
-17.2945
 11
-411.822
 21
-13.0202
  0
LINE
  8
0
 10
-411.822
 20
-13.0202
 11
-411.619
 21
-8.89835
  0
LINE
  8
0
 10
-411.619
 20
-8.89835
 11
-411.282
 21
-4.92886
  0
LINE
  8
0
 10
-411.282
 20
-4.92886
 11
-410.809
 21
-1.11177
  0
LINE
  8
0
 10
-410.809
 20
-1.11177
 11
-410.202
 21
2.55292
  0
LINE
  8
0
 10
-410.202
 20
2.55292
 11
-409.46
 21
6.06523
  0
LINE
  8
0
 10
-409.46
 20
6.06523
 11
-408.582
 21
9.42516
  0
LINE
  8
0
 10
-408.582
 20
9.42516
 11
-407.57
 21
12.6327
  0
LINE
  8
0
 10
-407.57
 20
12.6327
 11
-406.422
 21
15.6878
  0
LINE
  8
0
 10
-406.422
 20
15.6878
 11
-405.14
 21
18.5906
  0
LINE
  8
0
 10
-405.14
 20
18.5906
 11
-403.723
 21
21.3409
  0
LINE
  8
0
 10
-403.723
 20
21.3409
 11
-402.17
 21
23.9389
  0
LINE
  8
0
 10
-402.17
 20
23.9389
 11
-400.483
 21
26.3845
  0
LINE
  8
0
 10
-400.483
 20
26.3845
 11
-398.672
 21
28.6628
  0
LINE
  8
0
 10
-398.672
 20
28.6628
 11
-396.748
 21
30.7587
  0
LINE
  8
0
 10
-396.748
 20
30.7587
 11
-394.712
 21
32.6725
  0
LINE
  8
0
 10
-394.712
 20
32.6725
 11
-392.563
 21
34.4039
  0
LINE
  8
0
 10
-392.563
 20
34.4039
 11
-390.302
 21
35.9532
  0
LINE
  8
0
 10
-390.302
 20
35.9532
 11
-387.928
 21
37.3201
  0
LINE
  8
0
 10
-387.928
 20
37.3201
 11
-385.441
 21
38.5048
  0
LINE
  8
0
 10
-385.441
 20
38.5048
 11
-382.842
 21
39.5072
  0
LINE
  8
0
 10
-382.842
 20
39.5072
 11
-380.13
 21
40.3274
  0
LINE
  8
0
 10
-380.13
 20
40.3274
 11
-377.306
 21
40.9653
  0
LINE
  8
0
 10
-377.306
 20
40.9653
 11
-374.369
 21
41.421
  0
LINE
  8
0
 10
-374.369
 20
41.421
 11
-371.319
 21
41.6944
  0
LINE
  8
0
 10
-371.319
 20
41.6944
 11
-368.157
 21
41.7855
  0
LINE
  8
0
 10
-368.157
 20
41.7855
 11
-366.317
 21
41.7556
  0
LINE
  8
0
 10
-366.317
 20
41.7556
 11
-364.516
 21
41.6661
  0
LINE
  8
0
 10
-364.516
 20
41.6661
 11
-362.754
 21
41.5168
  0
LINE
  8
0
 10
-362.754
 20
41.5168
 11
-361.031
 21
41.3078
  0
LINE
  8
0
 10
-361.031
 20
41.3078
 11
-359.348
 21
41.039
  0
LINE
  8
0
 10
-359.348
 20
41.039
 11
-357.703
 21
40.7106
  0
LINE
  8
0
 10
-357.703
 20
40.7106
 11
-356.098
 21
40.3224
  0
LINE
  8
0
 10
-356.098
 20
40.3224
 11
-354.532
 21
39.8746
  0
LINE
  8
0
 10
-354.532
 20
39.8746
 11
-353.006
 21
39.367
  0
LINE
  8
0
 10
-353.006
 20
39.367
 11
-351.518
 21
38.7997
  0
LINE
  8
0
 10
-351.518
 20
38.7997
 11
-350.07
 21
38.1727
  0
LINE
  8
0
 10
-350.07
 20
38.1727
 11
-348.66
 21
37.4859
  0
LINE
  8
0
 10
-348.66
 20
37.4859
 11
-347.29
 21
36.7395
  0
LINE
  8
0
 10
-347.29
 20
36.7395
 11
-345.964
 21
35.9339
  0
LINE
  8
0
 10
-345.964
 20
35.9339
 11
-344.685
 21
35.0699
  0
LINE
  8
0
 10
-344.685
 20
35.0699
 11
-343.454
 21
34.1474
  0
LINE
  8
0
 10
-343.454
 20
34.1474
 11
-342.272
 21
33.1665
  0
LINE
  8
0
 10
-342.272
 20
33.1665
 11
-341.137
 21
32.127
  0
LINE
  8
0
 10
-341.137
 20
32.127
 11
-340.05
 21
31.0291
  0
LINE
  8
0
 10
-340.05
 20
31.0291
 11
-339.011
 21
29.8727
  0
LINE
  8
0
 10
-339.011
 20
29.8727
 11
-338.019
 21
28.6579
  0
LINE
  8
0
 10
-338.019
 20
28.6579
 11
-337.076
 21
27.3846
  0
LINE
  8
0
 10
-337.076
 20
27.3846
 11
-336.181
 21
26.0527
  0
LINE
  8
0
 10
-336.181
 20
26.0527
 11
-335.333
 21
24.6625
  0
LINE
  8
0
 10
-335.333
 20
24.6625
 11
-334.534
 21
23.2137
  0
LINE
  8
0
 10
-334.534
 20
23.2137
 11
-333.782
 21
21.7065
  0
LINE
  8
0
 10
-333.782
 20
21.7065
 11
-333.571
 21
21.7065
  0
LINE
  8
0
 10
-333.571
 20
21.7065
 11
-333.782
 21
40.4185
  0
LINE
  8
0
 10
-333.782
 20
40.4185
 11
-333.782
 21
81.9435
  0
LINE
  8
0
 10
-333.782
 20
81.9435
 11
-304.241
 21
81.9435
  0
LINE
  8
0
 10
-304.241
 20
81.9435
 11
-304.241
 21
-49.2525
  0
LINE
  8
0
 10
-304.241
 20
-49.2525
 11
-304.236
 21
-50.8923
  0
LINE
  8
0
 10
-304.236
 20
-50.8923
 11
-304.221
 21
-52.5768
  0
LINE
  8
0
 10
-304.221
 20
-52.5768
 11
-304.196
 21
-54.3062
  0
LINE
  8
0
 10
-304.196
 20
-54.3062
 11
-304.162
 21
-56.0803
  0
LINE
  8
0
 10
-304.162
 20
-56.0803
 11
-304.117
 21
-57.8992
  0
LINE
  8
0
 10
-304.117
 20
-57.8992
 11
-304.062
 21
-59.7629
  0
LINE
  8
0
 10
-304.062
 20
-59.7629
 11
-303.997
 21
-61.6713
  0
LINE
  8
0
 10
-303.997
 20
-61.6713
 11
-303.923
 21
-63.6246
  0
LINE
  8
0
 10
-303.923
 20
-63.6246
 11
-303.838
 21
-65.6226
  0
LINE
  8
0
 10
-303.838
 20
-65.6226
 11
-303.744
 21
-67.6654
  0
LINE
  8
0
 10
-303.744
 20
-67.6654
 11
-303.639
 21
-69.753
  0
LINE
  8
0
 10
-303.639
 20
-69.753
 11
-303.525
 21
-71.8853
  0
LINE
  8
0
 10
-303.525
 20
-71.8853
 11
-303.4
 21
-74.0625
  0
LINE
  8
0
 10
-303.4
 20
-74.0625
 11
-331.994
 21
-74.0625
  0
LINE
  8
0
 10
-331.994
 20
-74.0625
 11
-332.06
 21
-73.7916
  0
LINE
  8
0
 10
-332.06
 20
-73.7916
 11
-332.127
 21
-73.4641
  0
LINE
  8
0
 10
-332.127
 20
-73.4641
 11
-332.197
 21
-73.0799
  0
LINE
  8
0
 10
-332.197
 20
-73.0799
 11
-332.268
 21
-72.6392
  0
LINE
  8
0
 10
-332.268
 20
-72.6392
 11
-332.341
 21
-72.1419
  0
LINE
  8
0
 10
-332.341
 20
-72.1419
 11
-332.416
 21
-71.5879
  0
LINE
  8
0
 10
-332.416
 20
-71.5879
 11
-332.493
 21
-70.9774
  0
LINE
  8
0
 10
-332.493
 20
-70.9774
 11
-332.572
 21
-70.3103
  0
LINE
  8
0
 10
-332.572
 20
-70.3103
 11
-332.652
 21
-69.5865
  0
LINE
  8
0
 10
-332.652
 20
-69.5865
 11
-332.735
 21
-68.8062
  0
LINE
  8
0
 10
-332.735
 20
-68.8062
 11
-332.819
 21
-67.9692
  0
LINE
  8
0
 10
-332.819
 20
-67.9692
 11
-332.905
 21
-67.0757
  0
LINE
  8
0
 10
-332.905
 20
-67.0757
 11
-332.993
 21
-66.1255
  0
LINE
  8
0
 10
-332.993
 20
-66.1255
 11
-333.079
 21
-65.1598
  0
LINE
  8
0
 10
-333.079
 20
-65.1598
 11
-333.157
 21
-64.2196
  0
LINE
  8
0
 10
-333.157
 20
-64.2196
 11
-333.229
 21
-63.3049
  0
LINE
  8
0
 10
-333.229
 20
-63.3049
 11
-333.294
 21
-62.4157
  0
LINE
  8
0
 10
-333.294
 20
-62.4157
 11
-333.352
 21
-61.552
  0
LINE
  8
0
 10
-333.352
 20
-61.552
 11
-333.404
 21
-60.7138
  0
LINE
  8
0
 10
-333.404
 20
-60.7138
 11
-333.448
 21
-59.9011
  0
LINE
  8
0
 10
-333.448
 20
-59.9011
 11
-333.486
 21
-59.1139
  0
LINE
  8
0
 10
-333.486
 20
-59.1139
 11
-333.516
 21
-58.3522
  0
LINE
  8
0
 10
-333.516
 20
-58.3522
 11
-333.54
 21
-57.616
  0
LINE
  8
0
 10
-333.54
 20
-57.616
 11
-333.558
 21
-56.9053
  0
LINE
  8
0
 10
-333.558
 20
-56.9053
 11
-333.568
 21
-56.2202
  0
LINE
  8
0
 10
-333.568
 20
-56.2202
 11
-333.571
 21
-55.5605
  0
LINE
  8
0
 10
-333.571
 20
-55.5605
 11
-333.992
 21
-55.5605
  0
LINE
  8
0
 10
-333.992
 20
-55.5605
 11
-335.566
 21
-58.6086
  0
LINE
  8
0
 10
-335.566
 20
-58.6086
 11
-337.344
 21
-61.4128
  0
LINE
  8
0
 10
-337.344
 20
-61.4128
 11
-339.325
 21
-63.9732
  0
LINE
  8
0
 10
-339.325
 20
-63.9732
 11
-341.511
 21
-66.2897
  0
LINE
  8
0
 10
-341.511
 20
-66.2897
 11
-343.901
 21
-68.3624
  0
LINE
  8
0
 10
-343.901
 20
-68.3624
 11
-346.495
 21
-70.1913
  0
LINE
  8
0
 10
-346.495
 20
-70.1913
 11
-349.293
 21
-71.7763
  0
LINE
  8
0
 10
-349.293
 20
-71.7763
 11
-352.295
 21
-73.1174
  0
LINE
  8
0
 10
-352.295
 20
-73.1174
 11
-355.501
 21
-74.2147
  0
LINE
  8
0
 10
-355.501
 20
-74.2147
 11
-358.911
 21
-75.0682
  0
LINE
  8
0
 10
-358.911
 20
-75.0682
 11
-362.525
 21
-75.6778
  0
LINE
  8
0
 10
-362.525
 20
-75.6778
 11
-366.343
 21
-76.0436
  0
LINE
  8
0
 10
-366.343
 20
-76.0436
 11
-370.365
 21
-76.1655
  0
LINE
  8
0
 10
-370.365
 20
-76.1655
 11
-373.368
 21
-76.0737
  0
LINE
  8
0
 10
-356.091
 20
-55.9198
 11
-354.389
 21
-55.7379
  0
LINE
  8
0
 10
-354.389
 20
-55.7379
 11
-352.749
 21
-55.4347
  0
LINE
  8
0
 10
-352.749
 20
-55.4347
 11
-351.172
 21
-55.0102
  0
LINE
  8
0
 10
-351.172
 20
-55.0102
 11
-349.657
 21
-54.4644
  0
LINE
  8
0
 10
-349.657
 20
-54.4644
 11
-348.204
 21
-53.7973
  0
LINE
  8
0
 10
-348.204
 20
-53.7973
 11
-346.813
 21
-53.0089
  0
LINE
  8
0
 10
-346.813
 20
-53.0089
 11
-345.484
 21
-52.0992
  0
LINE
  8
0
 10
-345.484
 20
-52.0992
 11
-344.218
 21
-51.0683
  0
LINE
  8
0
 10
-344.218
 20
-51.0683
 11
-343.014
 21
-49.916
  0
LINE
  8
0
 10
-343.014
 20
-49.916
 11
-341.872
 21
-48.6425
  0
LINE
  8
0
 10
-341.872
 20
-48.6425
 11
-340.792
 21
-47.2476
  0
LINE
  8
0
 10
-340.792
 20
-47.2476
 11
-339.774
 21
-45.7315
  0
LINE
  8
0
 10
-339.774
 20
-45.7315
 11
-338.826
 21
-44.1033
  0
LINE
  8
0
 10
-338.826
 20
-44.1033
 11
-337.953
 21
-42.3724
  0
LINE
  8
0
 10
-337.953
 20
-42.3724
 11
-337.156
 21
-40.5389
  0
LINE
  8
0
 10
-337.156
 20
-40.5389
 11
-336.435
 21
-38.6028
  0
LINE
  8
0
 10
-336.435
 20
-38.6028
 11
-335.79
 21
-36.564
  0
LINE
  8
0
 10
-335.79
 20
-36.564
 11
-335.221
 21
-34.4227
  0
LINE
  8
0
 10
-335.221
 20
-34.4227
 11
-334.727
 21
-32.1787
  0
LINE
  8
0
 10
-334.727
 20
-32.1787
 11
-334.31
 21
-29.832
  0
LINE
  8
0
 10
-334.31
 20
-29.832
 11
-333.968
 21
-27.3828
  0
LINE
  8
0
 10
-333.968
 20
-27.3828
 11
-333.703
 21
-24.8309
  0
LINE
  8
0
 10
-333.703
 20
-24.8309
 11
-333.513
 21
-22.1764
  0
LINE
  8
0
 10
-333.513
 20
-22.1764
 11
-333.399
 21
-19.4193
  0
LINE
  8
0
 10
-333.399
 20
-19.4193
 11
-333.361
 21
-16.5595
  0
LINE
  8
0
 10
-333.361
 20
-16.5595
 11
-333.398
 21
-13.7793
  0
LINE
  8
0
 10
-333.398
 20
-13.7793
 11
-333.507
 21
-11.0992
  0
LINE
  8
0
 10
-333.507
 20
-11.0992
 11
-333.689
 21
-8.51926
  0
LINE
  8
0
 10
-333.689
 20
-8.51926
 11
-333.943
 21
-6.03949
  0
LINE
  8
0
 10
-333.943
 20
-6.03949
 11
-334.271
 21
-3.65988
  0
LINE
  8
0
 10
-334.271
 20
-3.65988
 11
-334.671
 21
-1.38042
  0
LINE
  8
0
 10
-334.671
 20
-1.38042
 11
-335.144
 21
0.798874
  0
LINE
  8
0
 10
-335.144
 20
0.798874
 11
-335.69
 21
2.87804
  0
LINE
  8
0
 10
-335.69
 20
2.87804
 11
-336.309
 21
4.85703
  0
LINE
  8
0
 10
-336.309
 20
4.85703
 11
-337
 21
6.73587
  0
LINE
  8
0
 10
-337
 20
6.73587
 11
-337.764
 21
8.51457
  0
LINE
  8
0
 10
-337.764
 20
8.51457
 11
-338.601
 21
10.1931
  0
LINE
  8
0
 10
-338.601
 20
10.1931
 11
-339.511
 21
11.7715
  0
LINE
  8
0
 10
-339.511
 20
11.7715
 11
-340.492
 21
13.2412
  0
LINE
  8
0
 10
-340.492
 20
13.2412
 11
-341.542
 21
14.5933
  0
LINE
  8
0
 10
-341.542
 20
14.5933
 11
-342.66
 21
15.8278
  0
LINE
  8
0
 10
-342.66
 20
15.8278
 11
-343.848
 21
16.9447
  0
LINE
  8
0
 10
-343.848
 20
16.9447
 11
-345.105
 21
17.9441
  0
LINE
  8
0
 10
-345.105
 20
17.9441
 11
-346.431
 21
18.8259
  0
LINE
  8
0
 10
-346.431
 20
18.8259
 11
-347.826
 21
19.5902
  0
LINE
  8
0
 10
-347.826
 20
19.5902
 11
-349.29
 21
20.2368
  0
LINE
  8
0
 10
-349.29
 20
20.2368
 11
-350.823
 21
20.7659
  0
LINE
  8
0
 10
-350.823
 20
20.7659
 11
-352.425
 21
21.1774
  0
LINE
  8
0
 10
-352.425
 20
21.1774
 11
-354.096
 21
21.4713
  0
LINE
  8
0
 10
-354.096
 20
21.4713
 11
-355.836
 21
21.6477
  0
LINE
  8
0
 10
-355.836
 20
21.6477
 11
-357.645
 21
21.7065
  0
LINE
  8
0
 10
-357.645
 20
21.7065
 11
-359.437
 21
21.6496
  0
LINE
  8
0
 10
-359.437
 20
21.6496
 11
-361.156
 21
21.4788
  0
LINE
  8
0
 10
-361.156
 20
21.4788
 11
-362.803
 21
21.1942
  0
LINE
  8
0
 10
-362.803
 20
21.1942
 11
-364.378
 21
20.7958
  0
LINE
  8
0
 10
-364.378
 20
20.7958
 11
-365.881
 21
20.2836
  0
LINE
  8
0
 10
-365.881
 20
20.2836
 11
-367.312
 21
19.6575
  0
LINE
  8
0
 10
-367.312
 20
19.6575
 11
-368.67
 21
18.9176
  0
LINE
  8
0
 10
-368.67
 20
18.9176
 11
-369.957
 21
18.0638
  0
LINE
  8
0
 10
-369.957
 20
18.0638
 11
-371.171
 21
17.0962
  0
LINE
  8
0
 10
-371.171
 20
17.0962
 11
-372.313
 21
16.0148
  0
LINE
  8
0
 10
-372.313
 20
16.0148
 11
-373.383
 21
14.8195
  0
LINE
  8
0
 10
-373.383
 20
14.8195
 11
-374.381
 21
13.5104
  0
LINE
  8
0
 10
-374.381
 20
13.5104
 11
-375.306
 21
12.0875
  0
LINE
  8
0
 10
-375.306
 20
12.0875
 11
-376.162
 21
10.5476
  0
LINE
  8
0
 10
-376.162
 20
10.5476
 11
-376.948
 21
8.88771
  0
LINE
  8
0
 10
-376.948
 20
8.88771
 11
-377.667
 21
7.10774
  0
LINE
  8
0
 10
-377.667
 20
7.10774
 11
-378.317
 21
5.20773
  0
LINE
  8
0
 10
-378.317
 20
5.20773
 11
-378.899
 21
3.18767
  0
LINE
  8
0
 10
-378.899
 20
3.18767
 11
-379.412
 21
1.04756
  0
LINE
  8
0
 10
-379.412
 20
1.04756
 11
-379.857
 21
-1.21257
  0
LINE
  8
0
 10
-379.857
 20
-1.21257
 11
-380.233
 21
-3.59277
  0
LINE
  8
0
 10
-380.233
 20
-3.59277
 11
-380.541
 21
-6.09302
  0
LINE
  8
0
 10
-380.541
 20
-6.09302
 11
-380.78
 21
-8.71332
  0
LINE
  8
0
 10
-380.78
 20
-8.71332
 11
-380.951
 21
-11.4537
  0
LINE
  8
0
 10
-380.951
 20
-11.4537
 11
-381.054
 21
-14.3141
  0
LINE
  8
0
 10
-381.054
 20
-14.3141
 11
-381.088
 21
-17.2945
  0
LINE
  8
0
 10
-381.088
 20
-17.2945
 11
-380.951
 21
-23.0173
  0
LINE
  8
0
 10
-380.951
 20
-23.0173
 11
-380.538
 21
-28.2822
  0
LINE
  8
0
 10
-380.538
 20
-28.2822
 11
-379.851
 21
-33.0894
  0
LINE
  8
0
 10
-379.851
 20
-33.0894
 11
-378.889
 21
-37.4387
  0
LINE
  8
0
 10
-378.889
 20
-37.4387
 11
-377.651
 21
-41.3302
  0
LINE
  8
0
 10
-377.651
 20
-41.3302
 11
-376.139
 21
-44.7638
  0
LINE
  8
0
 10
-376.139
 20
-44.7638
 11
-374.352
 21
-47.7397
  0
LINE
  8
0
 10
-374.352
 20
-47.7397
 11
-372.29
 21
-50.2577
  0
LINE
  8
0
 10
-372.29
 20
-50.2577
 11
-369.953
 21
-52.3179
  0
LINE
  8
0
 10
-369.953
 20
-52.3179
 11
-367.341
 21
-53.9203
  0
LINE
  8
0
 10
-367.341
 20
-53.9203
 11
-364.454
 21
-55.0648
  0
LINE
  8
0
 10
-364.454
 20
-55.0648
 11
-361.292
 21
-55.7516
  0
LINE
  8
0
 10
-361.292
 20
-55.7516
 11
-357.855
 21
-55.9805
  0
LINE
  8
0
 10
-357.855
 20
-55.9805
 11
-356.091
 21
-55.9198
  0
LINE
  8
0
 10
-56.3574
 20
-78.3725
 11
-25.7664
 21
81.9435
  0
LINE
  8
0
 10
-25.7664
 20
81.9435
 11
-0.746445
 21
81.9435
  0
LINE
  8
0
 10
-0.746445
 20
81.9435
 11
-30.8124
 21
-78.3725
  0
LINE
  8
0
 10
-30.8124
 20
-78.3725
 11
-56.3574
 21
-78.3725
  0
LINE
  8
0
 10
77.1622
 20
-76.1344
 11
75.3601
 21
-76.0411
  0
LINE
  8
0
 10
75.3601
 20
-76.0411
 11
73.5967
 21
-75.8856
  0
LINE
  8
0
 10
73.5967
 20
-75.8856
 11
71.8718
 21
-75.6679
  0
LINE
  8
0
 10
71.8718
 20
-75.6679
 11
70.1854
 21
-75.388
  0
LINE
  8
0
 10
70.1854
 20
-75.388
 11
68.5377
 21
-75.0459
  0
LINE
  8
0
 10
68.5377
 20
-75.0459
 11
66.9284
 21
-74.6416
  0
LINE
  8
0
 10
66.9284
 20
-74.6416
 11
65.3578
 21
-74.175
  0
LINE
  8
0
 10
65.3578
 20
-74.175
 11
63.8256
 21
-73.6463
  0
LINE
  8
0
 10
63.8256
 20
-73.6463
 11
62.3321
 21
-73.0554
  0
LINE
  8
0
 10
62.3321
 20
-73.0554
 11
60.8771
 21
-72.4023
  0
LINE
  8
0
 10
60.8771
 20
-72.4023
 11
59.4606
 21
-71.687
  0
LINE
  8
0
 10
59.4606
 20
-71.687
 11
58.0827
 21
-70.9095
  0
LINE
  8
0
 10
58.0827
 20
-70.9095
 11
56.7485
 21
-70.0733
  0
LINE
  8
0
 10
56.7485
 20
-70.0733
 11
55.4628
 21
-69.1825
  0
LINE
  8
0
 10
55.4628
 20
-69.1825
 11
54.2256
 21
-68.2369
  0
LINE
  8
0
 10
54.2256
 20
-68.2369
 11
53.0369
 21
-67.2365
  0
LINE
  8
0
 10
53.0369
 20
-67.2365
 11
51.8968
 21
-66.1815
  0
LINE
  8
0
 10
51.8968
 20
-66.1815
 11
50.8051
 21
-65.0717
  0
LINE
  8
0
 10
50.8051
 20
-65.0717
 11
49.762
 21
-63.9071
  0
LINE
  8
0
 10
49.762
 20
-63.9071
 11
48.7673
 21
-62.6879
  0
LINE
  8
0
 10
48.7673
 20
-62.6879
 11
47.8212
 21
-61.4138
  0
LINE
  8
0
 10
47.8212
 20
-61.4138
 11
46.9236
 21
-60.0851
  0
LINE
  8
0
 10
46.9236
 20
-60.0851
 11
46.0744
 21
-58.7016
  0
LINE
  8
0
 10
46.0744
 20
-58.7016
 11
45.2738
 21
-57.2634
  0
LINE
  8
0
 10
45.2738
 20
-57.2634
 11
44.5217
 21
-55.7705
  0
LINE
  8
0
 10
44.5217
 20
-55.7705
 11
44.3117
 21
-55.7705
  0
LINE
  8
0
 10
44.3117
 20
-55.7705
 11
44.3089
 21
-56.3528
  0
LINE
  8
0
 10
44.3089
 20
-56.3528
 11
44.3005
 21
-56.9675
  0
LINE
  8
0
 10
44.3005
 20
-56.9675
 11
44.2865
 21
-57.6145
  0
LINE
  8
0
 10
44.2865
 20
-57.6145
 11
44.2669
 21
-58.2939
  0
LINE
  8
0
 10
44.2669
 20
-58.2939
 11
44.2417
 21
-59.0056
  0
LINE
  8
0
 10
44.2417
 20
-59.0056
 11
44.211
 21
-59.7496
  0
LINE
  8
0
 10
44.211
 20
-59.7496
 11
44.1746
 21
-60.526
  0
LINE
  8
0
 10
44.1746
 20
-60.526
 11
44.1326
 21
-61.3347
  0
LINE
  8
0
 10
44.1326
 20
-61.3347
 11
44.085
 21
-62.1758
  0
LINE
  8
0
 10
44.085
 20
-62.1758
 11
44.0318
 21
-63.0492
  0
LINE
  8
0
 10
44.0318
 20
-63.0492
 11
43.9731
 21
-63.9549
  0
LINE
  8
0
 10
43.9731
 20
-63.9549
 11
43.9087
 21
-64.8931
  0
LINE
  8
0
 10
43.9087
 20
-64.8931
 11
43.8387
 21
-65.8635
  0
LINE
  8
0
 10
43.8387
 20
-65.8635
 11
43.7656
 21
-66.8226
  0
LINE
  8
0
 10
43.7656
 20
-66.8226
 11
43.6919
 21
-67.7269
  0
LINE
  8
0
 10
43.6919
 20
-67.7269
 11
43.6176
 21
-68.5766
  0
LINE
  8
0
 10
43.6176
 20
-68.5766
 11
43.5426
 21
-69.3715
  0
LINE
  8
0
 10
43.5426
 20
-69.3715
 11
43.467
 21
-70.1116
  0
LINE
  8
0
 10
43.467
 20
-70.1116
 11
43.3908
 21
-70.7971
  0
LINE
  8
0
 10
43.3908
 20
-70.7971
 11
43.314
 21
-71.4277
  0
LINE
  8
0
 10
43.314
 20
-71.4277
 11
43.2365
 21
-72.0037
  0
LINE
  8
0
 10
43.2365
 20
-72.0037
 11
43.1584
 21
-72.5249
  0
LINE
  8
0
 10
43.1584
 20
-72.5249
 11
43.0797
 21
-72.9914
  0
LINE
  8
0
 10
43.0797
 20
-72.9914
 11
43.0003
 21
-73.4032
  0
LINE
  8
0
 10
43.0003
 20
-73.4032
 11
42.9203
 21
-73.7602
  0
LINE
  8
0
 10
42.9203
 20
-73.7602
 11
42.8397
 21
-74.0625
  0
LINE
  8
0
 10
42.8397
 20
-74.0625
 11
14.1407
 21
-74.0625
  0
LINE
  8
0
 10
14.1407
 20
-74.0625
 11
14.2651
 21
-72.5204
  0
LINE
  8
0
 10
14.2651
 20
-72.5204
 11
14.3796
 21
-70.9024
  0
LINE
  8
0
 10
14.3796
 20
-70.9024
 11
14.4841
 21
-69.2086
  0
LINE
  8
0
 10
14.4841
 20
-69.2086
 11
14.5786
 21
-67.4388
  0
LINE
  8
0
 10
14.5786
 20
-67.4388
 11
14.6632
 21
-65.5932
  0
LINE
  8
0
 10
14.6632
 20
-65.5932
 11
14.7379
 21
-63.6717
  0
LINE
  8
0
 10
14.7379
 20
-63.6717
 11
14.8026
 21
-61.6743
  0
LINE
  8
0
 10
14.8026
 20
-61.6743
 11
14.8573
 21
-59.601
  0
LINE
  8
0
 10
14.8573
 20
-59.601
 11
14.9021
 21
-57.4519
  0
LINE
  8
0
 10
14.9021
 20
-57.4519
 11
14.9369
 21
-55.2269
  0
LINE
  8
0
 10
14.9369
 20
-55.2269
 11
14.9618
 21
-52.926
  0
LINE
  8
0
 10
14.9618
 20
-52.926
 11
14.9767
 21
-50.5492
  0
LINE
  8
0
 10
14.9767
 20
-50.5492
 11
14.9817
 21
-48.0965
  0
LINE
  8
0
 10
14.9817
 20
-48.0965
 11
14.9817
 21
81.9435
  0
LINE
  8
0
 10
14.9817
 20
81.9435
 11
44.5217
 21
81.9435
  0
LINE
  8
0
 10
44.5217
 20
81.9435
 11
44.5217
 21
38.4215
  0
LINE
  8
0
 10
44.5217
 20
38.4215
 11
44.1017
 21
19.9195
  0
LINE
  8
0
 10
44.1017
 20
19.9195
 11
44.5217
 21
19.9195
  0
LINE
  8
0
 10
44.5217
 20
19.9195
 11
46.1552
 21
23.1541
  0
LINE
  8
0
 10
46.1552
 20
23.1541
 11
47.9828
 21
26.13
  0
LINE
  8
0
 10
47.9828
 20
26.13
 11
50.0044
 21
28.847
  0
LINE
  8
0
 10
50.0044
 20
28.847
 11
52.2201
 21
31.3053
  0
LINE
  8
0
 10
52.2201
 20
31.3053
 11
54.6299
 21
33.5049
  0
LINE
  8
0
 10
54.6299
 20
33.5049
 11
57.2338
 21
35.4456
  0
LINE
  8
0
 10
57.2338
 20
35.4456
 11
60.0317
 21
37.1276
  0
LINE
  8
0
 10
60.0317
 20
37.1276
 11
63.0237
 21
38.5509
  0
LINE
  8
0
 10
63.0237
 20
38.5509
 11
66.2097
 21
39.7153
  0
LINE
  8
0
 10
66.2097
 20
39.7153
 11
69.5899
 21
40.621
  0
LINE
  8
0
 10
69.5899
 20
40.621
 11
73.1641
 21
41.268
  0
LINE
  8
0
 10
73.1641
 20
41.268
 11
76.9324
 21
41.6561
  0
LINE
  8
0
 10
76.9324
 20
41.6561
 11
80.8947
 21
41.7855
  0
LINE
  8
0
 10
80.8947
 20
41.7855
 11
83.9443
 21
41.695
  0
LINE
  8
0
 10
83.9443
 20
41.695
 11
86.8825
 21
41.4235
  0
LINE
  8
0
 10
86.8825
 20
41.4235
 11
89.7094
 21
40.9709
  0
LINE
  8
0
 10
89.7094
 20
40.9709
 11
92.4249
 21
40.3374
  0
LINE
  8
0
 10
92.4249
 20
40.3374
 11
95.029
 21
39.5228
  0
LINE
  8
0
 10
95.029
 20
39.5228
 11
97.5218
 21
38.5272
  0
LINE
  8
0
 10
97.5218
 20
38.5272
 11
99.9033
 21
37.3506
  0
LINE
  8
0
 10
99.9033
 20
37.3506
 11
102.173
 21
35.9929
  0
LINE
  8
0
 10
102.173
 20
35.9929
 11
104.332
 21
34.4543
  0
LINE
  8
0
 10
104.332
 20
34.4543
 11
106.38
 21
32.7346
  0
LINE
  8
0
 10
106.38
 20
32.7346
 11
108.316
 21
30.8339
  0
LINE
  8
0
 10
108.316
 20
30.8339
 11
110.14
 21
28.7522
  0
LINE
  8
0
 10
110.14
 20
28.7522
 11
111.854
 21
26.4895
  0
LINE
  8
0
 10
111.854
 20
26.4895
 11
113.448
 21
24.0613
  0
LINE
  8
0
 10
113.448
 20
24.0613
 11
114.914
 21
21.4832
  0
LINE
  8
0
 10
114.914
 20
21.4832
 11
116.253
 21
18.7552
  0
LINE
  8
0
 10
116.253
 20
18.7552
 11
117.465
 21
15.8773
  0
LINE
  8
0
 10
117.465
 20
15.8773
 11
118.549
 21
12.8495
  0
LINE
  8
0
 10
118.549
 20
12.8495
 11
119.505
 21
9.67181
  0
LINE
  8
0
 10
119.505
 20
9.67181
 11
120.334
 21
6.34419
  0
LINE
  8
0
 10
120.334
 20
6.34419
 11
121.036
 21
2.86667
  0
LINE
  8
0
 10
121.036
 20
2.86667
 11
121.61
 21
-0.760742
  0
LINE
  8
0
 10
121.61
 20
-0.760742
 11
122.056
 21
-4.53807
  0
LINE
  8
0
 10
122.056
 20
-4.53807
 11
122.375
 21
-8.4653
  0
LINE
  8
0
 10
122.375
 20
-8.4653
 11
122.566
 21
-12.5424
  0
LINE
  8
0
 10
122.566
 20
-12.5424
 11
122.63
 21
-16.7695
  0
LINE
  8
0
 10
122.63
 20
-16.7695
 11
122.563
 21
-21.0295
  0
LINE
  8
0
 10
122.563
 20
-21.0295
 11
122.362
 21
-25.1408
  0
LINE
  8
0
 10
122.362
 20
-25.1408
 11
122.028
 21
-29.1035
  0
LINE
  8
0
 10
122.028
 20
-29.1035
 11
121.56
 21
-32.9175
  0
LINE
  8
0
 10
121.56
 20
-32.9175
 11
120.958
 21
-36.5829
  0
LINE
  8
0
 10
120.958
 20
-36.5829
 11
120.222
 21
-40.0996
  0
LINE
  8
0
 10
120.222
 20
-40.0996
 11
119.353
 21
-43.4677
  0
LINE
  8
0
 10
119.353
 20
-43.4677
 11
118.35
 21
-46.6871
  0
LINE
  8
0
 10
118.35
 20
-46.6871
 11
117.213
 21
-49.7579
  0
LINE
  8
0
 10
117.213
 20
-49.7579
 11
115.943
 21
-52.68
  0
LINE
  8
0
 10
115.943
 20
-52.68
 11
114.538
 21
-55.4535
  0
LINE
  8
0
 10
114.538
 20
-55.4535
 11
113
 21
-58.0783
  0
LINE
  8
0
 10
113
 20
-58.0783
 11
111.329
 21
-60.5545
  0
LINE
  8
0
 10
111.329
 20
-60.5545
 11
109.533
 21
-62.8638
  0
LINE
  8
0
 10
109.533
 20
-62.8638
 11
107.621
 21
-64.9884
  0
LINE
  8
0
 10
107.621
 20
-64.9884
 11
105.595
 21
-66.9282
  0
LINE
  8
0
 10
105.595
 20
-66.9282
 11
103.454
 21
-68.6833
  0
LINE
  8
0
 10
103.454
 20
-68.6833
 11
101.197
 21
-70.2536
  0
LINE
  8
0
 10
101.197
 20
-70.2536
 11
98.8257
 21
-71.6392
  0
LINE
  8
0
 10
98.8257
 20
-71.6392
 11
96.339
 21
-72.8401
  0
LINE
  8
0
 10
96.339
 20
-72.8401
 11
93.7373
 21
-73.8562
  0
LINE
  8
0
 10
93.7373
 20
-73.8562
 11
91.0206
 21
-74.6875
  0
LINE
  8
0
 10
91.0206
 20
-74.6875
 11
88.1887
 21
-75.3341
  0
LINE
  8
0
 10
88.1887
 20
-75.3341
 11
85.2418
 21
-75.796
  0
LINE
  8
0
 10
85.2418
 20
-75.796
 11
82.1798
 21
-76.0731
  0
LINE
  8
0
 10
82.1798
 20
-76.0731
 11
79.0027
 21
-76.1655
  0
LINE
  8
0
 10
79.0027
 20
-76.1655
 11
77.1622
 21
-76.1344
  0
LINE
  8
0
 10
71.8526
 20
-55.7485
 11
75.0431
 21
-55.0524
  0
LINE
  8
0
 10
75.0431
 20
-55.0524
 11
77.9561
 21
-53.8923
  0
LINE
  8
0
 10
77.9561
 20
-53.8923
 11
80.5917
 21
-52.2682
  0
LINE
  8
0
 10
80.5917
 20
-52.2682
 11
82.9499
 21
-50.1801
  0
LINE
  8
0
 10
82.9499
 20
-50.1801
 11
85.0306
 21
-47.6279
  0
LINE
  8
0
 10
85.0306
 20
-47.6279
 11
86.834
 21
-44.6116
  0
LINE
  8
0
 10
86.834
 20
-44.6116
 11
88.3598
 21
-41.1314
  0
LINE
  8
0
 10
88.3598
 20
-41.1314
 11
89.6083
 21
-37.1871
  0
LINE
  8
0
 10
89.6083
 20
-37.1871
 11
90.5793
 21
-32.7787
  0
LINE
  8
0
 10
90.5793
 20
-32.7787
 11
91.2729
 21
-27.9063
  0
LINE
  8
0
 10
91.2729
 20
-27.9063
 11
91.689
 21
-22.5699
  0
LINE
  8
0
 10
91.689
 20
-22.5699
 11
91.8277
 21
-16.7695
  0
LINE
  8
0
 10
91.8277
 20
-16.7695
 11
91.7941
 21
-13.8527
  0
LINE
  8
0
 10
91.7941
 20
-13.8527
 11
91.6934
 21
-11.0542
  0
LINE
  8
0
 10
91.6934
 20
-11.0542
 11
91.5254
 21
-8.37381
  0
LINE
  8
0
 10
91.5254
 20
-8.37381
 11
91.2903
 21
-5.81161
  0
LINE
  8
0
 10
91.2903
 20
-5.81161
 11
90.9879
 21
-3.36763
  0
LINE
  8
0
 10
90.9879
 20
-3.36763
 11
90.6184
 21
-1.04182
  0
LINE
  8
0
 10
90.6184
 20
-1.04182
 11
90.1817
 21
1.16577
  0
LINE
  8
0
 10
90.1817
 20
1.16577
 11
89.6779
 21
3.2552
  0
LINE
  8
0
 10
89.6779
 20
3.2552
 11
89.1068
 21
5.22644
  0
LINE
  8
0
 10
89.1068
 20
5.22644
 11
88.4686
 21
7.07948
  0
LINE
  8
0
 10
88.4686
 20
7.07948
 11
87.7631
 21
8.81435
  0
LINE
  8
0
 10
87.7631
 20
8.81435
 11
86.9905
 21
10.431
  0
LINE
  8
0
 10
86.9905
 20
10.431
 11
86.1507
 21
11.9295
  0
LINE
  8
0
 10
86.1507
 20
11.9295
 11
85.2408
 21
13.3135
  0
LINE
  8
0
 10
85.2408
 20
13.3135
 11
84.2574
 21
14.5868
  0
LINE
  8
0
 10
84.2574
 20
14.5868
 11
83.2007
 21
15.7494
  0
LINE
  8
0
 10
83.2007
 20
15.7494
 11
82.0705
 21
16.8013
  0
LINE
  8
0
 10
82.0705
 20
16.8013
 11
80.867
 21
17.7424
  0
LINE
  8
0
 10
80.867
 20
17.7424
 11
79.59
 21
18.5728
  0
LINE
  8
0
 10
79.59
 20
18.5728
 11
78.2396
 21
19.2925
  0
LINE
  8
0
 10
78.2396
 20
19.2925
 11
76.8158
 21
19.9015
  0
LINE
  8
0
 10
76.8158
 20
19.9015
 11
75.3186
 21
20.3997
  0
LINE
  8
0
 10
75.3186
 20
20.3997
 11
73.748
 21
20.7872
  0
LINE
  8
0
 10
73.748
 20
20.7872
 11
72.104
 21
21.064
  0
LINE
  8
0
 10
72.104
 20
21.064
 11
70.3866
 21
21.2301
  0
LINE
  8
0
 10
70.3866
 20
21.2301
 11
68.5957
 21
21.2855
  0
LINE
  8
0
 10
68.5957
 20
21.2855
 11
66.7858
 21
21.2261
  0
LINE
  8
0
 10
66.7858
 20
21.2261
 11
65.0437
 21
21.0479
  0
LINE
  8
0
 10
65.0437
 20
21.0479
 11
63.3693
 21
20.7509
  0
LINE
  8
0
 10
63.3693
 20
20.7509
 11
61.7628
 21
20.3351
  0
LINE
  8
0
 10
61.7628
 20
20.3351
 11
60.2241
 21
19.8004
  0
LINE
  8
0
 10
60.2241
 20
19.8004
 11
58.7532
 21
19.147
  0
LINE
  8
0
 10
58.7532
 20
19.147
 11
57.3502
 21
18.3748
  0
LINE
  8
0
 10
57.3502
 20
18.3748
 11
56.0149
 21
17.4837
  0
LINE
  8
0
 10
56.0149
 20
17.4837
 11
54.7474
 21
16.4739
  0
LINE
  8
0
 10
54.7474
 20
16.4739
 11
53.5478
 21
15.3453
  0
LINE
  8
0
 10
53.5478
 20
15.3453
 11
52.416
 21
14.0978
  0
LINE
  8
0
 10
52.416
 20
14.0978
 11
51.3519
 21
12.7316
  0
LINE
  8
0
 10
51.3519
 20
12.7316
 11
50.3557
 21
11.2465
  0
LINE
  8
0
 10
50.3557
 20
11.2465
 11
49.4306
 21
9.64946
  0
LINE
  8
0
 10
49.4306
 20
9.64946
 11
48.5794
 21
7.9473
  0
LINE
  8
0
 10
48.5794
 20
7.9473
 11
47.8023
 21
6.14
  0
LINE
  8
0
 10
47.8023
 20
6.14
 11
47.0992
 21
4.22755
  0
LINE
  8
0
 10
47.0992
 20
4.22755
 11
46.4701
 21
2.20998
  0
LINE
  8
0
 10
46.4701
 20
2.20998
 11
45.915
 21
0.0872803
  0
LINE
  8
0
 10
45.915
 20
0.0872803
 11
45.4339
 21
-2.14056
  0
LINE
  8
0
 10
45.4339
 20
-2.14056
 11
45.0269
 21
-4.47354
  0
LINE
  8
0
 10
45.0269
 20
-4.47354
 11
44.6938
 21
-6.91165
  0
LINE
  8
0
 10
44.6938
 20
-6.91165
 11
44.4348
 21
-9.45491
  0
LINE
  8
0
 10
44.4348
 20
-9.45491
 11
44.2497
 21
-12.1033
  0
LINE
  8
0
 10
44.2497
 20
-12.1033
 11
44.1387
 21
-14.8568
  0
LINE
  8
0
 10
44.1387
 20
-14.8568
 11
44.1017
 21
-17.7155
  0
LINE
  8
0
 10
44.1017
 20
-17.7155
 11
44.1381
 21
-20.4499
  0
LINE
  8
0
 10
44.1381
 20
-20.4499
 11
44.2473
 21
-23.0898
  0
LINE
  8
0
 10
44.2473
 20
-23.0898
 11
44.4292
 21
-25.6351
  0
LINE
  8
0
 10
44.4292
 20
-25.6351
 11
44.6839
 21
-28.0859
  0
LINE
  8
0
 10
44.6839
 20
-28.0859
 11
45.0113
 21
-30.4422
  0
LINE
  8
0
 10
45.0113
 20
-30.4422
 11
45.4116
 21
-32.7038
  0
LINE
  8
0
 10
45.4116
 20
-32.7038
 11
45.8846
 21
-34.871
  0
LINE
  8
0
 10
45.8846
 20
-34.871
 11
46.4303
 21
-36.9436
  0
LINE
  8
0
 10
46.4303
 20
-36.9436
 11
47.0489
 21
-38.9217
  0
LINE
  8
0
 10
47.0489
 20
-38.9217
 11
47.7402
 21
-40.8052
  0
LINE
  8
0
 10
47.7402
 20
-40.8052
 11
48.5043
 21
-42.5942
  0
LINE
  8
0
 10
48.5043
 20
-42.5942
 11
49.3411
 21
-44.2886
  0
LINE
  8
0
 10
49.3411
 20
-44.2886
 11
50.2507
 21
-45.8885
  0
LINE
  8
0
 10
50.2507
 20
-45.8885
 11
51.2314
 21
-47.3814
  0
LINE
  8
0
 10
51.2314
 20
-47.3814
 11
52.2811
 21
-48.7549
  0
LINE
  8
0
 10
52.2811
 20
-48.7549
 11
53.3999
 21
-50.0089
  0
LINE
  8
0
 10
53.3999
 20
-50.0089
 11
54.5877
 21
-51.1435
  0
LINE
  8
0
 10
54.5877
 20
-51.1435
 11
55.8445
 21
-52.1587
  0
LINE
  8
0
 10
55.8445
 20
-52.1587
 11
57.1704
 21
-53.0544
  0
LINE
  8
0
 10
57.1704
 20
-53.0544
 11
58.5653
 21
-53.8307
  0
LINE
  8
0
 10
58.5653
 20
-53.8307
 11
60.0293
 21
-54.4876
  0
LINE
  8
0
 10
60.0293
 20
-54.4876
 11
61.5623
 21
-55.025
  0
LINE
  8
0
 10
61.5623
 20
-55.025
 11
63.1643
 21
-55.4431
  0
LINE
  8
0
 10
63.1643
 20
-55.4431
 11
64.8354
 21
-55.7416
  0
LINE
  8
0
 10
64.8354
 20
-55.7416
 11
66.5755
 21
-55.9208
  0
LINE
  8
0
 10
66.5755
 20
-55.9208
 11
68.3847
 21
-55.9805
  0
LINE
  8
0
 10
68.3847
 20
-55.9805
 11
71.8526
 21
-55.7485
  0
LINE
  8
0
 10
301.772
 20
-76.1216
 11
298.361
 21
-75.9901
  0
LINE
  8
0
 10
298.361
 20
-75.9901
 11
295.079
 21
-75.7708
  0
LINE
  8
0
 10
295.079
 20
-75.7708
 11
291.928
 21
-75.4639
  0
LINE
  8
0
 10
291.928
 20
-75.4639
 11
288.906
 21
-75.0692
  0
LINE
  8
0
 10
288.906
 20
-75.0692
 11
286.015
 21
-74.5868
  0
LINE
  8
0
 10
286.015
 20
-74.5868
 11
283.253
 21
-74.0167
  0
LINE
  8
0
 10
283.253
 20
-74.0167
 11
280.622
 21
-73.359
  0
LINE
  8
0
 10
280.622
 20
-73.359
 11
278.12
 21
-72.6135
  0
LINE
  8
0
 10
278.12
 20
-72.6135
 11
275.748
 21
-71.7803
  0
LINE
  8
0
 10
275.748
 20
-71.7803
 11
273.507
 21
-70.8594
  0
LINE
  8
0
 10
273.507
 20
-70.8594
 11
271.395
 21
-69.8508
  0
LINE
  8
0
 10
271.395
 20
-69.8508
 11
269.414
 21
-68.7545
  0
LINE
  8
0
 10
269.414
 20
-68.7545
 11
267.547
 21
-67.5654
  0
LINE
  8
0
 10
267.547
 20
-67.5654
 11
265.778
 21
-66.2786
  0
LINE
  8
0
 10
265.778
 20
-66.2786
 11
264.109
 21
-64.8941
  0
LINE
  8
0
 10
264.109
 20
-64.8941
 11
262.539
 21
-63.412
  0
LINE
  8
0
 10
262.539
 20
-63.412
 11
261.068
 21
-61.8322
  0
LINE
  8
0
 10
261.068
 20
-61.8322
 11
259.695
 21
-60.1548
  0
LINE
  8
0
 10
259.695
 20
-60.1548
 11
258.421
 21
-58.3797
  0
LINE
  8
0
 10
258.421
 20
-58.3797
 11
257.247
 21
-56.507
  0
LINE
  8
0
 10
257.247
 20
-56.507
 11
256.171
 21
-54.5366
  0
LINE
  8
0
 10
256.171
 20
-54.5366
 11
255.194
 21
-52.4686
  0
LINE
  8
0
 10
255.194
 20
-52.4686
 11
254.316
 21
-50.3029
  0
LINE
  8
0
 10
254.316
 20
-50.3029
 11
253.537
 21
-48.0395
  0
LINE
  8
0
 10
253.537
 20
-48.0395
 11
252.857
 21
-45.6785
  0
LINE
  8
0
 10
252.857
 20
-45.6785
 11
278.823
 21
-41.7895
  0
LINE
  8
0
 10
278.823
 20
-41.7895
 11
279.181
 21
-43.0067
  0
LINE
  8
0
 10
279.181
 20
-43.0067
 11
279.578
 21
-44.168
  0
LINE
  8
0
 10
279.578
 20
-44.168
 11
280.012
 21
-45.2733
  0
LINE
  8
0
 10
280.012
 20
-45.2733
 11
280.485
 21
-46.3226
  0
LINE
  8
0
 10
280.485
 20
-46.3226
 11
280.995
 21
-47.3159
  0
LINE
  8
0
 10
280.995
 20
-47.3159
 11
281.543
 21
-48.2533
  0
LINE
  8
0
 10
281.543
 20
-48.2533
 11
282.13
 21
-49.1347
  0
LINE
  8
0
 10
282.13
 20
-49.1347
 11
282.754
 21
-49.9601
  0
LINE
  8
0
 10
282.754
 20
-49.9601
 11
283.416
 21
-50.7295
  0
LINE
  8
0
 10
283.416
 20
-50.7295
 11
284.116
 21
-51.443
  0
LINE
  8
0
 10
284.116
 20
-51.443
 11
284.854
 21
-52.1005
  0
LINE
  8
0
 10
284.854
 20
-52.1005
 11
285.63
 21
-52.702
  0
LINE
  8
0
 10
285.63
 20
-52.702
 11
286.444
 21
-53.2475
  0
LINE
  8
0
 10
286.444
 20
-53.2475
 11
287.324
 21
-53.7451
  0
LINE
  8
0
 10
287.324
 20
-53.7451
 11
288.3
 21
-54.2029
  0
LINE
  8
0
 10
288.3
 20
-54.2029
 11
289.371
 21
-54.621
  0
LINE
  8
0
 10
289.371
 20
-54.621
 11
290.537
 21
-54.9992
  0
LINE
  8
0
 10
290.537
 20
-54.9992
 11
291.798
 21
-55.3376
  0
LINE
  8
0
 10
291.798
 20
-55.3376
 11
293.154
 21
-55.6361
  0
LINE
  8
0
 10
293.154
 20
-55.6361
 11
294.606
 21
-55.8949
  0
LINE
  8
0
 10
294.606
 20
-55.8949
 11
296.152
 21
-56.1139
  0
LINE
  8
0
 10
296.152
 20
-56.1139
 11
297.794
 21
-56.293
  0
LINE
  8
0
 10
297.794
 20
-56.293
 11
299.531
 21
-56.4323
  0
LINE
  8
0
 10
299.531
 20
-56.4323
 11
301.364
 21
-56.5319
  0
LINE
  8
0
 10
301.364
 20
-56.5319
 11
303.291
 21
-56.5916
  0
LINE
  8
0
 10
303.291
 20
-56.5916
 11
305.314
 21
-56.6115
  0
LINE
  8
0
 10
305.314
 20
-56.6115
 11
307.182
 21
-56.5928
  0
LINE
  8
0
 10
307.182
 20
-56.5928
 11
308.971
 21
-56.5369
  0
LINE
  8
0
 10
308.971
 20
-56.5369
 11
310.681
 21
-56.4436
  0
LINE
  8
0
 10
310.681
 20
-56.4436
 11
312.31
 21
-56.313
  0
LINE
  8
0
 10
312.31
 20
-56.313
 11
313.861
 21
-56.1451
  0
LINE
  8
0
 10
313.861
 20
-56.1451
 11
315.331
 21
-55.9398
  0
LINE
  8
0
 10
315.331
 20
-55.9398
 11
316.722
 21
-55.6973
  0
LINE
  8
0
 10
316.722
 20
-55.6973
 11
318.033
 21
-55.4174
  0
LINE
  8
0
 10
318.033
 20
-55.4174
 11
319.265
 21
-55.1003
  0
LINE
  8
0
 10
319.265
 20
-55.1003
 11
320.417
 21
-54.7458
  0
LINE
  8
0
 10
320.417
 20
-54.7458
 11
321.49
 21
-54.354
  0
LINE
  8
0
 10
321.49
 20
-54.354
 11
322.482
 21
-53.9249
  0
LINE
  8
0
 10
322.482
 20
-53.9249
 11
323.396
 21
-53.4585
  0
LINE
  8
0
 10
323.396
 20
-53.4585
 11
324.235
 21
-52.9521
  0
LINE
  8
0
 10
324.235
 20
-52.9521
 11
325.008
 21
-52.4034
  0
LINE
  8
0
 10
325.008
 20
-52.4034
 11
325.713
 21
-51.8125
  0
LINE
  8
0
 10
325.713
 20
-51.8125
 11
326.352
 21
-51.1792
  0
LINE
  8
0
 10
326.352
 20
-51.1792
 11
326.923
 21
-50.5036
  0
LINE
  8
0
 10
326.923
 20
-50.5036
 11
327.427
 21
-49.7858
  0
LINE
  8
0
 10
327.427
 20
-49.7858
 11
327.863
 21
-49.0256
  0
LINE
  8
0
 10
327.863
 20
-49.0256
 11
328.233
 21
-48.2232
  0
LINE
  8
0
 10
328.233
 20
-48.2232
 11
328.535
 21
-47.3784
  0
LINE
  8
0
 10
328.535
 20
-47.3784
 11
328.77
 21
-46.4914
  0
LINE
  8
0
 10
328.77
 20
-46.4914
 11
328.938
 21
-45.5621
  0
LINE
  8
0
 10
328.938
 20
-45.5621
 11
329.039
 21
-44.5904
  0
LINE
  8
0
 10
329.039
 20
-44.5904
 11
329.073
 21
-43.5765
  0
LINE
  8
0
 10
329.073
 20
-43.5765
 11
329.046
 21
-42.7488
  0
LINE
  8
0
 10
329.046
 20
-42.7488
 11
328.964
 21
-41.9479
  0
LINE
  8
0
 10
328.964
 20
-41.9479
 11
328.829
 21
-41.1737
  0
LINE
  8
0
 10
328.829
 20
-41.1737
 11
328.64
 21
-40.4262
  0
LINE
  8
0
 10
328.64
 20
-40.4262
 11
328.396
 21
-39.7056
  0
LINE
  8
0
 10
328.396
 20
-39.7056
 11
328.098
 21
-39.0117
  0
LINE
  8
0
 10
328.098
 20
-39.0117
 11
327.747
 21
-38.3445
  0
LINE
  8
0
 10
327.747
 20
-38.3445
 11
327.341
 21
-37.7041
  0
LINE
  8
0
 10
327.341
 20
-37.7041
 11
326.881
 21
-37.0905
  0
LINE
  8
0
 10
326.881
 20
-37.0905
 11
326.367
 21
-36.5036
  0
LINE
  8
0
 10
326.367
 20
-36.5036
 11
325.798
 21
-35.9435
  0
LINE
  8
0
 10
325.798
 20
-35.9435
 11
325.176
 21
-35.4101
  0
LINE
  8
0
 10
325.176
 20
-35.4101
 11
324.5
 21
-34.9035
  0
LINE
  8
0
 10
324.5
 20
-34.9035
 11
323.758
 21
-34.4162
  0
LINE
  8
0
 10
323.758
 20
-34.4162
 11
322.942
 21
-33.9407
  0
LINE
  8
0
 10
322.942
 20
-33.9407
 11
322.05
 21
-33.4769
  0
LINE
  8
0
 10
322.05
 20
-33.4769
 11
321.083
 21
-33.0251
  0
LINE
  8
0
 10
321.083
 20
-33.0251
 11
320.041
 21
-32.585
  0
LINE
  8
0
 10
320.041
 20
-32.585
 11
318.924
 21
-32.1567
  0
LINE
  8
0
 10
318.924
 20
-32.1567
 11
317.731
 21
-31.7402
  0
LINE
  8
0
 10
317.731
 20
-31.7402
 11
316.463
 21
-31.3356
  0
LINE
  8
0
 10
316.463
 20
-31.3356
 11
315.119
 21
-30.9427
  0
LINE
  8
0
 10
315.119
 20
-30.9427
 11
313.701
 21
-30.5617
  0
LINE
  8
0
 10
313.701
 20
-30.5617
 11
312.207
 21
-30.1925
  0
LINE
  8
0
 10
312.207
 20
-30.1925
 11
310.638
 21
-29.8351
  0
LINE
  8
0
 10
310.638
 20
-29.8351
 11
308.994
 21
-29.4895
  0
LINE
  8
0
 10
308.994
 20
-29.4895
 11
305.241
 21
-28.7334
  0
LINE
  8
0
 10
305.241
 20
-28.7334
 11
301.681
 21
-27.9854
  0
LINE
  8
0
 10
301.681
 20
-27.9854
 11
298.314
 21
-27.2455
  0
LINE
  8
0
 10
298.314
 20
-27.2455
 11
295.139
 21
-26.5136
  0
LINE
  8
0
 10
295.139
 20
-26.5136
 11
292.158
 21
-25.7899
  0
LINE
  8
0
 10
292.158
 20
-25.7899
 11
289.369
 21
-25.0743
  0
LINE
  8
0
 10
289.369
 20
-25.0743
 11
286.773
 21
-24.3667
  0
LINE
  8
0
 10
286.773
 20
-24.3667
 11
284.37
 21
-23.6673
  0
LINE
  8
0
 10
284.37
 20
-23.6673
 11
282.16
 21
-22.9759
  0
LINE
  8
0
 10
282.16
 20
-22.9759
 11
280.143
 21
-22.2927
  0
LINE
  8
0
 10
280.143
 20
-22.2927
 11
278.318
 21
-21.6175
  0
LINE
  8
0
 10
278.318
 20
-21.6175
 11
276.686
 21
-20.9505
  0
LINE
  8
0
 10
276.686
 20
-20.9505
 11
275.248
 21
-20.2915
  0
LINE
  8
0
 10
275.248
 20
-20.2915
 11
273.93
 21
-19.6215
  0
LINE
  8
0
 10
273.93
 20
-19.6215
 11
272.661
 21
-18.9216
  0
LINE
  8
0
 10
272.661
 20
-18.9216
 11
271.442
 21
-18.192
  0
LINE
  8
0
 10
271.442
 20
-18.192
 11
270.271
 21
-17.4324
  0
LINE
  8
0
 10
270.271
 20
-17.4324
 11
269.15
 21
-16.643
  0
LINE
  8
0
 10
269.15
 20
-16.643
 11
268.078
 21
-15.8238
  0
LINE
  8
0
 10
268.078
 20
-15.8238
 11
267.055
 21
-14.9747
  0
LINE
  8
0
 10
267.055
 20
-14.9747
 11
266.081
 21
-14.0958
  0
LINE
  8
0
 10
266.081
 20
-14.0958
 11
265.157
 21
-13.187
  0
LINE
  8
0
 10
265.157
 20
-13.187
 11
264.281
 21
-12.2484
  0
LINE
  8
0
 10
264.281
 20
-12.2484
 11
263.455
 21
-11.28
  0
LINE
  8
0
 10
263.455
 20
-11.28
 11
262.678
 21
-10.2816
  0
LINE
  8
0
 10
262.678
 20
-10.2816
 11
261.95
 21
-9.25349
  0
LINE
  8
0
 10
261.95
 20
-9.25349
 11
261.273
 21
-8.19191
  0
LINE
  8
0
 10
261.273
 20
-8.19191
 11
260.651
 21
-7.09363
  0
LINE
  8
0
 10
260.651
 20
-7.09363
 11
260.083
 21
-5.95866
  0
LINE
  8
0
 10
260.083
 20
-5.95866
 11
259.568
 21
-4.78699
  0
LINE
  8
0
 10
259.568
 20
-4.78699
 11
259.108
 21
-3.57861
  0
LINE
  8
0
 10
259.108
 20
-3.57861
 11
258.702
 21
-2.33354
  0
LINE
  8
0
 10
258.702
 20
-2.33354
 11
258.351
 21
-1.05177
  0
LINE
  8
0
 10
258.351
 20
-1.05177
 11
258.053
 21
0.266678
  0
LINE
  8
0
 10
258.053
 20
0.266678
 11
257.81
 21
1.62184
  0
LINE
  8
0
 10
257.81
 20
1.62184
 11
257.62
 21
3.01372
  0
LINE
  8
0
 10
257.62
 20
3.01372
 11
257.485
 21
4.44228
  0
LINE
  8
0
 10
257.485
 20
4.44228
 11
257.404
 21
5.90753
  0
LINE
  8
0
 10
257.404
 20
5.90753
 11
257.377
 21
7.40948
  0
LINE
  8
0
 10
257.377
 20
7.40948
 11
257.451
 21
9.87366
  0
LINE
  8
0
 10
257.451
 20
9.87366
 11
257.674
 21
12.2526
  0
LINE
  8
0
 10
257.674
 20
12.2526
 11
258.046
 21
14.5463
  0
LINE
  8
0
 10
258.046
 20
14.5463
 11
258.566
 21
16.7548
  0
LINE
  8
0
 10
258.566
 20
16.7548
 11
259.235
 21
18.8781
  0
LINE
  8
0
 10
259.235
 20
18.8781
 11
260.053
 21
20.9162
  0
LINE
  8
0
 10
260.053
 20
20.9162
 11
261.019
 21
22.869
  0
LINE
  8
0
 10
261.019
 20
22.869
 11
262.134
 21
24.7366
  0
LINE
  8
0
 10
262.134
 20
24.7366
 11
263.397
 21
26.519
  0
LINE
  8
0
 10
263.397
 20
26.519
 11
264.81
 21
28.2162
  0
LINE
  8
0
 10
264.81
 20
28.2162
 11
266.371
 21
29.8282
  0
LINE
  8
0
 10
266.371
 20
29.8282
 11
268.08
 21
31.355
  0
LINE
  8
0
 10
268.08
 20
31.355
 11
269.939
 21
32.7965
  0
LINE
  8
0
 10
269.939
 20
32.7965
 11
271.933
 21
34.1418
  0
LINE
  8
0
 10
271.933
 20
34.1418
 11
274.052
 21
35.3794
  0
LINE
  8
0
 10
274.052
 20
35.3794
 11
276.294
 21
36.5094
  0
LINE
  8
0
 10
276.294
 20
36.5094
 11
278.66
 21
37.5318
  0
LINE
  8
0
 10
278.66
 20
37.5318
 11
281.15
 21
38.4466
  0
LINE
  8
0
 10
281.15
 20
38.4466
 11
283.763
 21
39.2538
  0
LINE
  8
0
 10
283.763
 20
39.2538
 11
286.501
 21
39.9533
  0
LINE
  8
0
 10
286.501
 20
39.9533
 11
289.362
 21
40.5452
  0
LINE
  8
0
 10
289.362
 20
40.5452
 11
292.347
 21
41.0295
  0
LINE
  8
0
 10
292.347
 20
41.0295
 11
295.456
 21
41.4062
  0
LINE
  8
0
 10
295.456
 20
41.4062
 11
298.688
 21
41.6752
  0
LINE
  8
0
 10
298.688
 20
41.6752
 11
302.044
 21
41.8367
  0
LINE
  8
0
 10
302.044
 20
41.8367
 11
305.525
 21
41.8905
  0
LINE
  8
0
 10
305.525
 20
41.8905
 11
308.599
 21
41.8438
  0
LINE
  8
0
 10
308.599
 20
41.8438
 11
311.579
 21
41.7039
  0
LINE
  8
0
 10
311.579
 20
41.7039
 11
314.466
 21
41.4706
  0
LINE
  8
0
 10
314.466
 20
41.4706
 11
317.259
 21
41.144
  0
LINE
  8
0
 10
317.259
 20
41.144
 11
319.957
 21
40.7241
  0
LINE
  8
0
 10
319.957
 20
40.7241
 11
322.562
 21
40.2108
  0
LINE
  8
0
 10
322.562
 20
40.2108
 11
325.073
 21
39.6043
  0
LINE
  8
0
 10
325.073
 20
39.6043
 11
327.49
 21
38.9044
  0
LINE
  8
0
 10
327.49
 20
38.9044
 11
329.813
 21
38.1113
  0
LINE
  8
0
 10
329.813
 20
38.1113
 11
332.042
 21
37.2248
  0
LINE
  8
0
 10
332.042
 20
37.2248
 11
334.177
 21
36.245
  0
LINE
  8
0
 10
334.177
 20
36.245
 11
336.218
 21
35.1719
  0
LINE
  8
0
 10
336.218
 20
35.1719
 11
338.166
 21
34.0055
  0
LINE
  8
0
 10
338.166
 20
34.0055
 11
340.011
 21
32.7509
  0
LINE
  8
0
 10
340.011
 20
32.7509
 11
341.746
 21
31.4129
  0
LINE
  8
0
 10
341.746
 20
31.4129
 11
343.371
 21
29.9916
  0
LINE
  8
0
 10
343.371
 20
29.9916
 11
344.886
 21
28.4869
  0
LINE
  8
0
 10
344.886
 20
28.4869
 11
346.291
 21
26.8989
  0
LINE
  8
0
 10
346.291
 20
26.8989
 11
347.586
 21
25.2275
  0
LINE
  8
0
 10
347.586
 20
25.2275
 11
348.77
 21
23.4727
  0
LINE
  8
0
 10
348.77
 20
23.4727
 11
349.845
 21
21.6346
  0
LINE
  8
0
 10
349.845
 20
21.6346
 11
350.81
 21
19.7131
  0
LINE
  8
0
 10
350.81
 20
19.7131
 11
351.664
 21
17.7082
  0
LINE
  8
0
 10
351.664
 20
17.7082
 11
352.408
 21
15.62
  0
LINE
  8
0
 10
352.408
 20
15.62
 11
353.042
 21
13.4484
  0
LINE
  8
0
 10
353.042
 20
13.4484
 11
353.567
 21
11.1935
  0
LINE
  8
0
 10
353.567
 20
11.1935
 11
327.391
 21
8.46049
  0
LINE
  8
0
 10
327.391
 20
8.46049
 11
327.175
 21
9.50705
  0
LINE
  8
0
 10
327.175
 20
9.50705
 11
326.915
 21
10.5119
  0
LINE
  8
0
 10
326.915
 20
10.5119
 11
326.612
 21
11.4751
  0
LINE
  8
0
 10
326.612
 20
11.4751
 11
326.266
 21
12.3967
  0
LINE
  8
0
 10
326.266
 20
12.3967
 11
325.876
 21
13.2766
  0
LINE
  8
0
 10
325.876
 20
13.2766
 11
325.442
 21
14.1148
  0
LINE
  8
0
 10
325.442
 20
14.1148
 11
324.965
 21
14.9113
  0
LINE
  8
0
 10
324.965
 20
14.9113
 11
324.444
 21
15.6662
  0
LINE
  8
0
 10
324.444
 20
15.6662
 11
323.88
 21
16.3794
  0
LINE
  8
0
 10
323.88
 20
16.3794
 11
323.272
 21
17.0509
  0
LINE
  8
0
 10
323.272
 20
17.0509
 11
322.621
 21
17.6808
  0
LINE
  8
0
 10
322.621
 20
17.6808
 11
321.926
 21
18.269
  0
LINE
  8
0
 10
321.926
 20
18.269
 11
321.188
 21
18.8155
  0
LINE
  8
0
 10
321.188
 20
18.8155
 11
320.393
 21
19.321
  0
LINE
  8
0
 10
320.393
 20
19.321
 11
319.53
 21
19.786
  0
LINE
  8
0
 10
319.53
 20
19.786
 11
318.599
 21
20.2106
  0
LINE
  8
0
 10
318.599
 20
20.2106
 11
317.6
 21
20.5948
  0
LINE
  8
0
 10
317.6
 20
20.5948
 11
316.532
 21
20.9385
  0
LINE
  8
0
 10
316.532
 20
20.9385
 11
315.395
 21
21.2418
  0
LINE
  8
0
 10
315.395
 20
21.2418
 11
314.19
 21
21.5046
  0
LINE
  8
0
 10
314.19
 20
21.5046
 11
312.917
 21
21.727
  0
LINE
  8
0
 10
312.917
 20
21.727
 11
311.575
 21
21.909
  0
LINE
  8
0
 10
311.575
 20
21.909
 11
310.165
 21
22.0505
  0
LINE
  8
0
 10
310.165
 20
22.0505
 11
308.687
 21
22.1516
  0
LINE
  8
0
 10
308.687
 20
22.1516
 11
307.14
 21
22.2123
  0
LINE
  8
0
 10
307.14
 20
22.2123
 11
305.525
 21
22.2325
  0
LINE
  8
0
 10
305.525
 20
22.2325
 11
303.938
 21
22.2166
  0
LINE
  8
0
 10
303.938
 20
22.2166
 11
302.414
 21
22.169
  0
LINE
  8
0
 10
302.414
 20
22.169
 11
300.952
 21
22.0897
  0
LINE
  8
0
 10
300.952
 20
22.0897
 11
299.553
 21
21.9787
  0
LINE
  8
0
 10
299.553
 20
21.9787
 11
298.215
 21
21.8359
  0
LINE
  8
0
 10
298.215
 20
21.8359
 11
296.94
 21
21.6614
  0
LINE
  8
0
 10
296.94
 20
21.6614
 11
295.727
 21
21.4552
  0
LINE
  8
0
 10
295.727
 20
21.4552
 11
294.576
 21
21.2172
  0
LINE
  8
0
 10
294.576
 20
21.2172
 11
293.488
 21
20.9475
  0
LINE
  8
0
 10
293.488
 20
20.9475
 11
292.461
 21
20.6461
  0
LINE
  8
0
 10
292.461
 20
20.6461
 11
291.497
 21
20.313
  0
LINE
  8
0
 10
291.497
 20
20.313
 11
290.595
 21
19.9481
  0
LINE
  8
0
 10
290.595
 20
19.9481
 11
289.756
 21
19.5515
  0
LINE
  8
0
 10
289.756
 20
19.5515
 11
288.978
 21
19.1176
  0
LINE
  8
0
 10
288.978
 20
19.1176
 11
288.263
 21
18.6407
  0
LINE
  8
0
 10
288.263
 20
18.6407
 11
287.61
 21
18.121
  0
LINE
  8
0
 10
287.61
 20
18.121
 11
287.019
 21
17.5583
  0
LINE
  8
0
 10
287.019
 20
17.5583
 11
286.49
 21
16.9528
  0
LINE
  8
0
 10
286.49
 20
16.9528
 11
286.024
 21
16.3043
  0
LINE
  8
0
 10
286.024
 20
16.3043
 11
285.619
 21
15.6129
  0
LINE
  8
0
 10
285.619
 20
15.6129
 11
285.277
 21
14.8786
  0
LINE
  8
0
 10
285.277
 20
14.8786
 11
284.997
 21
14.1014
  0
LINE
  8
0
 10
284.997
 20
14.1014
 11
284.779
 21
13.2813
  0
LINE
  8
0
 10
284.779
 20
13.2813
 11
284.624
 21
12.4183
  0
LINE
  8
0
 10
284.624
 20
12.4183
 11
284.531
 21
11.5123
  0
LINE
  8
0
 10
284.531
 20
11.5123
 11
284.5
 21
10.5635
  0
LINE
  8
0
 10
284.5
 20
10.5635
 11
284.524
 21
9.81548
  0
LINE
  8
0
 10
284.524
 20
9.81548
 11
284.595
 21
9.09171
  0
LINE
  8
0
 10
284.595
 20
9.09171
 11
284.715
 21
8.3922
  0
LINE
  8
0
 10
284.715
 20
8.3922
 11
284.883
 21
7.71696
  0
LINE
  8
0
 10
284.883
 20
7.71696
 11
285.098
 21
7.06598
  0
LINE
  8
0
 10
285.098
 20
7.06598
 11
285.362
 21
6.43925
  0
LINE
  8
0
 10
285.362
 20
6.43925
 11
285.673
 21
5.83679
  0
LINE
  8
0
 10
285.673
 20
5.83679
 11
286.032
 21
5.25859
  0
LINE
  8
0
 10
286.032
 20
5.25859
 11
286.439
 21
4.70465
  0
LINE
  8
0
 10
286.439
 20
4.70465
 11
286.894
 21
4.17497
  0
LINE
  8
0
 10
286.894
 20
4.17497
 11
287.397
 21
3.66956
  0
LINE
  8
0
 10
287.397
 20
3.66956
 11
287.948
 21
3.18839
  0
LINE
  8
0
 10
287.948
 20
3.18839
 11
288.547
 21
2.73149
  0
LINE
  8
0
 10
288.547
 20
2.73149
 11
289.202
 21
2.29263
  0
LINE
  8
0
 10
289.202
 20
2.29263
 11
289.922
 21
1.8656
  0
LINE
  8
0
 10
289.922
 20
1.8656
 11
290.708
 21
1.45038
  0
LINE
  8
0
 10
290.708
 20
1.45038
 11
291.56
 21
1.047
  0
LINE
  8
0
 10
291.56
 20
1.047
 11
292.476
 21
0.655426
  0
LINE
  8
0
 10
292.476
 20
0.655426
 11
293.458
 21
0.275681
  0
LINE
  8
0
 10
293.458
 20
0.275681
 11
294.505
 21
-0.0922241
  0
LINE
  8
0
 10
294.505
 20
-0.0922241
 11
295.618
 21
-0.448334
  0
LINE
  8
0
 10
295.618
 20
-0.448334
 11
296.796
 21
-0.792603
  0
LINE
  8
0
 10
296.796
 20
-0.792603
 11
298.039
 21
-1.12506
  0
LINE
  8
0
 10
298.039
 20
-1.12506
 11
299.348
 21
-1.44569
  0
LINE
  8
0
 10
299.348
 20
-1.44569
 11
300.721
 21
-1.7545
  0
LINE
  8
0
 10
300.721
 20
-1.7545
 11
302.161
 21
-2.0515
  0
LINE
  8
0
 10
302.161
 20
-2.0515
 11
304.197
 21
-2.47304
  0
LINE
  8
0
 10
304.197
 20
-2.47304
 11
306.198
 21
-2.89644
  0
LINE
  8
0
 10
306.198
 20
-2.89644
 11
308.163
 21
-3.3217
  0
LINE
  8
0
 10
308.163
 20
-3.3217
 11
310.093
 21
-3.74883
  0
LINE
  8
0
 10
310.093
 20
-3.74883
 11
311.987
 21
-4.1778
  0
LINE
  8
0
 10
311.987
 20
-4.1778
 11
313.846
 21
-4.60863
  0
LINE
  8
0
 10
313.846
 20
-4.60863
 11
315.67
 21
-5.04132
  0
LINE
  8
0
 10
315.67
 20
-5.04132
 11
317.458
 21
-5.47588
  0
LINE
  8
0
 10
317.458
 20
-5.47588
 11
319.21
 21
-5.91228
  0
LINE
  8
0
 10
319.21
 20
-5.91228
 11
320.927
 21
-6.35054
  0
LINE
  8
0
 10
320.927
 20
-6.35054
 11
322.609
 21
-6.79066
  0
LINE
  8
0
 10
322.609
 20
-6.79066
 11
324.255
 21
-7.23265
  0
LINE
  8
0
 10
324.255
 20
-7.23265
 11
325.866
 21
-7.6765
  0
LINE
  8
0
 10
325.866
 20
-7.6765
 11
327.434
 21
-8.12764
  0
LINE
  8
0
 10
327.434
 20
-8.12764
 11
328.955
 21
-8.59187
  0
LINE
  8
0
 10
328.955
 20
-8.59187
 11
330.426
 21
-9.06918
  0
LINE
  8
0
 10
330.426
 20
-9.06918
 11
331.85
 21
-9.55957
  0
LINE
  8
0
 10
331.85
 20
-9.55957
 11
333.224
 21
-10.063
  0
LINE
  8
0
 10
333.224
 20
-10.063
 11
334.551
 21
-10.5796
  0
LINE
  8
0
 10
334.551
 20
-10.5796
 11
335.828
 21
-11.1092
  0
LINE
  8
0
 10
335.828
 20
-11.1092
 11
337.058
 21
-11.6519
  0
LINE
  8
0
 10
337.058
 20
-11.6519
 11
338.238
 21
-12.2076
  0
LINE
  8
0
 10
338.238
 20
-12.2076
 11
339.37
 21
-12.7765
  0
LINE
  8
0
 10
339.37
 20
-12.7765
 11
340.454
 21
-13.3584
  0
LINE
  8
0
 10
340.454
 20
-13.3584
 11
341.489
 21
-13.9534
  0
LINE
  8
0
 10
341.489
 20
-13.9534
 11
342.476
 21
-14.5615
  0
LINE
  8
0
 10
342.476
 20
-14.5615
 11
343.423
 21
-15.1895
  0
LINE
  8
0
 10
343.423
 20
-15.1895
 11
344.34
 21
-15.8442
  0
LINE
  8
0
 10
344.34
 20
-15.8442
 11
345.228
 21
-16.5257
  0
LINE
  8
0
 10
345.228
 20
-16.5257
 11
346.086
 21
-17.2339
  0
LINE
  8
0
 10
346.086
 20
-17.2339
 11
346.914
 21
-17.9689
  0
LINE
  8
0
 10
346.914
 20
-17.9689
 11
347.712
 21
-18.7306
  0
LINE
  8
0
 10
347.712
 20
-18.7306
 11
348.48
 21
-19.5191
  0
LINE
  8
0
 10
348.48
 20
-19.5191
 11
349.219
 21
-20.3343
  0
LINE
  8
0
 10
349.219
 20
-20.3343
 11
349.927
 21
-21.1762
  0
LINE
  8
0
 10
349.927
 20
-21.1762
 11
350.606
 21
-22.0449
  0
LINE
  8
0
 10
350.606
 20
-22.0449
 11
351.255
 21
-22.9404
  0
LINE
  8
0
 10
351.255
 20
-22.9404
 11
351.874
 21
-23.8626
  0
LINE
  8
0
 10
351.874
 20
-23.8626
 11
352.463
 21
-24.8115
  0
LINE
  8
0
 10
352.463
 20
-24.8115
 11
353.015
 21
-25.7946
  0
LINE
  8
0
 10
353.015
 20
-25.7946
 11
353.523
 21
-26.8194
  0
LINE
  8
0
 10
353.523
 20
-26.8194
 11
353.986
 21
-27.8859
  0
LINE
  8
0
 10
353.986
 20
-27.8859
 11
354.406
 21
-28.9941
  0
LINE
  8
0
 10
354.406
 20
-28.9941
 11
354.781
 21
-30.1439
  0
LINE
  8
0
 10
354.781
 20
-30.1439
 11
355.113
 21
-31.3354
  0
LINE
  8
0
 10
355.113
 20
-31.3354
 11
355.4
 21
-32.5685
  0
LINE
  8
0
 10
355.4
 20
-32.5685
 11
355.643
 21
-33.8434
  0
LINE
  8
0
 10
355.643
 20
-33.8434
 11
355.841
 21
-35.1598
  0
LINE
  8
0
 10
355.841
 20
-35.1598
 11
355.996
 21
-36.518
  0
LINE
  8
0
 10
355.996
 20
-36.518
 11
356.106
 21
-37.9178
  0
LINE
  8
0
 10
356.106
 20
-37.9178
 11
356.173
 21
-39.3593
  0
LINE
  8
0
 10
356.173
 20
-39.3593
 11
356.195
 21
-40.8425
  0
LINE
  8
0
 10
356.195
 20
-40.8425
 11
356.115
 21
-43.3397
  0
LINE
  8
0
 10
356.115
 20
-43.3397
 11
355.875
 21
-45.753
  0
LINE
  8
0
 10
355.875
 20
-45.753
 11
355.475
 21
-48.0823
  0
LINE
  8
0
 10
355.475
 20
-48.0823
 11
354.916
 21
-50.3276
  0
LINE
  8
0
 10
354.916
 20
-50.3276
 11
354.196
 21
-52.4889
  0
LINE
  8
0
 10
354.196
 20
-52.4889
 11
353.317
 21
-54.5663
  0
LINE
  8
0
 10
353.317
 20
-54.5663
 11
352.278
 21
-56.5597
  0
LINE
  8
0
 10
352.278
 20
-56.5597
 11
351.079
 21
-58.4691
  0
LINE
  8
0
 10
351.079
 20
-58.4691
 11
349.72
 21
-60.2945
  0
LINE
  8
0
 10
349.72
 20
-60.2945
 11
348.201
 21
-62.036
  0
LINE
  8
0
 10
348.201
 20
-62.036
 11
346.522
 21
-63.6935
  0
LINE
  8
0
 10
346.522
 20
-63.6935
 11
344.684
 21
-65.267
  0
LINE
  8
0
 10
344.684
 20
-65.267
 11
342.686
 21
-66.7565
  0
LINE
  8
0
 10
342.686
 20
-66.7565
 11
340.546
 21
-68.1484
  0
LINE
  8
0
 10
340.546
 20
-68.1484
 11
338.284
 21
-69.4289
  0
LINE
  8
0
 10
338.284
 20
-69.4289
 11
335.9
 21
-70.598
  0
LINE
  8
0
 10
335.9
 20
-70.598
 11
333.393
 21
-71.6559
  0
LINE
  8
0
 10
333.393
 20
-71.6559
 11
330.763
 21
-72.6023
  0
LINE
  8
0
 10
330.763
 20
-72.6023
 11
328.011
 21
-73.4374
  0
LINE
  8
0
 10
328.011
 20
-73.4374
 11
325.136
 21
-74.1612
  0
LINE
  8
0
 10
325.136
 20
-74.1612
 11
322.139
 21
-74.7736
  0
LINE
  8
0
 10
322.139
 20
-74.7736
 11
319.019
 21
-75.2747
  0
LINE
  8
0
 10
319.019
 20
-75.2747
 11
315.776
 21
-75.6644
  0
LINE
  8
0
 10
315.776
 20
-75.6644
 11
312.411
 21
-75.9428
  0
LINE
  8
0
 10
312.411
 20
-75.9428
 11
308.924
 21
-76.1098
  0
LINE
  8
0
 10
308.924
 20
-76.1098
 11
305.314
 21
-76.1655
  0
LINE
  8
0
 10
305.314
 20
-76.1655
 11
301.772
 21
-76.1216
  0
LINE
  8
0
 10
167.185
 20
-76.1123
 11
164.774
 21
-75.9528
  0
LINE
  8
0
 10
164.774
 20
-75.9528
 11
162.45
 21
-75.6868
  0
LINE
  8
0
 10
162.45
 20
-75.6868
 11
160.211
 21
-75.3146
  0
LINE
  8
0
 10
160.211
 20
-75.3146
 11
158.058
 21
-74.8359
  0
LINE
  8
0
 10
158.058
 20
-74.8359
 11
155.991
 21
-74.2509
  0
LINE
  8
0
 10
155.991
 20
-74.2509
 11
154.01
 21
-73.5595
  0
LINE
  8
0
 10
154.01
 20
-73.5595
 11
152.115
 21
-72.7617
  0
LINE
  8
0
 10
152.115
 20
-72.7617
 11
150.305
 21
-71.8576
  0
LINE
  8
0
 10
150.305
 20
-71.8576
 11
148.582
 21
-70.8472
  0
LINE
  8
0
 10
148.582
 20
-70.8472
 11
146.944
 21
-69.7303
  0
LINE
  8
0
 10
146.944
 20
-69.7303
 11
145.392
 21
-68.5071
  0
LINE
  8
0
 10
145.392
 20
-68.5071
 11
143.926
 21
-67.1775
  0
LINE
  8
0
 10
143.926
 20
-67.1775
 11
142.557
 21
-65.7513
  0
LINE
  8
0
 10
142.557
 20
-65.7513
 11
141.298
 21
-64.2388
  0
LINE
  8
0
 10
141.298
 20
-64.2388
 11
140.149
 21
-62.6397
  0
LINE
  8
0
 10
140.149
 20
-62.6397
 11
139.109
 21
-60.9542
  0
LINE
  8
0
 10
139.109
 20
-60.9542
 11
138.178
 21
-59.1823
  0
LINE
  8
0
 10
138.178
 20
-59.1823
 11
137.357
 21
-57.3239
  0
LINE
  8
0
 10
137.357
 20
-57.3239
 11
136.645
 21
-55.379
  0
LINE
  8
0
 10
136.645
 20
-55.379
 11
136.043
 21
-53.3477
  0
LINE
  8
0
 10
136.043
 20
-53.3477
 11
135.551
 21
-51.23
  0
LINE
  8
0
 10
135.551
 20
-51.23
 11
135.167
 21
-49.0258
  0
LINE
  8
0
 10
135.167
 20
-49.0258
 11
134.894
 21
-46.7351
  0
LINE
  8
0
 10
134.894
 20
-46.7351
 11
134.729
 21
-44.358
  0
LINE
  8
0
 10
134.729
 20
-44.358
 11
134.675
 21
-41.8945
  0
LINE
  8
0
 10
134.675
 20
-41.8945
 11
134.743
 21
-39.2272
  0
LINE
  8
0
 10
134.743
 20
-39.2272
 11
134.947
 21
-36.6594
  0
LINE
  8
0
 10
134.947
 20
-36.6594
 11
135.288
 21
-34.1911
  0
LINE
  8
0
 10
135.288
 20
-34.1911
 11
135.764
 21
-31.8224
  0
LINE
  8
0
 10
135.764
 20
-31.8224
 11
136.378
 21
-29.5532
  0
LINE
  8
0
 10
136.378
 20
-29.5532
 11
137.127
 21
-27.3835
  0
LINE
  8
0
 10
137.127
 20
-27.3835
 11
138.012
 21
-25.3134
  0
LINE
  8
0
 10
138.012
 20
-25.3134
 11
139.034
 21
-23.3427
  0
LINE
  8
0
 10
139.034
 20
-23.3427
 11
140.192
 21
-21.4716
  0
LINE
  8
0
 10
140.192
 20
-21.4716
 11
141.486
 21
-19.7001
  0
LINE
  8
0
 10
141.486
 20
-19.7001
 11
142.916
 21
-18.028
  0
LINE
  8
0
 10
142.916
 20
-18.028
 11
144.483
 21
-16.4555
  0
LINE
  8
0
 10
144.483
 20
-16.4555
 11
146.186
 21
-14.9825
  0
LINE
  8
0
 10
146.186
 20
-14.9825
 11
148.018
 21
-13.6127
  0
LINE
  8
0
 10
148.018
 20
-13.6127
 11
149.973
 21
-12.35
  0
LINE
  8
0
 10
149.973
 20
-12.35
 11
152.05
 21
-11.1942
  0
LINE
  8
0
 10
152.05
 20
-11.1942
 11
154.25
 21
-10.1454
  0
LINE
  8
0
 10
154.25
 20
-10.1454
 11
156.572
 21
-9.20361
  0
LINE
  8
0
 10
156.572
 20
-9.20361
 11
159.017
 21
-8.36879
  0
LINE
  8
0
 10
159.017
 20
-8.36879
 11
161.584
 21
-7.64095
  0
LINE
  8
0
 10
161.584
 20
-7.64095
 11
164.274
 21
-7.02008
  0
LINE
  8
0
 10
164.274
 20
-7.02008
 11
167.087
 21
-6.5062
  0
LINE
  8
0
 10
167.087
 20
-6.5062
 11
170.022
 21
-6.0993
  0
LINE
  8
0
 10
170.022
 20
-6.0993
 11
173.08
 21
-5.79938
  0
LINE
  8
0
 10
173.08
 20
-5.79938
 11
176.26
 21
-5.60645
  0
LINE
  8
0
 10
176.26
 20
-5.60645
 11
179.563
 21
-5.52049
  0
LINE
  8
0
 10
179.563
 20
-5.52049
 11
204.057
 21
-5.10049
  0
LINE
  8
0
 10
204.057
 20
-5.10049
 11
204.057
 21
0.681488
  0
LINE
  8
0
 10
204.057
 20
0.681488
 11
204.034
 21
2.36191
  0
LINE
  8
0
 10
204.034
 20
2.36191
 11
203.965
 21
3.9745
  0
LINE
  8
0
 10
203.965
 20
3.9745
 11
203.85
 21
5.51932
  0
LINE
  8
0
 10
203.85
 20
5.51932
 11
203.688
 21
6.99634
  0
LINE
  8
0
 10
203.688
 20
6.99634
 11
203.481
 21
8.40555
  0
LINE
  8
0
 10
203.481
 20
8.40555
 11
203.228
 21
9.74696
  0
LINE
  8
0
 10
203.228
 20
9.74696
 11
202.929
 21
11.0206
  0
LINE
  8
0
 10
202.929
 20
11.0206
 11
202.584
 21
12.2264
  0
LINE
  8
0
 10
202.584
 20
12.2264
 11
202.192
 21
13.3644
  0
LINE
  8
0
 10
202.192
 20
13.3644
 11
201.755
 21
14.4346
  0
LINE
  8
0
 10
201.755
 20
14.4346
 11
201.272
 21
15.437
  0
LINE
  8
0
 10
201.272
 20
15.437
 11
200.742
 21
16.3717
  0
LINE
  8
0
 10
200.742
 20
16.3717
 11
200.167
 21
17.2385
  0
LINE
  8
0
 10
200.167
 20
17.2385
 11
199.539
 21
18.0394
  0
LINE
  8
0
 10
199.539
 20
18.0394
 11
198.853
 21
18.7762
  0
LINE
  8
0
 10
198.853
 20
18.7762
 11
198.109
 21
19.4489
  0
LINE
  8
0
 10
198.109
 20
19.4489
 11
197.306
 21
20.0576
  0
LINE
  8
0
 10
197.306
 20
20.0576
 11
196.444
 21
20.6022
  0
LINE
  8
0
 10
196.444
 20
20.6022
 11
195.524
 21
21.0827
  0
LINE
  8
0
 10
195.524
 20
21.0827
 11
194.546
 21
21.4992
  0
LINE
  8
0
 10
194.546
 20
21.4992
 11
193.509
 21
21.8516
  0
LINE
  8
0
 10
193.509
 20
21.8516
 11
192.413
 21
22.1399
  0
LINE
  8
0
 10
192.413
 20
22.1399
 11
191.259
 21
22.3642
  0
LINE
  8
0
 10
191.259
 20
22.3642
 11
190.047
 21
22.5244
  0
LINE
  8
0
 10
190.047
 20
22.5244
 11
188.776
 21
22.6205
  0
LINE
  8
0
 10
188.776
 20
22.6205
 11
187.447
 21
22.6525
  0
LINE
  8
0
 10
187.447
 20
22.6525
 11
186.211
 21
22.6304
  0
LINE
  8
0
 10
186.211
 20
22.6304
 11
185.027
 21
22.5642
  0
LINE
  8
0
 10
185.027
 20
22.5642
 11
183.895
 21
22.4538
  0
LINE
  8
0
 10
183.895
 20
22.4538
 11
182.814
 21
22.2992
  0
LINE
  8
0
 10
182.814
 20
22.2992
 11
181.785
 21
22.1004
  0
LINE
  8
0
 10
181.785
 20
22.1004
 11
180.807
 21
21.8575
  0
LINE
  8
0
 10
180.807
 20
21.8575
 11
179.881
 21
21.5704
  0
LINE
  8
0
 10
179.881
 20
21.5704
 11
179.007
 21
21.2392
  0
LINE
  8
0
 10
179.007
 20
21.2392
 11
178.184
 21
20.8638
  0
LINE
  8
0
 10
178.184
 20
20.8638
 11
177.413
 21
20.4442
  0
LINE
  8
0
 10
177.413
 20
20.4442
 11
176.694
 21
19.9805
  0
LINE
  8
0
 10
176.694
 20
19.9805
 11
176.026
 21
19.4726
  0
LINE
  8
0
 10
176.026
 20
19.4726
 11
175.41
 21
18.9205
  0
LINE
  8
0
 10
175.41
 20
18.9205
 11
174.836
 21
18.3174
  0
LINE
  8
0
 10
174.836
 20
18.3174
 11
174.298
 21
17.6565
  0
LINE
  8
0
 10
174.298
 20
17.6565
 11
173.793
 21
16.9377
  0
LINE
  8
0
 10
173.793
 20
16.9377
 11
173.322
 21
16.1611
  0
LINE
  8
0
 10
173.322
 20
16.1611
 11
172.886
 21
15.3266
  0
LINE
  8
0
 10
172.886
 20
15.3266
 11
172.484
 21
14.4343
  0
LINE
  8
0
 10
172.484
 20
14.4343
 11
172.116
 21
13.4842
  0
LINE
  8
0
 10
172.116
 20
13.4842
 11
171.782
 21
12.4762
  0
LINE
  8
0
 10
171.782
 20
12.4762
 11
171.483
 21
11.4103
  0
LINE
  8
0
 10
171.483
 20
11.4103
 11
171.217
 21
10.2867
  0
LINE
  8
0
 10
171.217
 20
10.2867
 11
170.986
 21
9.1051
  0
LINE
  8
0
 10
170.986
 20
9.1051
 11
170.789
 21
7.86572
  0
LINE
  8
0
 10
170.789
 20
7.86572
 11
170.627
 21
6.5685
  0
LINE
  8
0
 10
170.627
 20
6.5685
 11
139.826
 21
8.0405
  0
LINE
  8
0
 10
139.826
 20
8.0405
 11
140.319
 21
10.5481
  0
LINE
  8
0
 10
140.319
 20
10.5481
 11
140.924
 21
12.9606
  0
LINE
  8
0
 10
140.924
 20
12.9606
 11
141.642
 21
15.278
  0
LINE
  8
0
 10
141.642
 20
15.278
 11
142.473
 21
17.5001
  0
LINE
  8
0
 10
142.473
 20
17.5001
 11
143.416
 21
19.6272
  0
LINE
  8
0
 10
143.416
 20
19.6272
 11
144.472
 21
21.659
  0
LINE
  8
0
 10
144.472
 20
21.659
 11
145.641
 21
23.5957
  0
LINE
  8
0
 10
145.641
 20
23.5957
 11
146.922
 21
25.4372
  0
LINE
  8
0
 10
146.922
 20
25.4372
 11
148.315
 21
27.1836
  0
LINE
  8
0
 10
148.315
 20
27.1836
 11
149.821
 21
28.8348
  0
LINE
  8
0
 10
149.821
 20
28.8348
 11
151.44
 21
30.3909
  0
LINE
  8
0
 10
151.44
 20
30.3909
 11
153.172
 21
31.8518
  0
LINE
  8
0
 10
153.172
 20
31.8518
 11
155.016
 21
33.2175
  0
LINE
  8
0
 10
155.016
 20
33.2175
 11
156.969
 21
34.485
  0
LINE
  8
0
 10
156.969
 20
34.485
 11
159.029
 21
35.651
  0
LINE
  8
0
 10
159.029
 20
35.651
 11
161.195
 21
36.7157
  0
LINE
  8
0
 10
161.195
 20
36.7157
 11
163.468
 21
37.6789
  0
LINE
  8
0
 10
163.468
 20
37.6789
 11
165.847
 21
38.5408
  0
LINE
  8
0
 10
165.847
 20
38.5408
 11
168.332
 21
39.3013
  0
LINE
  8
0
 10
168.332
 20
39.3013
 11
170.924
 21
39.9604
  0
LINE
  8
0
 10
170.924
 20
39.9604
 11
173.622
 21
40.518
  0
LINE
  8
0
 10
173.622
 20
40.518
 11
176.427
 21
40.9743
  0
LINE
  8
0
 10
176.427
 20
40.9743
 11
179.338
 21
41.3292
  0
LINE
  8
0
 10
179.338
 20
41.3292
 11
182.355
 21
41.5827
  0
LINE
  8
0
 10
182.355
 20
41.5827
 11
185.479
 21
41.7348
  0
LINE
  8
0
 10
185.479
 20
41.7348
 11
188.709
 21
41.7855
  0
LINE
  8
0
 10
188.709
 20
41.7855
 11
191.966
 21
41.7227
  0
LINE
  8
0
 10
191.966
 20
41.7227
 11
195.106
 21
41.5342
  0
LINE
  8
0
 10
195.106
 20
41.5342
 11
198.129
 21
41.22
  0
LINE
  8
0
 10
198.129
 20
41.22
 11
201.035
 21
40.7802
  0
LINE
  8
0
 10
201.035
 20
40.7802
 11
203.824
 21
40.2148
  0
LINE
  8
0
 10
203.824
 20
40.2148
 11
206.496
 21
39.5237
  0
LINE
  8
0
 10
206.496
 20
39.5237
 11
209.051
 21
38.7069
  0
LINE
  8
0
 10
209.051
 20
38.7069
 11
211.49
 21
37.7645
  0
LINE
  8
0
 10
211.49
 20
37.7645
 11
213.811
 21
36.6964
  0
LINE
  8
0
 10
213.811
 20
36.6964
 11
216.016
 21
35.5027
  0
LINE
  8
0
 10
216.016
 20
35.5027
 11
218.103
 21
34.1833
  0
LINE
  8
0
 10
218.103
 20
34.1833
 11
220.074
 21
32.7382
  0
LINE
  8
0
 10
220.074
 20
32.7382
 11
221.928
 21
31.1675
  0
LINE
  8
0
 10
221.928
 20
31.1675
 11
223.654
 21
29.4812
  0
LINE
  8
0
 10
223.654
 20
29.4812
 11
225.242
 21
27.6892
  0
LINE
  8
0
 10
225.242
 20
27.6892
 11
226.692
 21
25.7914
  0
LINE
  8
0
 10
226.692
 20
25.7914
 11
228.004
 21
23.7878
  0
LINE
  8
0
 10
228.004
 20
23.7878
 11
229.178
 21
21.6785
  0
LINE
  8
0
 10
229.178
 20
21.6785
 11
230.213
 21
19.4634
  0
LINE
  8
0
 10
230.213
 20
19.4634
 11
231.111
 21
17.1426
  0
LINE
  8
0
 10
231.111
 20
17.1426
 11
231.871
 21
14.716
  0
LINE
  8
0
 10
231.871
 20
14.716
 11
232.492
 21
12.1836
  0
LINE
  8
0
 10
232.492
 20
12.1836
 11
232.975
 21
9.54549
  0
LINE
  8
0
 10
232.975
 20
9.54549
 11
233.32
 21
6.80157
  0
LINE
  8
0
 10
233.32
 20
6.80157
 11
233.528
 21
3.95192
  0
LINE
  8
0
 10
233.528
 20
3.95192
 11
233.597
 21
0.99649
  0
LINE
  8
0
 10
233.597
 20
0.99649
 11
233.597
 21
-40.4225
  0
LINE
  8
0
 10
233.597
 20
-40.4225
 11
233.609
 21
-41.859
  0
LINE
  8
0
 10
233.609
 20
-41.859
 11
233.648
 21
-43.2253
  0
LINE
  8
0
 10
233.648
 20
-43.2253
 11
233.711
 21
-44.5213
  0
LINE
  8
0
 10
233.711
 20
-44.5213
 11
233.801
 21
-45.747
  0
LINE
  8
0
 10
233.801
 20
-45.747
 11
233.915
 21
-46.9024
  0
LINE
  8
0
 10
233.915
 20
-46.9024
 11
234.056
 21
-47.9875
  0
LINE
  8
0
 10
234.056
 20
-47.9875
 11
234.222
 21
-49.0024
  0
LINE
  8
0
 10
234.222
 20
-49.0024
 11
234.413
 21
-49.9469
  0
LINE
  8
0
 10
234.413
 20
-49.9469
 11
234.63
 21
-50.8212
  0
LINE
  8
0
 10
234.63
 20
-50.8212
 11
234.872
 21
-51.6252
  0
LINE
  8
0
 10
234.872
 20
-51.6252
 11
235.14
 21
-52.3589
  0
LINE
  8
0
 10
235.14
 20
-52.3589
 11
235.433
 21
-53.0224
  0
LINE
  8
0
 10
235.433
 20
-53.0224
 11
235.752
 21
-53.6155
  0
LINE
  8
0
 10
235.752
 20
-53.6155
 11
236.1
 21
-54.152
  0
LINE
  8
0
 10
236.1
 20
-54.152
 11
236.483
 21
-54.6456
  0
LINE
  8
0
 10
236.483
 20
-54.6456
 11
236.9
 21
-55.0963
  0
LINE
  8
0
 10
236.9
 20
-55.0963
 11
237.352
 21
-55.5041
  0
LINE
  8
0
 10
237.352
 20
-55.5041
 11
237.837
 21
-55.869
  0
LINE
  8
0
 10
237.837
 20
-55.869
 11
238.357
 21
-56.1909
  0
LINE
  8
0
 10
238.357
 20
-56.1909
 11
238.911
 21
-56.4699
  0
LINE
  8
0
 10
238.911
 20
-56.4699
 11
239.499
 21
-56.7059
  0
LINE
  8
0
 10
239.499
 20
-56.7059
 11
240.121
 21
-56.8991
  0
LINE
  8
0
 10
240.121
 20
-56.8991
 11
240.778
 21
-57.0493
  0
LINE
  8
0
 10
240.778
 20
-57.0493
 11
241.469
 21
-57.1566
  0
LINE
  8
0
 10
241.469
 20
-57.1566
 11
242.193
 21
-57.221
  0
LINE
  8
0
 10
242.193
 20
-57.221
 11
242.953
 21
-57.2425
  0
LINE
  8
0
 10
242.953
 20
-57.2425
 11
243.469
 21
-57.2388
  0
LINE
  8
0
 10
243.469
 20
-57.2388
 11
243.983
 21
-57.2276
  0
LINE
  8
0
 10
243.983
 20
-57.2276
 11
244.494
 21
-57.2089
  0
LINE
  8
0
 10
244.494
 20
-57.2089
 11
245.003
 21
-57.1828
  0
LINE
  8
0
 10
245.003
 20
-57.1828
 11
245.509
 21
-57.1492
  0
LINE
  8
0
 10
245.509
 20
-57.1492
 11
246.013
 21
-57.1081
  0
LINE
  8
0
 10
246.013
 20
-57.1081
 11
246.515
 21
-57.0595
  0
LINE
  8
0
 10
246.515
 20
-57.0595
 11
247.013
 21
-57.0035
  0
LINE
  8
0
 10
247.013
 20
-57.0035
 11
247.51
 21
-56.9401
  0
LINE
  8
0
 10
247.51
 20
-56.9401
 11
248.004
 21
-56.8691
  0
LINE
  8
0
 10
248.004
 20
-56.8691
 11
248.495
 21
-56.7907
  0
LINE
  8
0
 10
248.495
 20
-56.7907
 11
248.984
 21
-56.7048
  0
LINE
  8
0
 10
248.984
 20
-56.7048
 11
249.471
 21
-56.6115
  0
LINE
  8
0
 10
249.471
 20
-56.6115
 11
249.471
 21
-72.5905
  0
LINE
  8
0
 10
249.471
 20
-72.5905
 11
249.069
 21
-72.687
  0
LINE
  8
0
 10
249.069
 20
-72.687
 11
248.674
 21
-72.7822
  0
LINE
  8
0
 10
248.674
 20
-72.7822
 11
248.286
 21
-72.8761
  0
LINE
  8
0
 10
248.286
 20
-72.8761
 11
247.903
 21
-72.9689
  0
LINE
  8
0
 10
247.903
 20
-72.9689
 11
247.527
 21
-73.0603
  0
LINE
  8
0
 10
247.527
 20
-73.0603
 11
247.157
 21
-73.1506
  0
LINE
  8
0
 10
247.157
 20
-73.1506
 11
246.793
 21
-73.2396
  0
LINE
  8
0
 10
246.793
 20
-73.2396
 11
246.435
 21
-73.3273
  0
LINE
  8
0
 10
246.435
 20
-73.3273
 11
246.084
 21
-73.4139
  0
LINE
  8
0
 10
246.084
 20
-73.4139
 11
245.738
 21
-73.4991
  0
LINE
  8
0
 10
245.738
 20
-73.4991
 11
245.399
 21
-73.5832
  0
LINE
  8
0
 10
245.399
 20
-73.5832
 11
245.066
 21
-73.666
  0
LINE
  8
0
 10
245.066
 20
-73.666
 11
244.74
 21
-73.7475
  0
LINE
  8
0
 10
244.74
 20
-73.7475
 11
244.416
 21
-73.827
  0
LINE
  8
0
 10
244.416
 20
-73.827
 11
244.093
 21
-73.9041
  0
LINE
  8
0
 10
244.093
 20
-73.9041
 11
243.769
 21
-73.9786
  0
LINE
  8
0
 10
243.769
 20
-73.9786
 11
243.446
 21
-74.0507
  0
LINE
  8
0
 10
243.446
 20
-74.0507
 11
243.123
 21
-74.1203
  0
LINE
  8
0
 10
243.123
 20
-74.1203
 11
242.799
 21
-74.1874
  0
LINE
  8
0
 10
242.799
 20
-74.1874
 11
242.476
 21
-74.252
  0
LINE
  8
0
 10
242.476
 20
-74.252
 11
242.152
 21
-74.3141
  0
LINE
  8
0
 10
242.152
 20
-74.3141
 11
241.829
 21
-74.3738
  0
LINE
  8
0
 10
241.829
 20
-74.3738
 11
241.505
 21
-74.4309
  0
LINE
  8
0
 10
241.505
 20
-74.4309
 11
241.182
 21
-74.4856
  0
LINE
  8
0
 10
241.182
 20
-74.4856
 11
240.858
 21
-74.5378
  0
LINE
  8
0
 10
240.858
 20
-74.5378
 11
240.535
 21
-74.5875
  0
LINE
  8
0
 10
240.535
 20
-74.5875
 11
240.21
 21
-74.6355
  0
LINE
  8
0
 10
240.21
 20
-74.6355
 11
239.882
 21
-74.6822
  0
LINE
  8
0
 10
239.882
 20
-74.6822
 11
239.55
 21
-74.7277
  0
LINE
  8
0
 10
239.55
 20
-74.7277
 11
239.216
 21
-74.7719
  0
LINE
  8
0
 10
239.216
 20
-74.7719
 11
238.879
 21
-74.8149
  0
LINE
  8
0
 10
238.879
 20
-74.8149
 11
238.538
 21
-74.8566
  0
LINE
  8
0
 10
238.538
 20
-74.8566
 11
238.194
 21
-74.8971
  0
LINE
  8
0
 10
238.194
 20
-74.8971
 11
237.848
 21
-74.9363
  0
LINE
  8
0
 10
237.848
 20
-74.9363
 11
237.498
 21
-74.9742
  0
LINE
  8
0
 10
237.498
 20
-74.9742
 11
237.145
 21
-75.0109
  0
LINE
  8
0
 10
237.145
 20
-75.0109
 11
236.788
 21
-75.0464
  0
LINE
  8
0
 10
236.788
 20
-75.0464
 11
236.429
 21
-75.0806
  0
LINE
  8
0
 10
236.429
 20
-75.0806
 11
236.067
 21
-75.1135
  0
LINE
  8
0
 10
236.067
 20
-75.1135
 11
235.698
 21
-75.1447
  0
LINE
  8
0
 10
235.698
 20
-75.1447
 11
235.32
 21
-75.1734
  0
LINE
  8
0
 10
235.32
 20
-75.1734
 11
234.933
 21
-75.1996
  0
LINE
  8
0
 10
234.933
 20
-75.1996
 11
234.537
 21
-75.2234
  0
LINE
  8
0
 10
234.537
 20
-75.2234
 11
234.131
 21
-75.2446
  0
LINE
  8
0
 10
234.131
 20
-75.2446
 11
233.716
 21
-75.2633
  0
LINE
  8
0
 10
233.716
 20
-75.2633
 11
233.291
 21
-75.2795
  0
LINE
  8
0
 10
233.291
 20
-75.2795
 11
232.858
 21
-75.2933
  0
LINE
  8
0
 10
232.858
 20
-75.2933
 11
232.414
 21
-75.3045
  0
LINE
  8
0
 10
232.414
 20
-75.3045
 11
231.962
 21
-75.3133
  0
LINE
  8
0
 10
231.962
 20
-75.3133
 11
231.5
 21
-75.3195
  0
LINE
  8
0
 10
231.5
 20
-75.3195
 11
231.029
 21
-75.3232
  0
LINE
  8
0
 10
231.029
 20
-75.3232
 11
230.549
 21
-75.3245
  0
LINE
  8
0
 10
230.549
 20
-75.3245
 11
228.869
 21
-75.2921
  0
LINE
  8
0
 10
228.869
 20
-75.2921
 11
227.258
 21
-75.1951
  0
LINE
  8
0
 10
227.258
 20
-75.1951
 11
225.716
 21
-75.0334
  0
LINE
  8
0
 10
225.716
 20
-75.0334
 11
224.243
 21
-74.8069
  0
LINE
  8
0
 10
224.243
 20
-74.8069
 11
222.84
 21
-74.5158
  0
LINE
  8
0
 10
222.84
 20
-74.5158
 11
221.505
 21
-74.1599
  0
LINE
  8
0
 10
221.505
 20
-74.1599
 11
220.239
 21
-73.7394
  0
LINE
  8
0
 10
220.239
 20
-73.7394
 11
219.043
 21
-73.2542
  0
LINE
  8
0
 10
219.043
 20
-73.2542
 11
217.915
 21
-72.7042
  0
LINE
  8
0
 10
217.915
 20
-72.7042
 11
216.857
 21
-72.0896
  0
LINE
  8
0
 10
216.857
 20
-72.0896
 11
215.867
 21
-71.4102
  0
LINE
  8
0
 10
215.867
 20
-71.4102
 11
214.947
 21
-70.6662
  0
LINE
  8
0
 10
214.947
 20
-70.6662
 11
214.096
 21
-69.8575
  0
LINE
  8
0
 10
214.096
 20
-69.8575
 11
213.304
 21
-68.9859
  0
LINE
  8
0
 10
213.304
 20
-68.9859
 11
212.563
 21
-68.0535
  0
LINE
  8
0
 10
212.563
 20
-68.0535
 11
211.872
 21
-67.06
  0
LINE
  8
0
 10
211.872
 20
-67.06
 11
211.232
 21
-66.0056
  0
LINE
  8
0
 10
211.232
 20
-66.0056
 11
210.642
 21
-64.8903
  0
LINE
  8
0
 10
210.642
 20
-64.8903
 11
210.103
 21
-63.714
  0
LINE
  8
0
 10
210.103
 20
-63.714
 11
209.613
 21
-62.4768
  0
LINE
  8
0
 10
209.613
 20
-62.4768
 11
209.175
 21
-61.1786
  0
LINE
  8
0
 10
209.175
 20
-61.1786
 11
208.786
 21
-59.8195
  0
LINE
  8
0
 10
208.786
 20
-59.8195
 11
208.448
 21
-58.3994
  0
LINE
  8
0
 10
208.448
 20
-58.3994
 11
208.16
 21
-56.9184
  0
LINE
  8
0
 10
208.16
 20
-56.9184
 11
207.923
 21
-55.3764
  0
LINE
  8
0
 10
207.923
 20
-55.3764
 11
207.736
 21
-53.7735
  0
LINE
  8
0
 10
207.736
 20
-53.7735
 11
207.106
 21
-53.7735
  0
LINE
  8
0
 10
207.106
 20
-53.7735
 11
205.123
 21
-57.0859
  0
LINE
  8
0
 10
205.123
 20
-57.0859
 11
202.99
 21
-60.1333
  0
LINE
  8
0
 10
202.99
 20
-60.1333
 11
200.708
 21
-62.9158
  0
LINE
  8
0
 10
200.708
 20
-62.9158
 11
198.278
 21
-65.4332
  0
LINE
  8
0
 10
198.278
 20
-65.4332
 11
195.697
 21
-67.6857
  0
LINE
  8
0
 10
195.697
 20
-67.6857
 11
192.968
 21
-69.6731
  0
LINE
  8
0
 10
192.968
 20
-69.6731
 11
190.089
 21
-71.3956
  0
LINE
  8
0
 10
190.089
 20
-71.3956
 11
187.061
 21
-72.8531
  0
LINE
  8
0
 10
187.061
 20
-72.8531
 11
183.883
 21
-74.0455
  0
LINE
  8
0
 10
183.883
 20
-74.0455
 11
180.557
 21
-74.973
  0
LINE
  8
0
 10
180.557
 20
-74.973
 11
177.081
 21
-75.6355
  0
LINE
  8
0
 10
177.081
 20
-75.6355
 11
173.455
 21
-76.033
  0
LINE
  8
0
 10
173.455
 20
-76.033
 11
169.681
 21
-76.1655
  0
LINE
  8
0
 10
169.681
 20
-76.1655
 11
167.185
 21
-76.1123
  0
LINE
  8
0
 10
180.202
 20
-55.5381
 11
181.248
 21
-55.4709
  0
LINE
  8
0
 10
181.248
 20
-55.4709
 11
182.28
 21
-55.359
  0
LINE
  8
0
 10
182.28
 20
-55.359
 11
183.297
 21
-55.2022
  0
LINE
  8
0
 10
183.297
 20
-55.2022
 11
184.3
 21
-55.0007
  0
LINE
  8
0
 10
184.3
 20
-55.0007
 11
185.289
 21
-54.7544
  0
LINE
  8
0
 10
185.289
 20
-54.7544
 11
186.264
 21
-54.4634
  0
LINE
  8
0
 10
186.264
 20
-54.4634
 11
187.224
 21
-54.1275
  0
LINE
  8
0
 10
187.224
 20
-54.1275
 11
188.17
 21
-53.7469
  0
LINE
  8
0
 10
188.17
 20
-53.7469
 11
189.101
 21
-53.3214
  0
LINE
  8
0
 10
189.101
 20
-53.3214
 11
190.018
 21
-52.8512
  0
LINE
  8
0
 10
190.018
 20
-52.8512
 11
190.921
 21
-52.3363
  0
LINE
  8
0
 10
190.921
 20
-52.3363
 11
191.81
 21
-51.7765
  0
LINE
  8
0
 10
191.81
 20
-51.7765
 11
192.676
 21
-51.1771
  0
LINE
  8
0
 10
192.676
 20
-51.1771
 11
193.514
 21
-50.5435
  0
LINE
  8
0
 10
193.514
 20
-50.5435
 11
194.322
 21
-49.8757
  0
LINE
  8
0
 10
194.322
 20
-49.8757
 11
195.101
 21
-49.1736
  0
LINE
  8
0
 10
195.101
 20
-49.1736
 11
195.851
 21
-48.4374
  0
LINE
  8
0
 10
195.851
 20
-48.4374
 11
196.572
 21
-47.667
  0
LINE
  8
0
 10
196.572
 20
-47.667
 11
197.263
 21
-46.8624
  0
LINE
  8
0
 10
197.263
 20
-46.8624
 11
197.925
 21
-46.0236
  0
LINE
  8
0
 10
197.925
 20
-46.0236
 11
198.558
 21
-45.1506
  0
LINE
  8
0
 10
198.558
 20
-45.1506
 11
199.162
 21
-44.2434
  0
LINE
  8
0
 10
199.162
 20
-44.2434
 11
199.736
 21
-43.3019
  0
LINE
  8
0
 10
199.736
 20
-43.3019
 11
200.282
 21
-42.3263
  0
LINE
  8
0
 10
200.282
 20
-42.3263
 11
200.798
 21
-41.3165
  0
LINE
  8
0
 10
200.798
 20
-41.3165
 11
201.28
 21
-40.2848
  0
LINE
  8
0
 10
201.28
 20
-40.2848
 11
201.723
 21
-39.2437
  0
LINE
  8
0
 10
201.723
 20
-39.2437
 11
202.128
 21
-38.1933
  0
LINE
  8
0
 10
202.128
 20
-38.1933
 11
202.495
 21
-37.1336
  0
LINE
  8
0
 10
202.495
 20
-37.1336
 11
202.823
 21
-36.0645
  0
LINE
  8
0
 10
202.823
 20
-36.0645
 11
203.112
 21
-34.9862
  0
LINE
  8
0
 10
203.112
 20
-34.9862
 11
203.362
 21
-33.8985
  0
LINE
  8
0
 10
203.362
 20
-33.8985
 11
203.575
 21
-32.8015
  0
LINE
  8
0
 10
203.575
 20
-32.8015
 11
203.748
 21
-31.6951
  0
LINE
  8
0
 10
203.748
 20
-31.6951
 11
203.883
 21
-30.5795
  0
LINE
  8
0
 10
203.883
 20
-30.5795
 11
203.98
 21
-29.4545
  0
LINE
  8
0
 10
203.98
 20
-29.4545
 11
204.037
 21
-28.3201
  0
LINE
  8
0
 10
204.037
 20
-28.3201
 11
204.057
 21
-27.1765
  0
LINE
  8
0
 10
204.057
 20
-27.1765
 11
204.057
 21
-21.3945
  0
LINE
  8
0
 10
204.057
 20
-21.3945
 11
188.919
 21
-21.6055
  0
LINE
  8
0
 10
188.919
 20
-21.6055
 11
187.369
 21
-21.6785
  0
LINE
  8
0
 10
187.369
 20
-21.6785
 11
185.891
 21
-21.7683
  0
LINE
  8
0
 10
185.891
 20
-21.7683
 11
184.483
 21
-21.875
  0
LINE
  8
0
 10
184.483
 20
-21.875
 11
183.146
 21
-21.9984
  0
LINE
  8
0
 10
183.146
 20
-21.9984
 11
181.88
 21
-22.1386
  0
LINE
  8
0
 10
181.88
 20
-22.1386
 11
180.686
 21
-22.2957
  0
LINE
  8
0
 10
180.686
 20
-22.2957
 11
179.562
 21
-22.4695
  0
LINE
  8
0
 10
179.562
 20
-22.4695
 11
178.508
 21
-22.6602
  0
LINE
  8
0
 10
178.508
 20
-22.6602
 11
177.526
 21
-22.8676
  0
LINE
  8
0
 10
177.526
 20
-22.8676
 11
176.615
 21
-23.0919
  0
LINE
  8
0
 10
176.615
 20
-23.0919
 11
175.775
 21
-23.3329
  0
LINE
  8
0
 10
175.775
 20
-23.3329
 11
175.005
 21
-23.5908
  0
LINE
  8
0
 10
175.005
 20
-23.5908
 11
174.307
 21
-23.8655
  0
LINE
  8
0
 10
174.307
 20
-23.8655
 11
173.656
 21
-24.1599
  0
LINE
  8
0
 10
173.656
 20
-24.1599
 11
173.029
 21
-24.4774
  0
LINE
  8
0
 10
173.029
 20
-24.4774
 11
172.427
 21
-24.8179
  0
LINE
  8
0
 10
172.427
 20
-24.8179
 11
171.848
 21
-25.1814
  0
LINE
  8
0
 10
171.848
 20
-25.1814
 11
171.294
 21
-25.568
  0
LINE
  8
0
 10
171.294
 20
-25.568
 11
170.765
 21
-25.9776
  0
LINE
  8
0
 10
170.765
 20
-25.9776
 11
170.259
 21
-26.4102
  0
LINE
  8
0
 10
170.259
 20
-26.4102
 11
169.778
 21
-26.8658
  0
LINE
  8
0
 10
169.778
 20
-26.8658
 11
169.321
 21
-27.3445
  0
LINE
  8
0
 10
169.321
 20
-27.3445
 11
168.888
 21
-27.8462
  0
LINE
  8
0
 10
168.888
 20
-27.8462
 11
168.48
 21
-28.3709
  0
LINE
  8
0
 10
168.48
 20
-28.3709
 11
168.096
 21
-28.9187
  0
LINE
  8
0
 10
168.096
 20
-28.9187
 11
167.736
 21
-29.4895
  0
LINE
  8
0
 10
167.736
 20
-29.4895
 11
167.401
 21
-30.0866
  0
LINE
  8
0
 10
167.401
 20
-30.0866
 11
167.094
 21
-30.7135
  0
LINE
  8
0
 10
167.094
 20
-30.7135
 11
166.813
 21
-31.3704
  0
LINE
  8
0
 10
166.813
 20
-31.3704
 11
166.559
 21
-32.0571
  0
LINE
  8
0
 10
166.559
 20
-32.0571
 11
166.332
 21
-32.7736
  0
LINE
  8
0
 10
166.332
 20
-32.7736
 11
166.131
 21
-33.5201
  0
LINE
  8
0
 10
166.131
 20
-33.5201
 11
165.957
 21
-34.2964
  0
LINE
  8
0
 10
165.957
 20
-34.2964
 11
165.81
 21
-35.1026
  0
LINE
  8
0
 10
165.81
 20
-35.1026
 11
165.69
 21
-35.9386
  0
LINE
  8
0
 10
165.69
 20
-35.9386
 11
165.596
 21
-36.8045
  0
LINE
  8
0
 10
165.596
 20
-36.8045
 11
165.529
 21
-37.7003
  0
LINE
  8
0
 10
165.529
 20
-37.7003
 11
165.489
 21
-38.626
  0
LINE
  8
0
 10
165.489
 20
-38.626
 11
165.476
 21
-39.5815
  0
LINE
  8
0
 10
165.476
 20
-39.5815
 11
165.498
 21
-40.8023
  0
LINE
  8
0
 10
165.498
 20
-40.8023
 11
165.564
 21
-41.974
  0
LINE
  8
0
 10
165.564
 20
-41.974
 11
165.674
 21
-43.0965
  0
LINE
  8
0
 10
165.674
 20
-43.0965
 11
165.829
 21
-44.1698
  0
LINE
  8
0
 10
165.829
 20
-44.1698
 11
166.028
 21
-45.1941
  0
LINE
  8
0
 10
166.028
 20
-45.1941
 11
166.271
 21
-46.1691
  0
LINE
  8
0
 10
166.271
 20
-46.1691
 11
166.558
 21
-47.0951
  0
LINE
  8
0
 10
166.558
 20
-47.0951
 11
166.889
 21
-47.9718
  0
LINE
  8
0
 10
166.889
 20
-47.9718
 11
167.264
 21
-48.7995
  0
LINE
  8
0
 10
167.264
 20
-48.7995
 11
167.684
 21
-49.5779
  0
LINE
  8
0
 10
167.684
 20
-49.5779
 11
168.148
 21
-50.3073
  0
LINE
  8
0
 10
168.148
 20
-50.3073
 11
168.656
 21
-50.9875
  0
LINE
  8
0
 10
168.656
 20
-50.9875
 11
169.208
 21
-51.6185
  0
LINE
  8
0
 10
169.208
 20
-51.6185
 11
169.796
 21
-52.2016
  0
LINE
  8
0
 10
169.796
 20
-52.2016
 11
170.414
 21
-52.7381
  0
LINE
  8
0
 10
170.414
 20
-52.7381
 11
171.062
 21
-53.228
  0
LINE
  8
0
 10
171.062
 20
-53.228
 11
171.738
 21
-53.6711
  0
LINE
  8
0
 10
171.738
 20
-53.6711
 11
172.444
 21
-54.0677
  0
LINE
  8
0
 10
172.444
 20
-54.0677
 11
173.179
 21
-54.4175
  0
LINE
  8
0
 10
173.179
 20
-54.4175
 11
173.943
 21
-54.7208
  0
LINE
  8
0
 10
173.943
 20
-54.7208
 11
174.736
 21
-54.9774
  0
LINE
  8
0
 10
174.736
 20
-54.9774
 11
175.559
 21
-55.1873
  0
LINE
  8
0
 10
175.559
 20
-55.1873
 11
176.411
 21
-55.3506
  0
LINE
  8
0
 10
176.411
 20
-55.3506
 11
177.292
 21
-55.4672
  0
LINE
  8
0
 10
177.292
 20
-55.4672
 11
178.202
 21
-55.5372
  0
LINE
  8
0
 10
178.202
 20
-55.5372
 11
179.142
 21
-55.5605
  0
LINE
  8
0
 10
179.142
 20
-55.5605
 11
180.202
 21
-55.5381
  0
LINE
  8
0
 10
-234.575
 20
-76.0756
 11
-238.31
 21
-75.8059
  0
LINE
  8
0
 10
-238.31
 20
-75.8059
 11
-241.905
 21
-75.3565
  0
LINE
  8
0
 10
-241.905
 20
-75.3565
 11
-245.359
 21
-74.7273
  0
LINE
  8
0
 10
-245.359
 20
-74.7273
 11
-248.673
 21
-73.9183
  0
LINE
  8
0
 10
-248.673
 20
-73.9183
 11
-251.846
 21
-72.9295
  0
LINE
  8
0
 10
-251.846
 20
-72.9295
 11
-254.878
 21
-71.761
  0
LINE
  8
0
 10
-254.878
 20
-71.761
 11
-257.77
 21
-70.4127
  0
LINE
  8
0
 10
-257.77
 20
-70.4127
 11
-260.522
 21
-68.8846
  0
LINE
  8
0
 10
-260.522
 20
-68.8846
 11
-263.132
 21
-67.1767
  0
LINE
  8
0
 10
-263.132
 20
-67.1767
 11
-265.603
 21
-65.2891
  0
LINE
  8
0
 10
-265.603
 20
-65.2891
 11
-267.932
 21
-63.2217
  0
LINE
  8
0
 10
-267.932
 20
-63.2217
 11
-270.121
 21
-60.9745
  0
LINE
  8
0
 10
-270.121
 20
-60.9745
 11
-272.158
 21
-58.555
  0
LINE
  8
0
 10
-272.158
 20
-58.555
 11
-274.033
 21
-55.9707
  0
LINE
  8
0
 10
-274.033
 20
-55.9707
 11
-275.744
 21
-53.2215
  0
LINE
  8
0
 10
-275.744
 20
-53.2215
 11
-277.292
 21
-50.3076
  0
LINE
  8
0
 10
-277.292
 20
-50.3076
 11
-278.677
 21
-47.2288
  0
LINE
  8
0
 10
-278.677
 20
-47.2288
 11
-279.899
 21
-43.9851
  0
LINE
  8
0
 10
-279.899
 20
-43.9851
 11
-280.959
 21
-40.5767
  0
LINE
  8
0
 10
-280.959
 20
-40.5767
 11
-281.855
 21
-37.0034
  0
LINE
  8
0
 10
-281.855
 20
-37.0034
 11
-282.588
 21
-33.2652
  0
LINE
  8
0
 10
-282.588
 20
-33.2652
 11
-283.159
 21
-29.3623
  0
LINE
  8
0
 10
-283.159
 20
-29.3623
 11
-283.566
 21
-25.2945
  0
LINE
  8
0
 10
-283.566
 20
-25.2945
 11
-283.811
 21
-21.0619
  0
LINE
  8
0
 10
-283.811
 20
-21.0619
 11
-283.892
 21
-16.6645
  0
LINE
  8
0
 10
-283.892
 20
-16.6645
 11
-283.81
 21
-12.4072
  0
LINE
  8
0
 10
-283.81
 20
-12.4072
 11
-283.561
 21
-8.30411
  0
LINE
  8
0
 10
-283.561
 20
-8.30411
 11
-283.148
 21
-4.35533
  0
LINE
  8
0
 10
-283.148
 20
-4.35533
 11
-282.569
 21
-0.560822
  0
LINE
  8
0
 10
-282.569
 20
-0.560822
 11
-281.824
 21
3.07939
  0
LINE
  8
0
 10
-281.824
 20
3.07939
 11
-280.914
 21
6.56537
  0
LINE
  8
0
 10
-280.914
 20
6.56537
 11
-279.839
 21
9.89705
  0
LINE
  8
0
 10
-279.839
 20
9.89705
 11
-278.598
 21
13.0745
  0
LINE
  8
0
 10
-278.598
 20
13.0745
 11
-277.191
 21
16.0976
  0
LINE
  8
0
 10
-277.191
 20
16.0976
 11
-275.619
 21
18.9665
  0
LINE
  8
0
 10
-275.619
 20
18.9665
 11
-273.882
 21
21.6811
  0
LINE
  8
0
 10
-273.882
 20
21.6811
 11
-271.979
 21
24.2414
  0
LINE
  8
0
 10
-271.979
 20
24.2414
 11
-269.911
 21
26.6475
  0
LINE
  8
0
 10
-269.911
 20
26.6475
 11
-267.691
 21
28.8868
  0
LINE
  8
0
 10
-267.691
 20
28.8868
 11
-265.333
 21
30.947
  0
LINE
  8
0
 10
-265.333
 20
30.947
 11
-262.837
 21
32.8281
  0
LINE
  8
0
 10
-262.837
 20
32.8281
 11
-260.202
 21
34.53
  0
LINE
  8
0
 10
-260.202
 20
34.53
 11
-257.43
 21
36.0528
  0
LINE
  8
0
 10
-257.43
 20
36.0528
 11
-254.519
 21
37.3964
  0
LINE
  8
0
 10
-254.519
 20
37.3964
 11
-251.47
 21
38.5608
  0
LINE
  8
0
 10
-251.47
 20
38.5608
 11
-248.284
 21
39.5461
  0
LINE
  8
0
 10
-248.284
 20
39.5461
 11
-244.959
 21
40.3523
  0
LINE
  8
0
 10
-244.959
 20
40.3523
 11
-241.496
 21
40.9793
  0
LINE
  8
0
 10
-241.496
 20
40.9793
 11
-237.895
 21
41.4272
  0
LINE
  8
0
 10
-237.895
 20
41.4272
 11
-234.156
 21
41.6959
  0
LINE
  8
0
 10
-234.156
 20
41.6959
 11
-230.278
 21
41.7855
  0
LINE
  8
0
 10
-230.278
 20
41.7855
 11
-226.578
 21
41.6894
  0
LINE
  8
0
 10
-226.578
 20
41.6894
 11
-223.015
 21
41.4011
  0
LINE
  8
0
 10
-223.015
 20
41.4011
 11
-219.589
 21
40.9205
  0
LINE
  8
0
 10
-219.589
 20
40.9205
 11
-216.3
 21
40.2478
  0
LINE
  8
0
 10
-216.3
 20
40.2478
 11
-213.147
 21
39.3828
  0
LINE
  8
0
 10
-213.147
 20
39.3828
 11
-210.132
 21
38.3257
  0
LINE
  8
0
 10
-210.132
 20
38.3257
 11
-207.253
 21
37.0763
  0
LINE
  8
0
 10
-207.253
 20
37.0763
 11
-204.511
 21
35.6347
  0
LINE
  8
0
 10
-204.511
 20
35.6347
 11
-201.906
 21
34.0009
  0
LINE
  8
0
 10
-201.906
 20
34.0009
 11
-199.438
 21
32.1748
  0
LINE
  8
0
 10
-199.438
 20
32.1748
 11
-197.106
 21
30.1566
  0
LINE
  8
0
 10
-197.106
 20
30.1566
 11
-194.912
 21
27.9462
  0
LINE
  8
0
 10
-194.912
 20
27.9462
 11
-192.854
 21
25.5435
  0
LINE
  8
0
 10
-192.854
 20
25.5435
 11
-190.941
 21
22.9555
  0
LINE
  8
0
 10
-190.941
 20
22.9555
 11
-189.182
 21
20.1889
  0
LINE
  8
0
 10
-189.182
 20
20.1889
 11
-187.575
 21
17.2438
  0
LINE
  8
0
 10
-187.575
 20
17.2438
 11
-186.121
 21
14.1203
  0
LINE
  8
0
 10
-186.121
 20
14.1203
 11
-184.82
 21
10.8181
  0
LINE
  8
0
 10
-184.82
 20
10.8181
 11
-183.672
 21
7.33751
  0
LINE
  8
0
 10
-183.672
 20
7.33751
 11
-182.678
 21
3.67834
  0
LINE
  8
0
 10
-182.678
 20
3.67834
 11
-181.836
 21
-0.159302
  0
LINE
  8
0
 10
-181.836
 20
-0.159302
 11
-181.147
 21
-4.17551
  0
LINE
  8
0
 10
-181.147
 20
-4.17551
 11
-180.612
 21
-8.37022
  0
LINE
  8
0
 10
-180.612
 20
-8.37022
 11
-180.229
 21
-12.7435
  0
LINE
  8
0
 10
-180.229
 20
-12.7435
 11
-180
 21
-17.2952
  0
LINE
  8
0
 10
-180
 20
-17.2952
 11
-179.923
 21
-22.0255
  0
LINE
  8
0
 10
-179.923
 20
-22.0255
 11
-179.923
 21
-22.8665
  0
LINE
  8
0
 10
-179.923
 20
-22.8665
 11
-252.88
 21
-22.8665
  0
LINE
  8
0
 10
-252.88
 20
-22.8665
 11
-252.844
 21
-25.3737
  0
LINE
  8
0
 10
-252.844
 20
-25.3737
 11
-252.735
 21
-27.7844
  0
LINE
  8
0
 10
-252.735
 20
-27.7844
 11
-252.553
 21
-30.0988
  0
LINE
  8
0
 10
-252.553
 20
-30.0988
 11
-252.298
 21
-32.3167
  0
LINE
  8
0
 10
-252.298
 20
-32.3167
 11
-251.97
 21
-34.4382
  0
LINE
  8
0
 10
-251.97
 20
-34.4382
 11
-251.57
 21
-36.4633
  0
LINE
  8
0
 10
-251.57
 20
-36.4633
 11
-251.097
 21
-38.392
  0
LINE
  8
0
 10
-251.097
 20
-38.392
 11
-250.551
 21
-40.2243
  0
LINE
  8
0
 10
-250.551
 20
-40.2243
 11
-249.933
 21
-41.9602
  0
LINE
  8
0
 10
-249.933
 20
-41.9602
 11
-249.241
 21
-43.5996
  0
LINE
  8
0
 10
-249.241
 20
-43.5996
 11
-248.477
 21
-45.1427
  0
LINE
  8
0
 10
-248.477
 20
-45.1427
 11
-247.64
 21
-46.5893
  0
LINE
  8
0
 10
-247.64
 20
-46.5893
 11
-246.73
 21
-47.9395
  0
LINE
  8
0
 10
-246.73
 20
-47.9395
 11
-245.753
 21
-49.1913
  0
LINE
  8
0
 10
-245.753
 20
-49.1913
 11
-244.715
 21
-50.3429
  0
LINE
  8
0
 10
-244.715
 20
-50.3429
 11
-243.615
 21
-51.3944
  0
LINE
  8
0
 10
-243.615
 20
-51.3944
 11
-242.453
 21
-52.3457
  0
LINE
  8
0
 10
-242.453
 20
-52.3457
 11
-241.23
 21
-53.1969
  0
LINE
  8
0
 10
-241.23
 20
-53.1969
 11
-239.945
 21
-53.948
  0
LINE
  8
0
 10
-239.945
 20
-53.948
 11
-238.599
 21
-54.5989
  0
LINE
  8
0
 10
-238.599
 20
-54.5989
 11
-237.191
 21
-55.1497
  0
LINE
  8
0
 10
-237.191
 20
-55.1497
 11
-235.721
 21
-55.6004
  0
LINE
  8
0
 10
-235.721
 20
-55.6004
 11
-234.19
 21
-55.9509
  0
LINE
  8
0
 10
-234.19
 20
-55.9509
 11
-232.597
 21
-56.2012
  0
LINE
  8
0
 10
-232.597
 20
-56.2012
 11
-230.943
 21
-56.3514
  0
LINE
  8
0
 10
-230.943
 20
-56.3514
 11
-229.227
 21
-56.4015
  0
LINE
  8
0
 10
-229.227
 20
-56.4015
 11
-226.886
 21
-56.3212
  0
LINE
  8
0
 10
-226.886
 20
-56.3212
 11
-224.681
 21
-56.0805
  0
LINE
  8
0
 10
-224.681
 20
-56.0805
 11
-222.614
 21
-55.6793
  0
LINE
  8
0
 10
-222.614
 20
-55.6793
 11
-220.683
 21
-55.1176
  0
LINE
  8
0
 10
-220.683
 20
-55.1176
 11
-218.889
 21
-54.3954
  0
LINE
  8
0
 10
-218.889
 20
-54.3954
 11
-217.232
 21
-53.5128
  0
LINE
  8
0
 10
-217.232
 20
-53.5128
 11
-215.711
 21
-52.4696
  0
LINE
  8
0
 10
-215.711
 20
-52.4696
 11
-214.328
 21
-51.266
  0
LINE
  8
0
 10
-214.328
 20
-51.266
 11
-213.081
 21
-49.9018
  0
LINE
  8
0
 10
-213.081
 20
-49.9018
 11
-211.971
 21
-48.3772
  0
LINE
  8
0
 10
-211.971
 20
-48.3772
 11
-210.998
 21
-46.6921
  0
LINE
  8
0
 10
-210.998
 20
-46.6921
 11
-210.162
 21
-44.8466
  0
LINE
  8
0
 10
-210.162
 20
-44.8466
 11
-209.463
 21
-42.8405
  0
LINE
  8
0
 10
-209.463
 20
-42.8405
 11
-181.605
 21
-45.2585
  0
LINE
  8
0
 10
-181.605
 20
-45.2585
 11
-183.613
 21
-49.8305
  0
LINE
  8
0
 10
-183.613
 20
-49.8305
 11
-185.915
 21
-54.0368
  0
LINE
  8
0
 10
-185.915
 20
-54.0368
 11
-188.512
 21
-57.8773
  0
LINE
  8
0
 10
-188.512
 20
-57.8773
 11
-191.404
 21
-61.3521
  0
LINE
  8
0
 10
-191.404
 20
-61.3521
 11
-194.591
 21
-64.4611
  0
LINE
  8
0
 10
-194.591
 20
-64.4611
 11
-198.072
 21
-67.2043
  0
LINE
  8
0
 10
-198.072
 20
-67.2043
 11
-201.849
 21
-69.5818
  0
LINE
  8
0
 10
-201.849
 20
-69.5818
 11
-205.92
 21
-71.5934
  0
LINE
  8
0
 10
-205.92
 20
-71.5934
 11
-210.286
 21
-73.2394
  0
LINE
  8
0
 10
-210.286
 20
-73.2394
 11
-214.947
 21
-74.5196
  0
LINE
  8
0
 10
-214.947
 20
-74.5196
 11
-219.903
 21
-75.434
  0
LINE
  8
0
 10
-219.903
 20
-75.434
 11
-225.154
 21
-75.9826
  0
LINE
  8
0
 10
-225.154
 20
-75.9826
 11
-230.699
 21
-76.1655
  0
LINE
  8
0
 10
-230.699
 20
-76.1655
 11
-234.575
 21
-76.0756
  0
LINE
  8
0
 10
-208.676
 20
-2.28662
 11
-208.893
 21
-0.290222
  0
LINE
  8
0
 10
-208.893
 20
-0.290222
 11
-209.169
 21
1.62468
  0
LINE
  8
0
 10
-209.169
 20
1.62468
 11
-209.503
 21
3.45811
  0
LINE
  8
0
 10
-209.503
 20
3.45811
 11
-209.895
 21
5.21008
  0
LINE
  8
0
 10
-209.895
 20
5.21008
 11
-210.346
 21
6.88055
  0
LINE
  8
0
 10
-210.346
 20
6.88055
 11
-210.856
 21
8.46956
  0
LINE
  8
0
 10
-210.856
 20
8.46956
 11
-211.423
 21
9.97708
  0
LINE
  8
0
 10
-211.423
 20
9.97708
 11
-212.05
 21
11.4031
  0
LINE
  8
0
 10
-212.05
 20
11.4031
 11
-212.735
 21
12.7477
  0
LINE
  8
0
 10
-212.735
 20
12.7477
 11
-213.478
 21
14.0108
  0
LINE
  8
0
 10
-213.478
 20
14.0108
 11
-214.28
 21
15.1924
  0
LINE
  8
0
 10
-214.28
 20
15.1924
 11
-215.14
 21
16.2925
  0
LINE
  8
0
 10
-215.14
 20
16.2925
 11
-216.053
 21
17.3111
  0
LINE
  8
0
 10
-216.053
 20
17.3111
 11
-217.014
 21
18.2483
  0
LINE
  8
0
 10
-217.014
 20
18.2483
 11
-218.022
 21
19.1039
  0
LINE
  8
0
 10
-218.022
 20
19.1039
 11
-219.077
 21
19.8781
  0
LINE
  8
0
 10
-219.077
 20
19.8781
 11
-220.179
 21
20.5708
  0
LINE
  8
0
 10
-220.179
 20
20.5708
 11
-221.328
 21
21.182
  0
LINE
  8
0
 10
-221.328
 20
21.182
 11
-222.525
 21
21.7117
  0
LINE
  8
0
 10
-222.525
 20
21.7117
 11
-223.769
 21
22.1599
  0
LINE
  8
0
 10
-223.769
 20
22.1599
 11
-225.061
 21
22.5266
  0
LINE
  8
0
 10
-225.061
 20
22.5266
 11
-226.4
 21
22.8118
  0
LINE
  8
0
 10
-226.4
 20
22.8118
 11
-227.785
 21
23.0155
  0
LINE
  8
0
 10
-227.785
 20
23.0155
 11
-229.219
 21
23.1377
  0
LINE
  8
0
 10
-229.219
 20
23.1377
 11
-230.699
 21
23.1785
  0
LINE
  8
0
 10
-230.699
 20
23.1785
 11
-232.272
 21
23.1356
  0
LINE
  8
0
 10
-232.272
 20
23.1356
 11
-233.788
 21
23.0068
  0
LINE
  8
0
 10
-233.788
 20
23.0068
 11
-235.248
 21
22.7922
  0
LINE
  8
0
 10
-235.248
 20
22.7922
 11
-236.651
 21
22.4917
  0
LINE
  8
0
 10
-236.651
 20
22.4917
 11
-237.997
 21
22.1054
  0
LINE
  8
0
 10
-237.997
 20
22.1054
 11
-239.287
 21
21.6333
  0
LINE
  8
0
 10
-239.287
 20
21.6333
 11
-240.52
 21
21.0753
  0
LINE
  8
0
 10
-240.52
 20
21.0753
 11
-241.697
 21
20.4314
  0
LINE
  8
0
 10
-241.697
 20
20.4314
 11
-242.816
 21
19.7017
  0
LINE
  8
0
 10
-242.816
 20
19.7017
 11
-243.88
 21
18.8862
  0
LINE
  8
0
 10
-243.88
 20
18.8862
 11
-244.887
 21
17.9848
  0
LINE
  8
0
 10
-244.887
 20
17.9848
 11
-245.837
 21
16.9976
  0
LINE
  8
0
 10
-245.837
 20
16.9976
 11
-246.73
 21
15.9245
  0
LINE
  8
0
 10
-246.73
 20
15.9245
 11
-247.564
 21
14.7743
  0
LINE
  8
0
 10
-247.564
 20
14.7743
 11
-248.335
 21
13.5557
  0
LINE
  8
0
 10
-248.335
 20
13.5557
 11
-249.043
 21
12.2686
  0
LINE
  8
0
 10
-249.043
 20
12.2686
 11
-249.689
 21
10.9132
  0
LINE
  8
0
 10
-249.689
 20
10.9132
 11
-250.271
 21
9.48932
  0
LINE
  8
0
 10
-250.271
 20
9.48932
 11
-250.791
 21
7.99704
  0
LINE
  8
0
 10
-250.791
 20
7.99704
 11
-251.248
 21
6.43634
  0
LINE
  8
0
 10
-251.248
 20
6.43634
 11
-251.642
 21
4.80724
  0
LINE
  8
0
 10
-251.642
 20
4.80724
 11
-251.973
 21
3.10971
  0
LINE
  8
0
 10
-251.973
 20
3.10971
 11
-252.242
 21
1.34378
  0
LINE
  8
0
 10
-252.242
 20
1.34378
 11
-252.447
 21
-0.490555
  0
LINE
  8
0
 10
-252.447
 20
-0.490555
 11
-252.59
 21
-2.39331
  0
LINE
  8
0
 10
-252.59
 20
-2.39331
 11
-252.67
 21
-4.36449
  0
LINE
  8
0
 10
-252.67
 20
-4.36449
 11
-208.517
 21
-4.36449
  0
LINE
  8
0
 10
-208.517
 20
-4.36449
 11
-208.676
 21
-2.28662
  0
LINE
  8
0
 10
419.936
 20
-76.0756
 11
416.2
 21
-75.8059
  0
LINE
  8
0
 10
416.2
 20
-75.8059
 11
412.606
 21
-75.3565
  0
LINE
  8
0
 10
412.606
 20
-75.3565
 11
409.151
 21
-74.7273
  0
LINE
  8
0
 10
409.151
 20
-74.7273
 11
405.838
 21
-73.9183
  0
LINE
  8
0
 10
405.838
 20
-73.9183
 11
402.665
 21
-72.9295
  0
LINE
  8
0
 10
402.665
 20
-72.9295
 11
399.632
 21
-71.761
  0
LINE
  8
0
 10
399.632
 20
-71.761
 11
396.74
 21
-70.4127
  0
LINE
  8
0
 10
396.74
 20
-70.4127
 11
393.989
 21
-68.8846
  0
LINE
  8
0
 10
393.989
 20
-68.8846
 11
391.378
 21
-67.1767
  0
LINE
  8
0
 10
391.378
 20
-67.1767
 11
388.908
 21
-65.2891
  0
LINE
  8
0
 10
388.908
 20
-65.2891
 11
386.579
 21
-63.2217
  0
LINE
  8
0
 10
386.579
 20
-63.2217
 11
384.389
 21
-60.9745
  0
LINE
  8
0
 10
384.389
 20
-60.9745
 11
382.352
 21
-58.555
  0
LINE
  8
0
 10
382.352
 20
-58.555
 11
380.478
 21
-55.9707
  0
LINE
  8
0
 10
380.478
 20
-55.9707
 11
378.767
 21
-53.2215
  0
LINE
  8
0
 10
378.767
 20
-53.2215
 11
377.219
 21
-50.3076
  0
LINE
  8
0
 10
377.219
 20
-50.3076
 11
375.834
 21
-47.2288
  0
LINE
  8
0
 10
375.834
 20
-47.2288
 11
374.611
 21
-43.9851
  0
LINE
  8
0
 10
374.611
 20
-43.9851
 11
373.552
 21
-40.5767
  0
LINE
  8
0
 10
373.552
 20
-40.5767
 11
372.656
 21
-37.0034
  0
LINE
  8
0
 10
372.656
 20
-37.0034
 11
371.922
 21
-33.2652
  0
LINE
  8
0
 10
371.922
 20
-33.2652
 11
371.352
 21
-29.3623
  0
LINE
  8
0
 10
371.352
 20
-29.3623
 11
370.944
 21
-25.2945
  0
LINE
  8
0
 10
370.944
 20
-25.2945
 11
370.7
 21
-21.0619
  0
LINE
  8
0
 10
370.7
 20
-21.0619
 11
370.618
 21
-16.6645
  0
LINE
  8
0
 10
370.618
 20
-16.6645
 11
370.701
 21
-12.4072
  0
LINE
  8
0
 10
370.701
 20
-12.4072
 11
370.949
 21
-8.30411
  0
LINE
  8
0
 10
370.949
 20
-8.30411
 11
371.363
 21
-4.35533
  0
LINE
  8
0
 10
371.363
 20
-4.35533
 11
371.942
 21
-0.560822
  0
LINE
  8
0
 10
371.942
 20
-0.560822
 11
372.687
 21
3.07939
  0
LINE
  8
0
 10
372.687
 20
3.07939
 11
373.597
 21
6.56537
  0
LINE
  8
0
 10
373.597
 20
6.56537
 11
374.672
 21
9.89705
  0
LINE
  8
0
 10
374.672
 20
9.89705
 11
375.913
 21
13.0745
  0
LINE
  8
0
 10
375.913
 20
13.0745
 11
377.319
 21
16.0976
  0
LINE
  8
0
 10
377.319
 20
16.0976
 11
378.891
 21
18.9665
  0
LINE
  8
0
 10
378.891
 20
18.9665
 11
380.629
 21
21.6811
  0
LINE
  8
0
 10
380.629
 20
21.6811
 11
382.531
 21
24.2414
  0
LINE
  8
0
 10
382.531
 20
24.2414
 11
384.599
 21
26.6475
  0
LINE
  8
0
 10
384.599
 20
26.6475
 11
386.82
 21
28.8868
  0
LINE
  8
0
 10
386.82
 20
28.8868
 11
389.178
 21
30.947
  0
LINE
  8
0
 10
389.178
 20
30.947
 11
391.674
 21
32.8281
  0
LINE
  8
0
 10
391.674
 20
32.8281
 11
394.309
 21
34.53
  0
LINE
  8
0
 10
394.309
 20
34.53
 11
397.081
 21
36.0528
  0
LINE
  8
0
 10
397.081
 20
36.0528
 11
399.992
 21
37.3964
  0
LINE
  8
0
 10
399.992
 20
37.3964
 11
403.04
 21
38.5608
  0
LINE
  8
0
 10
403.04
 20
38.5608
 11
406.227
 21
39.5461
  0
LINE
  8
0
 10
406.227
 20
39.5461
 11
409.552
 21
40.3523
  0
LINE
  8
0
 10
409.552
 20
40.3523
 11
413.015
 21
40.9793
  0
LINE
  8
0
 10
413.015
 20
40.9793
 11
416.616
 21
41.4272
  0
LINE
  8
0
 10
416.616
 20
41.4272
 11
420.355
 21
41.6959
  0
LINE
  8
0
 10
420.355
 20
41.6959
 11
424.232
 21
41.7855
  0
LINE
  8
0
 10
424.232
 20
41.7855
 11
427.932
 21
41.6894
  0
LINE
  8
0
 10
427.932
 20
41.6894
 11
431.495
 21
41.4011
  0
LINE
  8
0
 10
431.495
 20
41.4011
 11
434.922
 21
40.9205
  0
LINE
  8
0
 10
434.922
 20
40.9205
 11
438.211
 21
40.2478
  0
LINE
  8
0
 10
438.211
 20
40.2478
 11
441.363
 21
39.3828
  0
LINE
  8
0
 10
441.363
 20
39.3828
 11
444.379
 21
38.3257
  0
LINE
  8
0
 10
444.379
 20
38.3257
 11
447.258
 21
37.0763
  0
LINE
  8
0
 10
447.258
 20
37.0763
 11
450
 21
35.6347
  0
LINE
  8
0
 10
450
 20
35.6347
 11
452.605
 21
34.0009
  0
LINE
  8
0
 10
452.605
 20
34.0009
 11
455.073
 21
32.1748
  0
LINE
  8
0
 10
455.073
 20
32.1748
 11
457.404
 21
30.1566
  0
LINE
  8
0
 10
457.404
 20
30.1566
 11
459.599
 21
27.9462
  0
LINE
  8
0
 10
459.599
 20
27.9462
 11
461.656
 21
25.5435
  0
LINE
  8
0
 10
461.656
 20
25.5435
 11
463.569
 21
22.9555
  0
LINE
  8
0
 10
463.569
 20
22.9555
 11
465.329
 21
20.1889
  0
LINE
  8
0
 10
465.329
 20
20.1889
 11
466.936
 21
17.2438
  0
LINE
  8
0
 10
466.936
 20
17.2438
 11
468.39
 21
14.1203
  0
LINE
  8
0
 10
468.39
 20
14.1203
 11
469.691
 21
10.8181
  0
LINE
  8
0
 10
469.691
 20
10.8181
 11
470.838
 21
7.33751
  0
LINE
  8
0
 10
470.838
 20
7.33751
 11
471.833
 21
3.67834
  0
LINE
  8
0
 10
471.833
 20
3.67834
 11
472.675
 21
-0.159302
  0
LINE
  8
0
 10
472.675
 20
-0.159302
 11
473.363
 21
-4.17551
  0
LINE
  8
0
 10
473.363
 20
-4.17551
 11
473.899
 21
-8.37022
  0
LINE
  8
0
 10
473.899
 20
-8.37022
 11
474.281
 21
-12.7435
  0
LINE
  8
0
 10
474.281
 20
-12.7435
 11
474.511
 21
-17.2952
  0
LINE
  8
0
 10
474.511
 20
-17.2952
 11
474.587
 21
-22.0255
  0
LINE
  8
0
 10
474.587
 20
-22.0255
 11
474.587
 21
-22.8665
  0
LINE
  8
0
 10
474.587
 20
-22.8665
 11
401.63
 21
-22.8665
  0
LINE
  8
0
 10
401.63
 20
-22.8665
 11
401.667
 21
-25.3737
  0
LINE
  8
0
 10
401.667
 20
-25.3737
 11
401.776
 21
-27.7844
  0
LINE
  8
0
 10
401.776
 20
-27.7844
 11
401.958
 21
-30.0988
  0
LINE
  8
0
 10
401.958
 20
-30.0988
 11
402.213
 21
-32.3167
  0
LINE
  8
0
 10
402.213
 20
-32.3167
 11
402.54
 21
-34.4382
  0
LINE
  8
0
 10
402.54
 20
-34.4382
 11
402.941
 21
-36.4633
  0
LINE
  8
0
 10
402.941
 20
-36.4633
 11
403.414
 21
-38.392
  0
LINE
  8
0
 10
403.414
 20
-38.392
 11
403.959
 21
-40.2243
  0
LINE
  8
0
 10
403.959
 20
-40.2243
 11
404.578
 21
-41.9602
  0
LINE
  8
0
 10
404.578
 20
-41.9602
 11
405.27
 21
-43.5996
  0
LINE
  8
0
 10
405.27
 20
-43.5996
 11
406.034
 21
-45.1427
  0
LINE
  8
0
 10
406.034
 20
-45.1427
 11
406.871
 21
-46.5893
  0
LINE
  8
0
 10
406.871
 20
-46.5893
 11
407.78
 21
-47.9395
  0
LINE
  8
0
 10
407.78
 20
-47.9395
 11
408.757
 21
-49.1913
  0
LINE
  8
0
 10
408.757
 20
-49.1913
 11
409.796
 21
-50.3429
  0
LINE
  8
0
 10
409.796
 20
-50.3429
 11
410.896
 21
-51.3944
  0
LINE
  8
0
 10
410.896
 20
-51.3944
 11
412.058
 21
-52.3457
  0
LINE
  8
0
 10
412.058
 20
-52.3457
 11
413.281
 21
-53.1969
  0
LINE
  8
0
 10
413.281
 20
-53.1969
 11
414.566
 21
-53.948
  0
LINE
  8
0
 10
414.566
 20
-53.948
 11
415.912
 21
-54.5989
  0
LINE
  8
0
 10
415.912
 20
-54.5989
 11
417.32
 21
-55.1497
  0
LINE
  8
0
 10
417.32
 20
-55.1497
 11
418.79
 21
-55.6004
  0
LINE
  8
0
 10
418.79
 20
-55.6004
 11
420.321
 21
-55.9509
  0
LINE
  8
0
 10
420.321
 20
-55.9509
 11
421.913
 21
-56.2012
  0
LINE
  8
0
 10
421.913
 20
-56.2012
 11
423.568
 21
-56.3514
  0
LINE
  8
0
 10
423.568
 20
-56.3514
 11
425.283
 21
-56.4015
  0
LINE
  8
0
 10
425.283
 20
-56.4015
 11
427.625
 21
-56.3212
  0
LINE
  8
0
 10
427.625
 20
-56.3212
 11
429.829
 21
-56.0805
  0
LINE
  8
0
 10
429.829
 20
-56.0805
 11
431.897
 21
-55.6793
  0
LINE
  8
0
 10
431.897
 20
-55.6793
 11
433.828
 21
-55.1176
  0
LINE
  8
0
 10
433.828
 20
-55.1176
 11
435.622
 21
-54.3954
  0
LINE
  8
0
 10
435.622
 20
-54.3954
 11
437.279
 21
-53.5128
  0
LINE
  8
0
 10
437.279
 20
-53.5128
 11
438.8
 21
-52.4696
  0
LINE
  8
0
 10
438.8
 20
-52.4696
 11
440.183
 21
-51.266
  0
LINE
  8
0
 10
440.183
 20
-51.266
 11
441.43
 21
-49.9018
  0
LINE
  8
0
 10
441.43
 20
-49.9018
 11
442.539
 21
-48.3772
  0
LINE
  8
0
 10
442.539
 20
-48.3772
 11
443.512
 21
-46.6921
  0
LINE
  8
0
 10
443.512
 20
-46.6921
 11
444.348
 21
-44.8466
  0
LINE
  8
0
 10
444.348
 20
-44.8466
 11
445.047
 21
-42.8405
  0
LINE
  8
0
 10
445.047
 20
-42.8405
 11
472.905
 21
-45.2585
  0
LINE
  8
0
 10
472.905
 20
-45.2585
 11
470.898
 21
-49.8305
  0
LINE
  8
0
 10
470.898
 20
-49.8305
 11
468.596
 21
-54.0368
  0
LINE
  8
0
 10
468.596
 20
-54.0368
 11
465.999
 21
-57.8773
  0
LINE
  8
0
 10
465.999
 20
-57.8773
 11
463.107
 21
-61.3521
  0
LINE
  8
0
 10
463.107
 20
-61.3521
 11
459.92
 21
-64.4611
  0
LINE
  8
0
 10
459.92
 20
-64.4611
 11
456.438
 21
-67.2043
  0
LINE
  8
0
 10
456.438
 20
-67.2043
 11
452.662
 21
-69.5818
  0
LINE
  8
0
 10
452.662
 20
-69.5818
 11
448.591
 21
-71.5934
  0
LINE
  8
0
 10
448.591
 20
-71.5934
 11
444.224
 21
-73.2394
  0
LINE
  8
0
 10
444.224
 20
-73.2394
 11
439.563
 21
-74.5196
  0
LINE
  8
0
 10
439.563
 20
-74.5196
 11
434.608
 21
-75.434
  0
LINE
  8
0
 10
434.608
 20
-75.434
 11
429.357
 21
-75.9826
  0
LINE
  8
0
 10
429.357
 20
-75.9826
 11
423.811
 21
-76.1655
  0
LINE
  8
0
 10
423.811
 20
-76.1655
 11
419.936
 21
-76.0756
  0
LINE
  8
0
 10
445.835
 20
-2.28662
 11
445.618
 21
-0.290222
  0
LINE
  8
0
 10
445.618
 20
-0.290222
 11
445.342
 21
1.62468
  0
LINE
  8
0
 10
445.342
 20
1.62468
 11
445.008
 21
3.45811
  0
LINE
  8
0
 10
445.008
 20
3.45811
 11
444.616
 21
5.21008
  0
LINE
  8
0
 10
444.616
 20
5.21008
 11
444.165
 21
6.88055
  0
LINE
  8
0
 10
444.165
 20
6.88055
 11
443.655
 21
8.46956
  0
LINE
  8
0
 10
443.655
 20
8.46956
 11
443.087
 21
9.97708
  0
LINE
  8
0
 10
443.087
 20
9.97708
 11
442.461
 21
11.4031
  0
LINE
  8
0
 10
442.461
 20
11.4031
 11
441.776
 21
12.7477
  0
LINE
  8
0
 10
441.776
 20
12.7477
 11
441.033
 21
14.0108
  0
LINE
  8
0
 10
441.033
 20
14.0108
 11
440.231
 21
15.1924
  0
LINE
  8
0
 10
440.231
 20
15.1924
 11
439.37
 21
16.2925
  0
LINE
  8
0
 10
439.37
 20
16.2925
 11
438.457
 21
17.3111
  0
LINE
  8
0
 10
438.457
 20
17.3111
 11
437.497
 21
18.2483
  0
LINE
  8
0
 10
437.497
 20
18.2483
 11
436.489
 21
19.1039
  0
LINE
  8
0
 10
436.489
 20
19.1039
 11
435.434
 21
19.8781
  0
LINE
  8
0
 10
435.434
 20
19.8781
 11
434.332
 21
20.5708
  0
LINE
  8
0
 10
434.332
 20
20.5708
 11
433.182
 21
21.182
  0
LINE
  8
0
 10
433.182
 20
21.182
 11
431.985
 21
21.7117
  0
LINE
  8
0
 10
431.985
 20
21.7117
 11
430.741
 21
22.1599
  0
LINE
  8
0
 10
430.741
 20
22.1599
 11
429.45
 21
22.5266
  0
LINE
  8
0
 10
429.45
 20
22.5266
 11
428.111
 21
22.8118
  0
LINE
  8
0
 10
428.111
 20
22.8118
 11
426.725
 21
23.0155
  0
LINE
  8
0
 10
426.725
 20
23.0155
 11
425.292
 21
23.1377
  0
LINE
  8
0
 10
425.292
 20
23.1377
 11
423.811
 21
23.1785
  0
LINE
  8
0
 10
423.811
 20
23.1785
 11
422.239
 21
23.1356
  0
LINE
  8
0
 10
422.239
 20
23.1356
 11
420.723
 21
23.0068
  0
LINE
  8
0
 10
420.723
 20
23.0068
 11
419.263
 21
22.7922
  0
LINE
  8
0
 10
419.263
 20
22.7922
 11
417.86
 21
22.4917
  0
LINE
  8
0
 10
417.86
 20
22.4917
 11
416.514
 21
22.1054
  0
LINE
  8
0
 10
416.514
 20
22.1054
 11
415.224
 21
21.6333
  0
LINE
  8
0
 10
415.224
 20
21.6333
 11
413.991
 21
21.0753
  0
LINE
  8
0
 10
413.991
 20
21.0753
 11
412.814
 21
20.4314
  0
LINE
  8
0
 10
412.814
 20
20.4314
 11
411.694
 21
19.7017
  0
LINE
  8
0
 10
411.694
 20
19.7017
 11
410.631
 21
18.8862
  0
LINE
  8
0
 10
410.631
 20
18.8862
 11
409.624
 21
17.9848
  0
LINE
  8
0
 10
409.624
 20
17.9848
 11
408.674
 21
16.9976
  0
LINE
  8
0
 10
408.674
 20
16.9976
 11
407.78
 21
15.9245
  0
LINE
  8
0
 10
407.78
 20
15.9245
 11
406.947
 21
14.7743
  0
LINE
  8
0
 10
406.947
 20
14.7743
 11
406.176
 21
13.5557
  0
LINE
  8
0
 10
406.176
 20
13.5557
 11
405.467
 21
12.2686
  0
LINE
  8
0
 10
405.467
 20
12.2686
 11
404.822
 21
10.9132
  0
LINE
  8
0
 10
404.822
 20
10.9132
 11
404.24
 21
9.48932
  0
LINE
  8
0
 10
404.24
 20
9.48932
 11
403.72
 21
7.99704
  0
LINE
  8
0
 10
403.72
 20
7.99704
 11
403.263
 21
6.43634
  0
LINE
  8
0
 10
403.263
 20
6.43634
 11
402.869
 21
4.80724
  0
LINE
  8
0
 10
402.869
 20
4.80724
 11
402.537
 21
3.10971
  0
LINE
  8
0
 10
402.537
 20
3.10971
 11
402.269
 21
1.34378
  0
LINE
  8
0
 10
402.269
 20
1.34378
 11
402.063
 21
-0.490555
  0
LINE
  8
0
 10
402.063
 20
-0.490555
 11
401.921
 21
-2.39331
  0
LINE
  8
0
 10
401.921
 20
-2.39331
 11
401.84
 21
-4.36449
  0
LINE
  8
0
 10
401.84
 20
-4.36449
 11
445.993
 21
-4.36449
  0
LINE
  8
0
 10
445.993
 20
-4.36449
 11
445.835
 21
-2.28662
  0
LINE
  8
0
 10
-133.857
 20
-74.0625
 11
-174.54
 21
39.6825
  0
LINE
  8
0
 10
-174.54
 20
39.6825
 11
-143.318
 21
39.6825
  0
LINE
  8
0
 10
-143.318
 20
39.6825
 11
-123.449
 21
-23.9175
  0
LINE
  8
0
 10
-123.449
 20
-23.9175
 11
-123.181
 21
-24.8196
  0
LINE
  8
0
 10
-123.181
 20
-24.8196
 11
-122.862
 21
-25.9082
  0
LINE
  8
0
 10
-122.862
 20
-25.9082
 11
-122.492
 21
-27.1835
  0
LINE
  8
0
 10
-122.492
 20
-27.1835
 11
-122.071
 21
-28.6454
  0
LINE
  8
0
 10
-122.071
 20
-28.6454
 11
-121.599
 21
-30.2939
  0
LINE
  8
0
 10
-121.599
 20
-30.2939
 11
-121.076
 21
-32.129
  0
LINE
  8
0
 10
-121.076
 20
-32.129
 11
-120.501
 21
-34.1507
  0
LINE
  8
0
 10
-120.501
 20
-34.1507
 11
-119.876
 21
-36.359
  0
LINE
  8
0
 10
-119.876
 20
-36.359
 11
-119.2
 21
-38.7539
  0
LINE
  8
0
 10
-119.2
 20
-38.7539
 11
-118.473
 21
-41.3354
  0
LINE
  8
0
 10
-118.473
 20
-41.3354
 11
-117.695
 21
-44.1035
  0
LINE
  8
0
 10
-117.695
 20
-44.1035
 11
-116.866
 21
-47.0582
  0
LINE
  8
0
 10
-116.866
 20
-47.0582
 11
-115.985
 21
-50.1995
  0
LINE
  8
0
 10
-115.985
 20
-50.1995
 11
-115.811
 21
-49.4977
  0
LINE
  8
0
 10
-115.811
 20
-49.4977
 11
-115.61
 21
-48.7188
  0
LINE
  8
0
 10
-115.61
 20
-48.7188
 11
-115.383
 21
-47.8628
  0
LINE
  8
0
 10
-115.383
 20
-47.8628
 11
-115.13
 21
-46.9297
  0
LINE
  8
0
 10
-115.13
 20
-46.9297
 11
-114.85
 21
-45.9194
  0
LINE
  8
0
 10
-114.85
 20
-45.9194
 11
-114.545
 21
-44.8321
  0
LINE
  8
0
 10
-114.545
 20
-44.8321
 11
-114.213
 21
-43.6676
  0
LINE
  8
0
 10
-114.213
 20
-43.6676
 11
-113.856
 21
-42.4261
  0
LINE
  8
0
 10
-113.856
 20
-42.4261
 11
-113.472
 21
-41.1074
  0
LINE
  8
0
 10
-113.472
 20
-41.1074
 11
-113.062
 21
-39.7116
  0
LINE
  8
0
 10
-113.062
 20
-39.7116
 11
-112.626
 21
-38.2386
  0
LINE
  8
0
 10
-112.626
 20
-38.2386
 11
-112.164
 21
-36.6886
  0
LINE
  8
0
 10
-112.164
 20
-36.6886
 11
-111.675
 21
-35.0615
  0
LINE
  8
0
 10
-111.675
 20
-35.0615
 11
-111.069
 21
-33.0815
  0
LINE
  8
0
 10
-111.069
 20
-33.0815
 11
-110.255
 21
-30.4733
  0
LINE
  8
0
 10
-110.255
 20
-30.4733
 11
-109.231
 21
-27.2368
  0
LINE
  8
0
 10
-109.231
 20
-27.2368
 11
-107.998
 21
-23.372
  0
LINE
  8
0
 10
-107.998
 20
-23.372
 11
-106.556
 21
-18.879
  0
LINE
  8
0
 10
-106.556
 20
-18.879
 11
-104.905
 21
-13.7577
  0
LINE
  8
0
 10
-104.905
 20
-13.7577
 11
-103.045
 21
-8.00819
  0
LINE
  8
0
 10
-103.045
 20
-8.00819
 11
-100.976
 21
-1.63039
  0
LINE
  8
0
 10
-100.976
 20
-1.63039
 11
-98.6981
 21
5.37566
  0
LINE
  8
0
 10
-98.6981
 20
5.37566
 11
-96.2112
 21
13.01
  0
LINE
  8
0
 10
-96.2112
 20
13.01
 11
-93.5153
 21
21.2726
  0
LINE
  8
0
 10
-93.5153
 20
21.2726
 11
-90.6103
 21
30.1634
  0
LINE
  8
0
 10
-90.6103
 20
30.1634
 11
-87.4963
 21
39.6825
  0
LINE
  8
0
 10
-87.4963
 20
39.6825
 11
-56.5903
 21
39.6825
  0
LINE
  8
0
 10
-56.5903
 20
39.6825
 11
-98.5353
 21
-74.0625
  0
LINE
  8
0
 10
-98.5353
 20
-74.0625
 11
-133.857
 21
-74.0625
  0
ENDSEC
  0
SECTION
  2
OBJECTS
  0
DICTIONARY
  0
ENDSEC
  0
EOF
